<svg width="32" height="32" viewBox="0 0 32 32" fill="none" xmlns="http://www.w3.org/2000/svg">
<g clip-path="url(#clip0_28_989)">
<path d="M16.3714 18.0635C19.4541 18.0635 21.9531 15.5645 21.9531 12.4818C21.9531 9.39914 19.4541 6.90015 16.3714 6.90015C13.2888 6.90015 10.7898 9.39914 10.7898 12.4818C10.7898 15.5645 13.2888 18.0635 16.3714 18.0635Z" stroke="#9A9A9A" stroke-width="2" stroke-linecap="round" stroke-linejoin="round"/>
<path d="M6.83789 26.7708C7.8342 25.1355 9.23445 23.7839 10.904 22.846C12.5736 21.9081 14.4564 21.4155 16.3714 21.4155C18.2864 21.4155 20.1691 21.9081 21.8387 22.846C23.5083 23.7839 24.9086 25.1355 25.9049 26.7708" stroke="#9A9A9A" stroke-width="2" stroke-linecap="round" stroke-linejoin="round"/>
<path d="M16.3715 30.3432C24.3864 30.3432 30.8838 23.8458 30.8838 15.8308C30.8838 7.81588 24.3864 1.31848 16.3715 1.31848C8.35653 1.31848 1.85913 7.81588 1.85913 15.8308C1.85913 23.8458 8.35653 30.3432 16.3715 30.3432Z" stroke="#9A9A9A" stroke-width="2" stroke-linecap="round" stroke-linejoin="round"/>
</g>
<defs>
<clipPath id="clip0_28_989">
<rect width="31.2574" height="31.2574" fill="white" transform="translate(0.742676 0.202148)"/>
</clipPath>
</defs>
</svg>
