<svg width="23" height="31" viewBox="0 0 23 31" fill="none" xmlns="http://www.w3.org/2000/svg">
<path d="M8.7591 18.8712L10.3635 23.0002H12.6364L14.2409 18.8712C14.9895 16.9449 15.4187 14.2585 15.4187 11.5003C15.4187 8.2966 14.9391 5.29857 14.0684 3.05801C13.3246 1.14312 12.3642 0 11.5001 0C10.6358 0 9.67566 1.14312 8.93154 3.05801C8.0609 5.29857 7.5813 8.2966 7.5813 11.5001C7.5813 14.2585 8.01053 16.9449 8.7591 18.8712Z" fill="#B5C8FD"/>
<path d="M14.7986 0.482849C15.1437 1.0318 15.4614 1.67424 15.7459 2.40617C16.6952 4.84963 17.2182 8.07914 17.2182 11.5001C17.2182 14.5164 16.7564 17.3654 15.9183 19.523L14.5669 23.0002H15.3548C15.5933 23.0002 15.8222 22.9053 15.9909 22.7366L20.0114 18.7163C21.9387 16.7886 23.0001 14.2261 23.0001 11.5001C23.0001 6.30483 19.5372 1.90408 14.7986 0.482849Z" fill="#B5C8FD"/>
<path d="M8.43319 23.0002L7.08178 19.523C6.24371 17.3654 5.78192 14.5164 5.78192 11.5003C5.78192 8.07914 6.30486 4.84963 7.25422 2.40617C7.53865 1.67424 7.85659 1.0318 8.20171 0.482849C3.4631 1.90408 0 6.30506 0 11.5003C0 14.2259 1.06135 16.7886 2.98866 18.7163L7.00915 22.7366C7.17784 22.9053 7.40675 23.0002 7.64526 23.0002H8.43319Z" fill="#B5C8FD"/>
<path d="M13.8554 26.8548H9.14472V24.7994H7.57143C7.49529 24.7994 7.41984 24.798 7.34534 24.7952V29.8098C7.34534 30.3067 7.74832 30.7095 8.24503 30.7095H14.7549C15.2516 30.7095 15.6546 30.3067 15.6546 29.8098L15.6548 24.7996H13.8554V26.8548Z" fill="#B5C8FD"/>
</svg>
