<svg width="31" height="31" viewBox="0 0 31 31" fill="none" xmlns="http://www.w3.org/2000/svg">
<path d="M3.22915 14.2083V10.3333C3.58565 10.3333 3.875 10.044 3.875 9.68748C3.875 9.33098 3.58565 9.04163 3.22915 9.04163C1.44798 9.04163 0 10.4909 0 12.2708V13.5625C0 14.6307 0.869272 15.5 1.9375 15.5H3.22915C3.58565 15.5 3.875 15.2106 3.875 14.8541C3.875 14.4976 3.58565 14.2083 3.22915 14.2083Z" fill="#B5C8FD"/>
<path d="M27.7709 9.04163C27.4144 9.04163 27.125 9.33098 27.125 9.68748C27.125 10.044 27.4144 10.3333 27.7709 10.3333V14.2083C27.4144 14.2083 27.125 14.4977 27.125 14.8542C27.125 15.2107 27.4144 15.5 27.7709 15.5H29.0625C30.1307 15.5 31 14.6307 31 13.5625V12.2708C31 10.4909 29.552 9.04163 27.7709 9.04163Z" fill="#B5C8FD"/>
<path d="M10.9792 27.125C10.6227 27.125 10.3333 27.4144 10.3333 27.7709H6.45833C6.45833 27.4144 6.16898 27.125 5.81248 27.125C5.45598 27.125 5.16663 27.4144 5.16663 27.7709V29.0625C5.16663 30.1307 6.0359 31 7.10413 31H9.68754C10.7558 31 11.625 30.1307 11.625 29.0625V27.7709C11.625 27.4144 11.3357 27.125 10.9792 27.125Z" fill="#B5C8FD"/>
<path d="M25.1875 27.125C24.831 27.125 24.5416 27.4144 24.5416 27.7709H20.6666C20.6666 27.4144 20.3773 27.125 20.0208 27.125C19.6643 27.125 19.375 27.4144 19.375 27.7709V29.0625C19.375 30.1307 20.2443 31 21.3125 31H23.8959C24.9641 31 25.8334 30.1307 25.8334 29.0625V27.7709C25.8334 27.4144 25.544 27.125 25.1875 27.125Z" fill="#B5C8FD"/>
<path d="M25.1875 0H5.81252C4.03129 0 2.58337 1.44925 2.58337 3.22915V25.1875C2.58337 26.9674 4.03135 28.4166 5.81252 28.4166H25.1875C26.9688 28.4166 28.4167 26.9674 28.4167 25.1875V3.22915C28.4167 1.44925 26.9688 0 25.1875 0ZM8.39587 2.58335H22.6042C23.6725 2.58335 24.5417 3.45263 24.5417 4.52085C24.5417 5.58908 23.6725 6.45835 22.6042 6.45835H8.39587C7.32765 6.45835 6.45837 5.58908 6.45837 4.52085C6.45837 3.45263 7.32765 2.58335 8.39587 2.58335ZM8.39587 24.5416C7.32765 24.5416 6.45837 23.6724 6.45837 22.6041C6.45837 21.5359 7.32765 20.6666 8.39587 20.6666C9.4641 20.6666 10.3334 21.5359 10.3334 22.6041C10.3334 23.6724 9.46404 24.5416 8.39587 24.5416ZM22.6042 24.5416C21.5359 24.5416 20.6667 23.6724 20.6667 22.6041C20.6667 21.5359 21.5359 20.6666 22.6042 20.6666C23.6724 20.6666 24.5417 21.5359 24.5417 22.6041C24.5417 23.6724 23.6724 24.5416 22.6042 24.5416ZM25.8334 16.1459C25.8334 17.2141 24.9641 18.0834 23.8959 18.0834H7.10417C6.03594 18.0834 5.16667 17.2141 5.16667 16.1459V9.6875C5.16667 8.61927 6.03594 7.75 7.10417 7.75H23.8958C24.964 7.75 25.8333 8.61927 25.8333 9.6875V16.1459H25.8334Z" fill="#B5C8FD"/>
</svg>
