<svg width="30" height="29" viewBox="0 0 30 29" fill="none" xmlns="http://www.w3.org/2000/svg">
<path fill-rule="evenodd" clip-rule="evenodd" d="M6.73862 0.833367C6.64736 0.834702 6.55726 0.85401 6.47347 0.890186C6.38968 0.926362 6.31384 0.978699 6.25029 1.0442C6.18674 1.10971 6.13672 1.18709 6.1031 1.27194C6.06947 1.35678 6.0529 1.44742 6.05433 1.53868V2.23314H2.58406C1.44188 2.23314 0.5 3.17231 0.5 4.31449V26.5372C0.5 27.6794 1.44188 28.6213 2.58406 28.6213H4.31885C4.41011 28.6213 4.50047 28.6034 4.58478 28.5684C4.6691 28.5335 4.74571 28.4824 4.81024 28.4178C4.87477 28.3533 4.92596 28.2767 4.96089 28.1924C4.99581 28.1081 5.01379 28.0177 5.01379 27.9265C5.01379 27.8352 4.99581 27.7449 4.96089 27.6606C4.92596 27.5763 4.87477 27.4997 4.81024 27.4351C4.74571 27.3706 4.6691 27.3195 4.58478 27.2845C4.50047 27.2496 4.41011 27.2317 4.31885 27.2317H2.58406C2.18732 27.2317 1.88892 26.934 1.88892 26.5372V9.17707H6.74879C6.84004 9.17709 6.93041 9.15913 7.01472 9.12422C7.09903 9.08931 7.17564 9.03814 7.24017 8.97362C7.30471 8.9091 7.3559 8.8325 7.39082 8.74819C7.42575 8.66388 7.44372 8.57352 7.44372 8.48227C7.44372 8.39102 7.42575 8.30066 7.39082 8.21635C7.3559 8.13205 7.30471 8.05544 7.24017 7.99092C7.17564 7.9264 7.09903 7.87523 7.01472 7.84032C6.93041 7.80541 6.84004 7.78745 6.74879 7.78747H1.88892V4.31449C1.88892 3.91774 2.18732 3.61935 2.58406 3.61935H6.05433V4.31449C6.05228 4.40698 6.06872 4.49895 6.1027 4.58501C6.13668 4.67106 6.1875 4.74945 6.25219 4.8156C6.31688 4.88174 6.39413 4.93429 6.47941 4.97017C6.56469 5.00604 6.65627 5.02453 6.74879 5.02453C6.84131 5.02453 6.93289 5.00604 7.01817 4.97017C7.10344 4.93429 7.18069 4.88174 7.24538 4.8156C7.31007 4.74945 7.3609 4.67106 7.39488 4.58501C7.42886 4.49895 7.4453 4.40698 7.44325 4.31449V3.61935H11.6114V4.31449C11.6114 4.49874 11.6846 4.67543 11.8149 4.8057C11.9452 4.93597 12.1219 5.00915 12.3062 5.00915C12.4904 5.00915 12.6671 4.93597 12.7974 4.8057C12.9277 4.67543 13.0009 4.49874 13.001 4.31449V3.61935H17.1657V4.31449C17.1657 4.49874 17.239 4.67543 17.3692 4.8057C17.4995 4.93597 17.6762 5.00915 17.8605 5.00915C18.0447 5.00915 18.2215 4.93597 18.3517 4.8057C18.482 4.67543 18.5553 4.49874 18.5553 4.31449V3.61935H22.7227V4.31449C22.7227 4.40574 22.7407 4.49611 22.7756 4.58042C22.8105 4.66473 22.8617 4.74134 22.9262 4.80587C22.9907 4.87041 23.0673 4.9216 23.1516 4.95652C23.2359 4.99145 23.3263 5.00942 23.4175 5.00942C23.5088 5.00942 23.5992 4.99145 23.6835 4.95652C23.7678 4.9216 23.8444 4.87041 23.9089 4.80587C23.9734 4.74134 24.0246 4.66473 24.0595 4.58042C24.0944 4.49611 24.1124 4.40574 24.1123 4.31449V3.61935H27.5826C27.9793 3.61935 28.2771 3.91774 28.2771 4.31449V7.78747H15.0816C14.8974 7.78751 14.7207 7.86072 14.5904 7.99102C14.4602 8.12132 14.387 8.29802 14.387 8.48227C14.387 8.66652 14.4602 8.84322 14.5904 8.97352C14.7207 9.10382 14.8974 9.17703 15.0816 9.17707H28.2771V26.5372C28.2771 26.934 27.9794 27.2317 27.5826 27.2317H9.17872C9.08747 27.2317 8.99711 27.2496 8.91279 27.2845C8.82848 27.3195 8.75187 27.3706 8.68734 27.4351C8.62281 27.4997 8.57161 27.5763 8.53669 27.6606C8.50176 27.7449 8.48379 27.8352 8.48379 27.9265C8.48379 28.0177 8.50176 28.1081 8.53669 28.1924C8.57161 28.2767 8.62281 28.3533 8.68734 28.4178C8.75187 28.4824 8.82848 28.5335 8.91279 28.5684C8.99711 28.6034 9.08747 28.6213 9.17872 28.6213H27.5826C28.7248 28.6213 29.6667 27.6794 29.6667 26.5372V4.31449C29.6667 3.17231 28.7248 2.23314 27.5826 2.23314H24.1123V1.53868C24.1138 1.44565 24.0965 1.35329 24.0616 1.26706C24.0267 1.18083 23.9748 1.10249 23.909 1.03671C23.8432 0.970919 23.7649 0.919021 23.6786 0.884091C23.5924 0.849161 23.5001 0.831912 23.407 0.833367C23.3158 0.834702 23.2257 0.85401 23.1419 0.890186C23.0581 0.926363 22.9823 0.978699 22.9187 1.0442C22.8552 1.10971 22.8051 1.18709 22.7715 1.27194C22.7379 1.35678 22.7213 1.44742 22.7227 1.53868V2.23314H18.5553V1.53868C18.5568 1.44565 18.5395 1.35329 18.5046 1.26706C18.4696 1.18083 18.4177 1.10249 18.352 1.03671C18.2862 0.970919 18.2078 0.919021 18.1216 0.884091C18.0354 0.849161 17.943 0.831912 17.85 0.833367C17.7587 0.834702 17.6686 0.85401 17.5848 0.890186C17.5011 0.926363 17.4252 0.978699 17.3617 1.0442C17.2981 1.10971 17.2481 1.18709 17.2145 1.27194C17.1808 1.35678 17.1643 1.44742 17.1657 1.53868V2.23314H13.001V1.53868C13.0024 1.44565 12.9852 1.35329 12.9502 1.26706C12.9153 1.18083 12.8634 1.10249 12.7976 1.03671C12.7318 0.970919 12.6535 0.919021 12.5673 0.884091C12.4811 0.849161 12.3887 0.831912 12.2957 0.833367C12.2044 0.834702 12.1143 0.85401 12.0305 0.890186C11.9467 0.926363 11.8709 0.978699 11.8073 1.0442C11.7438 1.10971 11.6938 1.18709 11.6601 1.27194C11.6265 1.35678 11.6099 1.44742 11.6114 1.53868V2.23314H7.44325V1.53868C7.4447 1.44571 7.42747 1.3534 7.39259 1.26722C7.3577 1.18103 7.30586 1.10273 7.24015 1.03695C7.17443 0.971175 7.09618 0.919262 7.01003 0.884291C6.92388 0.849321 6.83158 0.832004 6.73862 0.833367ZM10.9162 13.3432C10.825 13.3432 10.7347 13.3611 10.6505 13.396C10.5662 13.4309 10.4897 13.4821 10.4252 13.5466C10.3607 13.611 10.3095 13.6876 10.2746 13.7719C10.2397 13.8561 10.2218 13.9464 10.2218 14.0376C10.2218 14.2218 10.2949 14.3984 10.4252 14.5287C10.5554 14.6589 10.732 14.7321 10.9162 14.7321C11.1004 14.7321 11.2771 14.6589 11.4073 14.5287C11.5375 14.3984 11.6107 14.2218 11.6107 14.0376C11.6107 13.9464 11.5927 13.8561 11.5578 13.7719C11.5229 13.6876 11.4718 13.611 11.4073 13.5466C11.3428 13.4821 11.2662 13.4309 11.182 13.396C11.0977 13.3611 11.0074 13.3432 10.9162 13.3432ZM15.083 13.3432C14.8988 13.3432 14.7222 13.4163 14.5919 13.5466C14.4617 13.6768 14.3885 13.8534 14.3885 14.0376C14.3885 14.2218 14.4617 14.3984 14.5919 14.5287C14.7222 14.6589 14.8988 14.7321 15.083 14.7321C15.2672 14.7321 15.4438 14.6589 15.5741 14.5287C15.7043 14.3984 15.7775 14.2218 15.7775 14.0376C15.7775 13.9464 15.7595 13.8561 15.7246 13.7719C15.6897 13.6876 15.6385 13.611 15.5741 13.5466C15.5096 13.4821 15.433 13.4309 15.3488 13.396C15.2645 13.3611 15.1742 13.3432 15.083 13.3432ZM19.2498 13.3432C19.0656 13.3432 18.8889 13.4163 18.7587 13.5466C18.6285 13.6768 18.5553 13.8534 18.5553 14.0376C18.5553 14.2218 18.6285 14.3984 18.7587 14.5287C18.8889 14.6589 19.0656 14.7321 19.2498 14.7321C19.4339 14.7321 19.6106 14.6589 19.7408 14.5287C19.8711 14.3984 19.9442 14.2218 19.9442 14.0376C19.9442 13.9464 19.9263 13.8561 19.8914 13.7719C19.8565 13.6876 19.8053 13.611 19.7408 13.5466C19.6763 13.4821 19.5998 13.4309 19.5155 13.396C19.4313 13.3611 19.341 13.3432 19.2498 13.3432ZM23.4165 13.3432C23.3253 13.3432 23.235 13.3611 23.1508 13.396C23.0665 13.4309 22.9899 13.4821 22.9255 13.5466C22.861 13.611 22.8098 13.6876 22.7749 13.7719C22.74 13.8561 22.7221 13.9464 22.7221 14.0376C22.7221 14.2218 22.7952 14.3984 22.9255 14.5287C23.0557 14.6589 23.2323 14.7321 23.4165 14.7321C23.6007 14.7321 23.7773 14.6589 23.9076 14.5287C24.0378 14.3984 24.111 14.2218 24.111 14.0376C24.111 13.9464 24.093 13.8561 24.0581 13.7719C24.0232 13.6876 23.9721 13.611 23.9076 13.5466C23.8431 13.4821 23.7665 13.4309 23.6823 13.396C23.598 13.3611 23.5077 13.3432 23.4165 13.3432ZM6.74947 17.5099C6.65827 17.5099 6.56796 17.5279 6.48371 17.5628C6.39945 17.5977 6.3229 17.6488 6.25841 17.7133C6.19392 17.7778 6.14277 17.8544 6.10787 17.9386C6.07297 18.0229 6.05501 18.1132 6.05501 18.2044C6.05501 18.3886 6.12817 18.5652 6.25841 18.6954C6.38865 18.8257 6.56528 18.8988 6.74947 18.8988C6.93365 18.8988 7.11029 18.8257 7.24052 18.6954C7.37076 18.5652 7.44393 18.3886 7.44393 18.2044C7.44393 18.1132 7.42596 18.0229 7.39106 17.9386C7.35616 17.8544 7.30501 17.7778 7.24052 17.7133C7.17604 17.6488 7.09948 17.5977 7.01523 17.5628C6.93097 17.5279 6.84066 17.5099 6.74947 17.5099ZM10.9162 17.5099C10.825 17.5099 10.7347 17.5279 10.6505 17.5628C10.5662 17.5977 10.4897 17.6488 10.4252 17.7133C10.3607 17.7778 10.3095 17.8544 10.2746 17.9386C10.2397 18.0229 10.2218 18.1132 10.2218 18.2044C10.2218 18.3886 10.2949 18.5652 10.4252 18.6954C10.5554 18.8257 10.732 18.8988 10.9162 18.8988C11.1004 18.8988 11.2771 18.8257 11.4073 18.6954C11.5375 18.5652 11.6107 18.3886 11.6107 18.2044C11.6107 18.1132 11.5927 18.0229 11.5578 17.9386C11.5229 17.8544 11.4718 17.7778 11.4073 17.7133C11.3428 17.6488 11.2662 17.5977 11.182 17.5628C11.0977 17.5279 11.0074 17.5099 10.9162 17.5099ZM15.083 17.5099C14.8988 17.5099 14.7222 17.5831 14.5919 17.7133C14.4617 17.8436 14.3885 18.0202 14.3885 18.2044C14.3885 18.3886 14.4617 18.5652 14.5919 18.6954C14.7222 18.8257 14.8988 18.8988 15.083 18.8988C15.2672 18.8988 15.4438 18.8257 15.5741 18.6954C15.7043 18.5652 15.7775 18.3886 15.7775 18.2044C15.7775 18.1132 15.7595 18.0229 15.7246 17.9386C15.6897 17.8544 15.6385 17.7778 15.5741 17.7133C15.5096 17.6488 15.433 17.5977 15.3488 17.5628C15.2645 17.5279 15.1742 17.5099 15.083 17.5099ZM19.2498 17.5099C19.0656 17.5099 18.8889 17.5831 18.7587 17.7133C18.6285 17.8436 18.5553 18.0202 18.5553 18.2044C18.5553 18.3886 18.6285 18.5652 18.7587 18.6954C18.8889 18.8257 19.0656 18.8988 19.2498 18.8988C19.4339 18.8988 19.6106 18.8257 19.7408 18.6954C19.8711 18.5652 19.9442 18.3886 19.9442 18.2044C19.9442 18.1132 19.9263 18.0229 19.8914 17.9386C19.8565 17.8544 19.8053 17.7778 19.7408 17.7133C19.6763 17.6488 19.5998 17.5977 19.5155 17.5628C19.4313 17.5279 19.341 17.5099 19.2498 17.5099ZM23.4165 17.5099C23.3253 17.5099 23.235 17.5279 23.1508 17.5628C23.0665 17.5977 22.9899 17.6488 22.9255 17.7133C22.861 17.7778 22.8098 17.8544 22.7749 17.9386C22.74 18.0229 22.7221 18.1132 22.7221 18.2044C22.7221 18.3886 22.7952 18.5652 22.9255 18.6954C23.0557 18.8257 23.2323 18.8988 23.4165 18.8988C23.6007 18.8988 23.7773 18.8257 23.9076 18.6954C24.0378 18.5652 24.111 18.3886 24.111 18.2044C24.111 18.1132 24.093 18.0229 24.0581 17.9386C24.0232 17.8544 23.9721 17.7778 23.9076 17.7133C23.8431 17.6488 23.7665 17.5977 23.6823 17.5628C23.598 17.5279 23.5077 17.5099 23.4165 17.5099ZM6.74947 21.6767C6.56528 21.6767 6.38865 21.7499 6.25841 21.8801C6.12817 22.0103 6.05501 22.187 6.05501 22.3711C6.05501 22.4623 6.07297 22.5526 6.10787 22.6369C6.14277 22.7212 6.19392 22.7977 6.25841 22.8622C6.3229 22.9267 6.39945 22.9778 6.48371 23.0127C6.56796 23.0476 6.65827 23.0656 6.74947 23.0656C6.84066 23.0656 6.93097 23.0476 7.01523 23.0127C7.09948 22.9778 7.17604 22.9267 7.24052 22.8622C7.30501 22.7977 7.35616 22.7212 7.39106 22.6369C7.42596 22.5526 7.44393 22.4623 7.44393 22.3711C7.44393 22.187 7.37076 22.0103 7.24052 21.8801C7.11029 21.7499 6.93365 21.6767 6.74947 21.6767ZM10.9162 21.6767C10.732 21.6767 10.5554 21.7499 10.4252 21.8801C10.2949 22.0103 10.2218 22.187 10.2218 22.3711C10.2218 22.4623 10.2397 22.5526 10.2746 22.6369C10.3095 22.7212 10.3607 22.7977 10.4252 22.8622C10.4897 22.9267 10.5662 22.9778 10.6505 23.0127C10.7347 23.0476 10.825 23.0656 10.9162 23.0656C11.0074 23.0656 11.0977 23.0476 11.182 23.0127C11.2662 22.9778 11.3428 22.9267 11.4073 22.8622C11.4718 22.7977 11.5229 22.7212 11.5578 22.6369C11.5927 22.5526 11.6107 22.4623 11.6107 22.3711C11.6107 22.187 11.5375 22.0103 11.4073 21.8801C11.2771 21.7499 11.1004 21.6767 10.9162 21.6767ZM15.083 21.6767C14.8988 21.6767 14.7222 21.7499 14.5919 21.8801C14.4617 22.0103 14.3885 22.187 14.3885 22.3711C14.3885 22.5553 14.4617 22.732 14.5919 22.8622C14.7222 22.9924 14.8988 23.0656 15.083 23.0656C15.1742 23.0656 15.2645 23.0476 15.3488 23.0127C15.433 22.9778 15.5096 22.9267 15.5741 22.8622C15.6385 22.7977 15.6897 22.7212 15.7246 22.6369C15.7595 22.5526 15.7775 22.4623 15.7775 22.3711C15.7775 22.187 15.7043 22.0103 15.5741 21.8801C15.4438 21.7499 15.2672 21.6767 15.083 21.6767ZM19.2498 21.6767C19.0656 21.6767 18.8889 21.7499 18.7587 21.8801C18.6285 22.0103 18.5553 22.187 18.5553 22.3711C18.5553 22.5553 18.6285 22.732 18.7587 22.8622C18.8889 22.9924 19.0656 23.0656 19.2498 23.0656C19.341 23.0656 19.4313 23.0476 19.5155 23.0127C19.5998 22.9778 19.6763 22.9267 19.7408 22.8622C19.8053 22.7977 19.8565 22.7212 19.8914 22.6369C19.9263 22.5526 19.9442 22.4623 19.9442 22.3711C19.9442 22.187 19.8711 22.0103 19.7408 21.8801C19.6106 21.7499 19.4339 21.6767 19.2498 21.6767ZM6.74947 27.2324C6.65827 27.2324 6.56796 27.2503 6.48371 27.2852C6.39945 27.3201 6.3229 27.3713 6.25841 27.4358C6.19392 27.5003 6.14277 27.5768 6.10787 27.6611C6.07297 27.7453 6.05501 27.8356 6.05501 27.9268C6.05501 28.111 6.12817 28.2877 6.25841 28.4179C6.38865 28.5481 6.56528 28.6213 6.74947 28.6213C6.93365 28.6213 7.11029 28.5481 7.24052 28.4179C7.37076 28.2877 7.44393 28.111 7.44393 27.9268C7.44393 27.8356 7.42596 27.7453 7.39106 27.6611C7.35616 27.5768 7.30501 27.5003 7.24052 27.4358C7.17604 27.3713 7.09948 27.3201 7.01523 27.2852C6.93097 27.2503 6.84066 27.2324 6.74947 27.2324Z" fill="black"/>
</svg>
