<svg width="35" height="26" viewBox="0 0 35 26" fill="none" xmlns="http://www.w3.org/2000/svg">
<path d="M1.75 25.1667H33.25C34.2165 25.1667 35 24.3832 35 23.4167V22.8334C35 21.8669 34.2165 21.0834 33.25 21.0834H29.0144C29.4259 20.5862 29.6773 19.9761 29.7354 19.3334H30.3263C32.0473 19.3334 33.6287 18.3863 34.4408 16.8689C35.253 15.3516 35.1641 13.5105 34.2096 12.0785L27.9872 2.74512C27.1229 1.44527 25.6649 0.664887 24.1039 0.666705H1.75C0.783502 0.666705 0 1.45021 0 2.41671V18.75C0 19.0722 0.261167 19.3334 0.583333 19.3334H15.7646C15.8227 19.9761 16.0741 20.5862 16.4856 21.0834H1.75C0.783502 21.0834 0 21.8669 0 22.8334V23.4167C0 24.3832 0.783502 25.1667 1.75 25.1667ZM26.5417 21.0834C25.5295 21.0805 24.6728 20.3353 24.5297 19.3334H28.5547C28.4116 20.3358 27.5542 21.0811 26.5417 21.0834ZM23.3479 19.3334C23.4061 19.9761 23.6574 20.5862 24.0689 21.0834H21.4311C21.8426 20.5862 22.0939 19.9761 22.1521 19.3334H23.3479ZM31.4218 10H23.3333C23.0112 10 22.75 9.73887 22.75 9.41671V5.33337C22.75 5.01121 23.0112 4.75004 23.3333 4.75004H27.9218L31.4218 10ZM1.16667 14.0834H2.91667V14.6667C2.91667 15.6332 3.70017 16.4167 4.66667 16.4167H8.75C9.7165 16.4167 10.5 15.6332 10.5 14.6667V14.0834H23.9167C24.2388 14.0834 24.5 13.8222 24.5 13.5C24.5 13.1779 24.2388 12.9167 23.9167 12.9167H10.5V5.33337C10.5 4.36687 9.7165 3.58337 8.75 3.58337H4.66667C3.70017 3.58337 2.91667 4.36687 2.91667 5.33337V12.9167H1.16667V2.41671C1.16667 2.09454 1.42783 1.83337 1.75 1.83337H24.1039C25.2745 1.8321 26.3678 2.41731 27.0159 3.39204L27.1437 3.58337H23.3333C22.3668 3.58337 21.5833 4.36687 21.5833 5.33337V9.41671C21.5833 10.3832 22.3668 11.1667 23.3333 11.1667H32.2L33.2389 12.7254C33.2809 12.7872 33.3118 12.8531 33.3492 12.9167H26.8333C26.5112 12.9167 26.25 13.1779 26.25 13.5C26.25 13.8222 26.5112 14.0834 26.8333 14.0834H33.782C33.9509 15.0995 33.6646 16.1385 32.9992 16.9248C32.3338 17.7111 31.3564 18.1652 30.3263 18.1667H1.16667V14.0834ZM9.33333 14.6667C9.33333 14.9889 9.07217 15.25 8.75 15.25H4.66667C4.3445 15.25 4.08333 14.9889 4.08333 14.6667V5.33337C4.08333 5.01121 4.3445 4.75004 4.66667 4.75004H8.75C9.07217 4.75004 9.33333 5.01121 9.33333 5.33337V14.6667ZM16.9464 19.3334H20.9714C20.8321 20.3381 19.9732 21.0861 18.9589 21.0861C17.9446 21.0861 17.0857 20.3381 16.9464 19.3334ZM1.16667 22.8334C1.16667 22.5112 1.42783 22.25 1.75 22.25H33.25C33.5722 22.25 33.8333 22.5112 33.8333 22.8334V23.4167C33.8333 23.7389 33.5722 24 33.25 24H1.75C1.42783 24 1.16667 23.7389 1.16667 23.4167V22.8334Z" fill="black"/>
<path d="M18.0833 3.5834H14C13.0335 3.5834 12.25 4.36691 12.25 5.3334V9.41674C12.25 10.3832 13.0335 11.1667 14 11.1667H18.0833C19.0498 11.1667 19.8333 10.3832 19.8333 9.41674V5.3334C19.8333 4.36691 19.0498 3.5834 18.0833 3.5834ZM18.6667 9.41674C18.6667 9.7389 18.4055 10.0001 18.0833 10.0001H14C13.6778 10.0001 13.4167 9.7389 13.4167 9.41674V5.3334C13.4167 5.01124 13.6778 4.75007 14 4.75007H18.0833C18.4055 4.75007 18.6667 5.01124 18.6667 5.3334V9.41674Z" fill="black"/>
<path d="M7.58333 5.91675H5.83333C5.51117 5.91675 5.25 6.17792 5.25 6.50008C5.25 6.82225 5.51117 7.08341 5.83333 7.08341H7.58333C7.9055 7.08341 8.16667 6.82225 8.16667 6.50008C8.16667 6.17792 7.9055 5.91675 7.58333 5.91675Z" fill="black"/>
<path d="M7.58333 8.25008H5.83333C5.51117 8.25008 5.25 8.51124 5.25 8.83341C5.25 9.15558 5.51117 9.41674 5.83333 9.41674H7.58333C7.9055 9.41674 8.16667 9.15558 8.16667 8.83341C8.16667 8.51124 7.9055 8.25008 7.58333 8.25008Z" fill="black"/>
</svg>
