<svg width="388" height="131" viewBox="0 0 388 131" fill="none" xmlns="http://www.w3.org/2000/svg">
<rect width="388" height="131" rx="10" fill="white"/>
<circle cx="35.5" cy="33.5" r="21.5" fill="#FF634F"/>
<path d="M40.9092 33.9987C41.0539 33.9987 41.1926 33.9412 41.2949 33.839C41.3972 33.7367 41.4547 33.5979 41.4547 33.4533V32.3623C41.4547 32.2177 41.3972 32.0789 41.2949 31.9767C41.1926 31.8744 41.0539 31.8169 40.9092 31.8169C40.7646 31.8169 40.6258 31.8744 40.5235 31.9767C40.4212 32.0789 40.3638 32.2177 40.3638 32.3623V33.4533C40.3638 33.5979 40.4212 33.7367 40.5235 33.839C40.6258 33.9412 40.7646 33.9987 40.9092 33.9987Z" fill="white"/>
<path d="M40.9092 37.2714C41.0539 37.2714 41.1926 37.214 41.2949 37.1117C41.3972 37.0094 41.4547 36.8706 41.4547 36.726V35.6351C41.4547 35.4904 41.3972 35.3517 41.2949 35.2494C41.1926 35.1471 41.0539 35.0896 40.9092 35.0896C40.7646 35.0896 40.6258 35.1471 40.5235 35.2494C40.4212 35.3517 40.3638 35.4904 40.3638 35.6351V36.726C40.3638 36.8706 40.4212 37.0094 40.5235 37.1117C40.6258 37.214 40.7646 37.2714 40.9092 37.2714Z" fill="white"/>
<path d="M40.9092 40.5441C41.0539 40.5441 41.1926 40.4867 41.2949 40.3844C41.3972 40.2821 41.4547 40.1433 41.4547 39.9987V38.9078C41.4547 38.7631 41.3972 38.6244 41.2949 38.5221C41.1926 38.4198 41.0539 38.3623 40.9092 38.3623C40.7646 38.3623 40.6258 38.4198 40.5235 38.5221C40.4212 38.6244 40.3638 38.7631 40.3638 38.9078V39.9987C40.3638 40.1433 40.4212 40.2821 40.5235 40.3844C40.6258 40.4867 40.7646 40.5441 40.9092 40.5441Z" fill="white"/>
<path d="M47.4545 29.635H47.0945L28.6636 22.0423C28.5974 22.0146 28.5263 22.0002 28.4545 22C28.3827 21.9998 28.3116 22.0138 28.2452 22.0412C28.1788 22.0685 28.1185 22.1087 28.0677 22.1595C28.0169 22.2102 27.9766 22.2705 27.9491 22.3368L26.4982 25.8659C26.4685 25.932 26.4532 26.0035 26.4532 26.0759C26.4532 26.1483 26.4685 26.2199 26.4982 26.2859C26.5535 26.4192 26.6594 26.5251 26.7927 26.5805L27.8182 26.995C28.017 27.0769 28.1978 27.1972 28.3501 27.349C28.5025 27.5009 28.6234 27.6812 28.706 27.8798C28.7885 28.0784 28.8312 28.2913 28.8314 28.5064C28.8316 28.7214 28.7894 28.9344 28.7073 29.1332C28.6243 29.32 28.5079 29.4901 28.3636 29.635H24.5455C24.4008 29.635 24.2621 29.6925 24.1598 29.7948C24.0575 29.8971 24 30.0358 24 30.1805V33.9986C24 34.1433 24.0575 34.282 24.1598 34.3843C24.2621 34.4866 24.4008 34.5441 24.5455 34.5441H25.6364C26.0704 34.5441 26.4866 34.7165 26.7934 35.0234C27.1003 35.3303 27.2727 35.7465 27.2727 36.1805C27.2727 36.6145 27.1003 37.0307 26.7934 37.3375C26.4866 37.6444 26.0704 37.8168 25.6364 37.8168H24.5455C24.4008 37.8168 24.2621 37.8743 24.1598 37.9766C24.0575 38.0789 24 38.2176 24 38.3623V42.1805C24 42.3251 24.0575 42.4639 24.1598 42.5662C24.2621 42.6685 24.4008 42.7259 24.5455 42.7259H47.4545C47.5992 42.7259 47.7379 42.6685 47.8402 42.5662C47.9425 42.4639 48 42.3251 48 42.1805V38.3623C48 38.2176 47.9425 38.0789 47.8402 37.9766C47.7379 37.8743 47.5992 37.8168 47.4545 37.8168H46.3636C45.9296 37.8168 45.5134 37.6444 45.2066 37.3375C44.8997 37.0307 44.7273 36.6145 44.7273 36.1805C44.7273 35.7465 44.8997 35.3303 45.2066 35.0234C45.5134 34.7165 45.9296 34.5441 46.3636 34.5441H47.4545C47.5992 34.5441 47.7379 34.4866 47.8402 34.3843C47.9425 34.282 48 34.1433 48 33.9986V30.1805C48 30.0358 47.9425 29.8971 47.8402 29.7948C47.7379 29.6925 47.5992 29.635 47.4545 29.635ZM28.2164 25.9859L27.7145 25.7786L28.7509 23.2586L44.2309 29.635H29.6564C29.6564 29.6023 29.6891 29.575 29.7 29.5477C29.8366 29.2165 29.9066 28.8615 29.9059 28.5032C29.9053 28.1449 29.8341 27.7902 29.6963 27.4594C29.5585 27.1286 29.3569 26.8282 29.1029 26.5754C28.849 26.3226 28.5477 26.1223 28.2164 25.9859V25.9859ZM46.9091 33.4532H46.3636C45.6403 33.4532 44.9466 33.7405 44.4352 34.252C43.9237 34.7635 43.6364 35.4571 43.6364 36.1805C43.6364 36.9038 43.9237 37.5975 44.4352 38.1089C44.9466 38.6204 45.6403 38.9077 46.3636 38.9077H46.9091V41.635H25.0909V38.9077H25.6364C26.3597 38.9077 27.0534 38.6204 27.5648 38.1089C28.0763 37.5975 28.3636 36.9038 28.3636 36.1805C28.3636 35.4571 28.0763 34.7635 27.5648 34.252C27.0534 33.7405 26.3597 33.4532 25.6364 33.4532H25.0909V30.7259H46.9091V33.4532Z" fill="white"/>
<path d="M31.0909 33.9986H37.6363C37.781 33.9986 37.9197 33.9412 38.022 33.8389C38.1243 33.7366 38.1818 33.5978 38.1818 33.4532C38.1818 33.3085 38.1243 33.1698 38.022 33.0675C37.9197 32.9652 37.781 32.9077 37.6363 32.9077H31.0909C30.9462 32.9077 30.8075 32.9652 30.7052 33.0675C30.6029 33.1698 30.5454 33.3085 30.5454 33.4532C30.5454 33.5978 30.6029 33.7366 30.7052 33.8389C30.8075 33.9412 30.9462 33.9986 31.0909 33.9986V33.9986Z" fill="white"/>
<path d="M31.0909 39.4532H37.6363C37.781 39.4532 37.9197 39.3957 38.022 39.2935C38.1243 39.1912 38.1818 39.0524 38.1818 38.9078C38.1818 38.7631 38.1243 38.6244 38.022 38.5221C37.9197 38.4198 37.781 38.3623 37.6363 38.3623H31.0909C30.9462 38.3623 30.8075 38.4198 30.7052 38.5221C30.6029 38.6244 30.5454 38.7631 30.5454 38.9078C30.5454 39.0524 30.6029 39.1912 30.7052 39.2935C30.8075 39.3957 30.9462 39.4532 31.0909 39.4532V39.4532Z" fill="white"/>
<path d="M31.0909 36.7259H37.6363C37.781 36.7259 37.9197 36.6685 38.022 36.5662C38.1243 36.4639 38.1818 36.3251 38.1818 36.1805C38.1818 36.0358 38.1243 35.8971 38.022 35.7948C37.9197 35.6925 37.781 35.635 37.6363 35.635H31.0909C30.9462 35.635 30.8075 35.6925 30.7052 35.7948C30.6029 35.8971 30.5454 36.0358 30.5454 36.1805C30.5454 36.3251 30.6029 36.4639 30.7052 36.5662C30.8075 36.6685 30.9462 36.7259 31.0909 36.7259V36.7259Z" fill="white"/>
<rect x="286" y="12" width="83" height="16.6" rx="8.3" fill="#FFE1DD"/>
<path d="M298.635 22.019C298.635 21.9279 298.615 21.8436 298.574 21.7661C298.535 21.6864 298.454 21.6146 298.331 21.5508C298.21 21.4847 298.028 21.4277 297.784 21.3799C297.579 21.3366 297.393 21.2853 297.227 21.2261C297.063 21.1668 296.923 21.0951 296.807 21.0107C296.693 20.9264 296.605 20.8273 296.543 20.7134C296.482 20.5994 296.451 20.4661 296.451 20.3135C296.451 20.1676 296.483 20.0298 296.547 19.8999C296.613 19.77 296.705 19.6549 296.824 19.5547C296.944 19.4544 297.089 19.3758 297.258 19.3188C297.426 19.2619 297.614 19.2334 297.822 19.2334C298.118 19.2334 298.371 19.2858 298.581 19.3906C298.79 19.4954 298.951 19.6356 299.062 19.811C299.174 19.9842 299.23 20.1768 299.23 20.3887H298.598C298.598 20.2861 298.567 20.187 298.505 20.0913C298.446 19.9933 298.358 19.9124 298.242 19.8486C298.128 19.7848 297.988 19.7529 297.822 19.7529C297.646 19.7529 297.504 19.7803 297.395 19.835C297.287 19.8874 297.209 19.9546 297.159 20.0366C297.111 20.1187 297.087 20.2052 297.087 20.2964C297.087 20.3647 297.098 20.4263 297.121 20.481C297.146 20.5334 297.189 20.5824 297.251 20.6279C297.312 20.6712 297.399 20.7122 297.511 20.751C297.622 20.7897 297.765 20.8285 297.938 20.8672C298.241 20.9355 298.491 21.0176 298.687 21.1133C298.882 21.209 299.028 21.3263 299.124 21.4653C299.22 21.6043 299.268 21.7729 299.268 21.9712C299.268 22.133 299.233 22.2811 299.165 22.4155C299.099 22.55 299.002 22.6662 298.875 22.7642C298.749 22.8599 298.599 22.9351 298.423 22.9897C298.25 23.0422 298.055 23.0684 297.839 23.0684C297.513 23.0684 297.237 23.0103 297.012 22.894C296.786 22.7778 296.615 22.6274 296.499 22.4429C296.383 22.2583 296.325 22.0635 296.325 21.8584H296.96C296.97 22.0316 297.02 22.1694 297.111 22.272C297.202 22.3722 297.314 22.444 297.446 22.4873C297.578 22.5283 297.709 22.5488 297.839 22.5488C298.012 22.5488 298.157 22.526 298.273 22.4805C298.391 22.4349 298.481 22.3722 298.543 22.2925C298.604 22.2127 298.635 22.1216 298.635 22.019ZM302.361 22.1455V19.3018H302.997V23H302.392L302.361 22.1455ZM302.48 21.3662L302.744 21.3594C302.744 21.6055 302.717 21.8333 302.665 22.043C302.615 22.2503 302.533 22.4303 302.419 22.583C302.305 22.7357 302.156 22.8553 301.971 22.9419C301.787 23.0262 301.562 23.0684 301.298 23.0684C301.118 23.0684 300.953 23.0422 300.802 22.9897C300.654 22.9373 300.527 22.8564 300.419 22.7471C300.312 22.6377 300.229 22.4953 300.17 22.3198C300.113 22.1444 300.084 21.9336 300.084 21.6875V19.3018H300.717V21.6943C300.717 21.8607 300.735 21.9985 300.771 22.1079C300.81 22.215 300.861 22.3005 300.925 22.3643C300.991 22.4258 301.064 22.4691 301.144 22.4941C301.226 22.5192 301.31 22.5317 301.397 22.5317C301.666 22.5317 301.879 22.4805 302.036 22.3779C302.193 22.2731 302.306 22.133 302.375 21.9575C302.445 21.7798 302.48 21.5827 302.48 21.3662ZM304.593 20.0913V23H303.96V19.3018H304.559L304.593 20.0913ZM304.442 21.0107L304.179 21.0005C304.181 20.7476 304.219 20.514 304.292 20.2998C304.365 20.0833 304.467 19.8953 304.6 19.7358C304.732 19.5763 304.889 19.4533 305.071 19.3667C305.256 19.2778 305.46 19.2334 305.683 19.2334C305.865 19.2334 306.029 19.2585 306.175 19.3086C306.321 19.3564 306.445 19.4339 306.548 19.541C306.653 19.6481 306.732 19.7871 306.787 19.958C306.842 20.1266 306.869 20.3328 306.869 20.5767V23H306.233V20.5698C306.233 20.3761 306.205 20.2212 306.148 20.105C306.091 19.9865 306.008 19.901 305.898 19.8486C305.789 19.7939 305.655 19.7666 305.495 19.7666C305.338 19.7666 305.194 19.7996 305.064 19.8657C304.937 19.9318 304.826 20.0229 304.733 20.1392C304.642 20.2554 304.57 20.3887 304.518 20.5391C304.467 20.6872 304.442 20.8444 304.442 21.0107ZM310.161 22.2822V17.75H310.796V23H310.215L310.161 22.2822ZM307.672 21.1919V21.1201C307.672 20.8376 307.707 20.5812 307.775 20.3511C307.846 20.1187 307.945 19.9193 308.072 19.7529C308.202 19.5866 308.356 19.459 308.534 19.3701C308.714 19.279 308.914 19.2334 309.135 19.2334C309.368 19.2334 309.57 19.2744 309.744 19.3564C309.919 19.4362 310.067 19.5535 310.188 19.7085C310.311 19.8612 310.408 20.0457 310.479 20.2622C310.549 20.4787 310.598 20.7236 310.625 20.9971V21.3115C310.6 21.5827 310.551 21.8265 310.479 22.043C310.408 22.2594 310.311 22.444 310.188 22.5967C310.067 22.7493 309.919 22.8667 309.744 22.9487C309.568 23.0285 309.363 23.0684 309.128 23.0684C308.912 23.0684 308.714 23.0216 308.534 22.9282C308.356 22.8348 308.202 22.7038 308.072 22.5352C307.945 22.3665 307.846 22.1683 307.775 21.9404C307.707 21.7103 307.672 21.4608 307.672 21.1919ZM308.308 21.1201V21.1919C308.308 21.3765 308.326 21.5496 308.363 21.7114C308.402 21.8732 308.461 22.0156 308.541 22.1387C308.62 22.2617 308.722 22.3586 308.845 22.4292C308.968 22.4976 309.115 22.5317 309.286 22.5317C309.495 22.5317 309.667 22.4873 309.802 22.3984C309.938 22.3096 310.048 22.1922 310.13 22.0464C310.212 21.9006 310.276 21.7422 310.321 21.5713V20.7476C310.294 20.6222 310.254 20.5015 310.202 20.3853C310.152 20.2668 310.085 20.1619 310.003 20.0708C309.924 19.9774 309.825 19.9033 309.706 19.8486C309.59 19.7939 309.452 19.7666 309.292 19.7666C309.119 19.7666 308.97 19.8031 308.845 19.876C308.722 19.9466 308.62 20.0446 308.541 20.1699C308.461 20.293 308.402 20.4365 308.363 20.6006C308.326 20.7624 308.308 20.9355 308.308 21.1201ZM313.961 22.3677V20.4639C313.961 20.318 313.932 20.1916 313.873 20.0845C313.816 19.9751 313.729 19.8908 313.613 19.8315C313.497 19.7723 313.353 19.7427 313.182 19.7427C313.023 19.7427 312.882 19.77 312.762 19.8247C312.643 19.8794 312.55 19.9512 312.481 20.04C312.415 20.1289 312.382 20.2246 312.382 20.3271H311.75C311.75 20.195 311.784 20.064 311.853 19.9341C311.921 19.8042 312.019 19.6868 312.146 19.582C312.276 19.4749 312.431 19.3906 312.611 19.3291C312.794 19.2653 312.996 19.2334 313.22 19.2334C313.489 19.2334 313.726 19.279 313.931 19.3701C314.138 19.4613 314.3 19.5991 314.416 19.7837C314.535 19.966 314.594 20.195 314.594 20.4707V22.1934C314.594 22.3164 314.604 22.4474 314.625 22.5864C314.647 22.7254 314.68 22.8451 314.724 22.9453V23H314.064C314.032 22.9271 314.007 22.8302 313.989 22.7095C313.971 22.5864 313.961 22.4725 313.961 22.3677ZM314.071 20.7578L314.078 21.2021H313.438C313.258 21.2021 313.098 21.217 312.957 21.2466C312.815 21.2739 312.697 21.3161 312.601 21.373C312.505 21.43 312.432 21.5018 312.382 21.5884C312.332 21.6727 312.307 21.7718 312.307 21.8857C312.307 22.002 312.333 22.1079 312.386 22.2036C312.438 22.2993 312.517 22.3757 312.622 22.4326C312.729 22.4873 312.86 22.5146 313.015 22.5146C313.208 22.5146 313.379 22.4736 313.527 22.3916C313.675 22.3096 313.793 22.2093 313.879 22.0908C313.968 21.9723 314.016 21.8573 314.023 21.7456L314.293 22.0498C314.277 22.1455 314.234 22.2515 314.163 22.3677C314.092 22.4839 313.998 22.5955 313.879 22.7026C313.763 22.8075 313.624 22.8952 313.462 22.9658C313.303 23.0342 313.123 23.0684 312.922 23.0684C312.672 23.0684 312.452 23.0194 312.263 22.9214C312.076 22.8234 311.93 22.6924 311.825 22.5283C311.723 22.362 311.671 22.1763 311.671 21.9712C311.671 21.7729 311.71 21.5986 311.788 21.4482C311.865 21.2956 311.977 21.1691 312.123 21.0688C312.268 20.9663 312.444 20.8888 312.649 20.8364C312.854 20.784 313.083 20.7578 313.336 20.7578H314.071ZM316.573 22.6172L317.602 19.3018H318.278L316.795 23.5708C316.761 23.6619 316.715 23.7599 316.658 23.8647C316.604 23.9718 316.533 24.0732 316.446 24.1689C316.36 24.2646 316.255 24.3421 316.132 24.4014C316.011 24.4629 315.866 24.4937 315.698 24.4937C315.648 24.4937 315.584 24.4868 315.506 24.4731C315.429 24.4595 315.374 24.4481 315.342 24.439L315.339 23.9263C315.357 23.9285 315.386 23.9308 315.424 23.9331C315.465 23.9377 315.494 23.9399 315.51 23.9399C315.653 23.9399 315.775 23.9206 315.875 23.8818C315.976 23.8454 316.06 23.7827 316.128 23.6938C316.199 23.6073 316.259 23.4876 316.31 23.335L316.573 22.6172ZM315.817 19.3018L316.778 22.1729L316.942 22.8394L316.487 23.0718L315.127 19.3018H315.817ZM319.054 22.248V22.7573C319.054 22.9647 319.002 23.1834 318.897 23.4136C318.792 23.646 318.645 23.8397 318.456 23.9946L318.097 23.7451C318.17 23.6449 318.232 23.5423 318.282 23.4375C318.332 23.335 318.369 23.2279 318.395 23.1162C318.422 23.0068 318.436 22.8906 318.436 22.7676V22.248H319.054ZM324.79 22.4805V23H321.532V22.5454L323.163 20.7305C323.363 20.5072 323.518 20.318 323.627 20.1631C323.739 20.0059 323.817 19.8657 323.86 19.7427C323.905 19.6174 323.928 19.4897 323.928 19.3599C323.928 19.1958 323.894 19.0477 323.826 18.9155C323.76 18.7811 323.662 18.674 323.532 18.5942C323.402 18.5145 323.245 18.4746 323.06 18.4746C322.839 18.4746 322.654 18.5179 322.506 18.6045C322.361 18.6888 322.251 18.8073 322.178 18.96C322.105 19.1126 322.069 19.2881 322.069 19.4863H321.437C321.437 19.2061 321.498 18.9497 321.621 18.7173C321.744 18.4849 321.926 18.3003 322.168 18.1636C322.41 18.0246 322.707 17.9551 323.06 17.9551C323.375 17.9551 323.643 18.0109 323.867 18.1226C324.09 18.2319 324.261 18.3869 324.379 18.5874C324.5 18.7856 324.561 19.0181 324.561 19.2847C324.561 19.4305 324.535 19.5786 324.485 19.729C324.438 19.8771 324.37 20.0252 324.284 20.1733C324.199 20.3215 324.1 20.4673 323.986 20.6108C323.875 20.7544 323.755 20.8957 323.627 21.0347L322.294 22.4805H324.79ZM326.389 20.2007H326.84C327.061 20.2007 327.244 20.1642 327.387 20.0913C327.533 20.0161 327.641 19.9147 327.712 19.7871C327.785 19.6572 327.821 19.5114 327.821 19.3496C327.821 19.1582 327.789 18.9976 327.726 18.8677C327.662 18.7378 327.566 18.6398 327.438 18.5737C327.311 18.5076 327.149 18.4746 326.953 18.4746C326.775 18.4746 326.618 18.5099 326.481 18.5806C326.347 18.6489 326.241 18.7469 326.164 18.8745C326.088 19.0021 326.051 19.1525 326.051 19.3257H325.418C325.418 19.0728 325.482 18.8426 325.61 18.6353C325.737 18.4279 325.916 18.2627 326.146 18.1396C326.379 18.0166 326.648 17.9551 326.953 17.9551C327.254 17.9551 327.517 18.0086 327.743 18.1157C327.968 18.2205 328.144 18.3778 328.269 18.5874C328.394 18.7948 328.457 19.0534 328.457 19.3633C328.457 19.4886 328.427 19.623 328.368 19.7666C328.311 19.9079 328.221 20.04 328.098 20.1631C327.977 20.2861 327.82 20.3875 327.626 20.4673C327.433 20.5448 327.2 20.5835 326.929 20.5835H326.389V20.2007ZM326.389 20.7202V20.3408H326.929C327.246 20.3408 327.508 20.3784 327.715 20.4536C327.923 20.5288 328.086 20.6291 328.204 20.7544C328.325 20.8797 328.409 21.0176 328.457 21.168C328.507 21.3161 328.532 21.4642 328.532 21.6123C328.532 21.8447 328.492 22.0509 328.413 22.231C328.335 22.411 328.225 22.5636 328.081 22.689C327.94 22.8143 327.773 22.9089 327.582 22.9727C327.391 23.0365 327.182 23.0684 326.957 23.0684C326.74 23.0684 326.536 23.0376 326.345 22.9761C326.156 22.9146 325.988 22.8257 325.842 22.7095C325.696 22.591 325.583 22.4463 325.5 22.2754C325.418 22.1022 325.377 21.9051 325.377 21.6841H326.01C326.01 21.8573 326.047 22.0088 326.123 22.1387C326.2 22.2686 326.309 22.37 326.451 22.4429C326.594 22.5135 326.763 22.5488 326.957 22.5488C327.15 22.5488 327.317 22.5158 327.456 22.4497C327.597 22.3813 327.705 22.2788 327.78 22.1421C327.858 22.0054 327.896 21.8333 327.896 21.626C327.896 21.4186 327.853 21.2489 327.767 21.1167C327.68 20.9823 327.557 20.8831 327.397 20.8193C327.24 20.7533 327.055 20.7202 326.84 20.7202H326.389ZM331.226 19.3018H331.861V23.4409C331.861 23.6665 331.825 23.8579 331.752 24.0151C331.681 24.1724 331.574 24.2909 331.431 24.3706C331.289 24.4526 331.111 24.4937 330.894 24.4937C330.837 24.4937 330.771 24.488 330.696 24.4766C330.618 24.4652 330.553 24.4515 330.501 24.4355L330.504 23.9263C330.548 23.9354 330.597 23.9422 330.651 23.9468C330.706 23.9536 330.754 23.957 330.795 23.957C330.888 23.957 330.967 23.9399 331.031 23.9058C331.095 23.8716 331.142 23.8169 331.174 23.7417C331.208 23.6665 331.226 23.5662 331.226 23.4409V19.3018ZM331.161 18.3208C331.161 18.2183 331.193 18.1317 331.256 18.061C331.32 17.9904 331.412 17.9551 331.533 17.9551C331.656 17.9551 331.75 17.9904 331.813 18.061C331.877 18.1317 331.909 18.2183 331.909 18.3208C331.909 18.4188 331.877 18.5031 331.813 18.5737C331.75 18.6421 331.656 18.6763 331.533 18.6763C331.412 18.6763 331.32 18.6421 331.256 18.5737C331.193 18.5031 331.161 18.4188 331.161 18.3208ZM335.146 22.1455V19.3018H335.782V23H335.177L335.146 22.1455ZM335.266 21.3662L335.529 21.3594C335.529 21.6055 335.503 21.8333 335.45 22.043C335.4 22.2503 335.318 22.4303 335.204 22.583C335.09 22.7357 334.941 22.8553 334.756 22.9419C334.572 23.0262 334.347 23.0684 334.083 23.0684C333.903 23.0684 333.738 23.0422 333.587 22.9897C333.439 22.9373 333.312 22.8564 333.205 22.7471C333.097 22.6377 333.014 22.4953 332.955 22.3198C332.898 22.1444 332.87 21.9336 332.87 21.6875V19.3018H333.502V21.6943C333.502 21.8607 333.52 21.9985 333.557 22.1079C333.595 22.215 333.647 22.3005 333.71 22.3643C333.777 22.4258 333.849 22.4691 333.929 22.4941C334.011 22.5192 334.096 22.5317 334.182 22.5317C334.451 22.5317 334.664 22.4805 334.821 22.3779C334.979 22.2731 335.091 22.133 335.16 21.9575C335.23 21.7798 335.266 21.5827 335.266 21.3662ZM337.378 20.0913V23H336.746V19.3018H337.344L337.378 20.0913ZM337.228 21.0107L336.964 21.0005C336.967 20.7476 337.004 20.514 337.077 20.2998C337.15 20.0833 337.253 19.8953 337.385 19.7358C337.517 19.5763 337.674 19.4533 337.856 19.3667C338.041 19.2778 338.245 19.2334 338.468 19.2334C338.651 19.2334 338.815 19.2585 338.96 19.3086C339.106 19.3564 339.23 19.4339 339.333 19.541C339.438 19.6481 339.518 19.7871 339.572 19.958C339.627 20.1266 339.654 20.3328 339.654 20.5767V23H339.019V20.5698C339.019 20.3761 338.99 20.2212 338.933 20.105C338.876 19.9865 338.793 19.901 338.684 19.8486C338.574 19.7939 338.44 19.7666 338.28 19.7666C338.123 19.7666 337.979 19.7996 337.85 19.8657C337.722 19.9318 337.611 20.0229 337.518 20.1392C337.427 20.2554 337.355 20.3887 337.303 20.5391C337.253 20.6872 337.228 20.8444 337.228 21.0107ZM341.189 22.248V22.7573C341.189 22.9647 341.137 23.1834 341.032 23.4136C340.927 23.646 340.78 23.8397 340.591 23.9946L340.232 23.7451C340.305 23.6449 340.366 23.5423 340.417 23.4375C340.467 23.335 340.504 23.2279 340.529 23.1162C340.557 23.0068 340.57 22.8906 340.57 22.7676V22.248H341.189ZM346.924 22.4805V23H343.667V22.5454L345.297 20.7305C345.498 20.5072 345.653 20.318 345.762 20.1631C345.874 20.0059 345.951 19.8657 345.995 19.7427C346.04 19.6174 346.063 19.4897 346.063 19.3599C346.063 19.1958 346.029 19.0477 345.96 18.9155C345.894 18.7811 345.796 18.674 345.667 18.5942C345.537 18.5145 345.379 18.4746 345.195 18.4746C344.974 18.4746 344.789 18.5179 344.641 18.6045C344.495 18.6888 344.386 18.8073 344.313 18.96C344.24 19.1126 344.204 19.2881 344.204 19.4863H343.571C343.571 19.2061 343.633 18.9497 343.756 18.7173C343.879 18.4849 344.061 18.3003 344.303 18.1636C344.544 18.0246 344.842 17.9551 345.195 17.9551C345.509 17.9551 345.778 18.0109 346.001 18.1226C346.225 18.2319 346.396 18.3869 346.514 18.5874C346.635 18.7856 346.695 19.0181 346.695 19.2847C346.695 19.4305 346.67 19.5786 346.62 19.729C346.572 19.8771 346.505 20.0252 346.418 20.1733C346.334 20.3215 346.235 20.4673 346.121 20.6108C346.009 20.7544 345.89 20.8957 345.762 21.0347L344.429 22.4805H346.924ZM350.725 20.1152V20.874C350.725 21.2819 350.689 21.626 350.616 21.9062C350.543 22.1865 350.438 22.4121 350.301 22.583C350.165 22.7539 349.999 22.8781 349.806 22.9556C349.614 23.0308 349.398 23.0684 349.156 23.0684C348.965 23.0684 348.788 23.0444 348.626 22.9966C348.465 22.9487 348.319 22.8724 348.189 22.7676C348.061 22.6605 347.952 22.5215 347.861 22.3506C347.77 22.1797 347.7 21.9723 347.652 21.7285C347.604 21.4847 347.581 21.1999 347.581 20.874V20.1152C347.581 19.7074 347.617 19.3656 347.69 19.0898C347.765 18.8141 347.871 18.5931 348.008 18.4268C348.145 18.2581 348.309 18.1374 348.5 18.0645C348.694 17.9915 348.91 17.9551 349.149 17.9551C349.343 17.9551 349.521 17.979 349.683 18.0269C349.847 18.0724 349.993 18.1465 350.12 18.249C350.248 18.3493 350.356 18.4837 350.445 18.6523C350.536 18.8187 350.605 19.0226 350.653 19.2642C350.701 19.5057 350.725 19.7894 350.725 20.1152ZM350.089 20.9766V20.0093C350.089 19.786 350.076 19.59 350.048 19.4214C350.023 19.2505 349.986 19.1047 349.936 18.9839C349.885 18.8631 349.822 18.7651 349.744 18.6899C349.669 18.6147 349.581 18.5601 349.481 18.5259C349.383 18.4894 349.272 18.4712 349.149 18.4712C348.999 18.4712 348.866 18.4997 348.75 18.5566C348.633 18.6113 348.535 18.6991 348.456 18.8198C348.378 18.9406 348.319 19.099 348.278 19.2949C348.237 19.4909 348.216 19.729 348.216 20.0093V20.9766C348.216 21.1999 348.229 21.397 348.254 21.5679C348.281 21.7388 348.321 21.8869 348.374 22.0122C348.426 22.1353 348.49 22.2367 348.565 22.3164C348.64 22.3962 348.727 22.4554 348.825 22.4941C348.925 22.5306 349.035 22.5488 349.156 22.5488C349.311 22.5488 349.447 22.5192 349.563 22.46C349.679 22.4007 349.776 22.3084 349.854 22.1831C349.933 22.0555 349.993 21.8926 350.031 21.6943C350.07 21.4938 350.089 21.2546 350.089 20.9766ZM354.799 22.4805V23H351.542V22.5454L353.172 20.7305C353.373 20.5072 353.528 20.318 353.637 20.1631C353.749 20.0059 353.826 19.8657 353.87 19.7427C353.915 19.6174 353.938 19.4897 353.938 19.3599C353.938 19.1958 353.904 19.0477 353.835 18.9155C353.769 18.7811 353.671 18.674 353.542 18.5942C353.412 18.5145 353.254 18.4746 353.07 18.4746C352.849 18.4746 352.664 18.5179 352.516 18.6045C352.37 18.6888 352.261 18.8073 352.188 18.96C352.115 19.1126 352.079 19.2881 352.079 19.4863H351.446C351.446 19.2061 351.508 18.9497 351.631 18.7173C351.754 18.4849 351.936 18.3003 352.178 18.1636C352.419 18.0246 352.717 17.9551 353.07 17.9551C353.384 17.9551 353.653 18.0109 353.876 18.1226C354.1 18.2319 354.271 18.3869 354.389 18.5874C354.51 18.7856 354.57 19.0181 354.57 19.2847C354.57 19.4305 354.545 19.5786 354.495 19.729C354.447 19.8771 354.38 20.0252 354.293 20.1733C354.209 20.3215 354.11 20.4673 353.996 20.6108C353.884 20.7544 353.765 20.8957 353.637 21.0347L352.304 22.4805H354.799ZM358.737 22.4805V23H355.479V22.5454L357.11 20.7305C357.31 20.5072 357.465 20.318 357.575 20.1631C357.686 20.0059 357.764 19.8657 357.807 19.7427C357.853 19.6174 357.875 19.4897 357.875 19.3599C357.875 19.1958 357.841 19.0477 357.773 18.9155C357.707 18.7811 357.609 18.674 357.479 18.5942C357.349 18.5145 357.192 18.4746 357.007 18.4746C356.786 18.4746 356.602 18.5179 356.454 18.6045C356.308 18.6888 356.198 18.8073 356.125 18.96C356.053 19.1126 356.016 19.2881 356.016 19.4863H355.384C355.384 19.2061 355.445 18.9497 355.568 18.7173C355.691 18.4849 355.874 18.3003 356.115 18.1636C356.357 18.0246 356.654 17.9551 357.007 17.9551C357.322 17.9551 357.591 18.0109 357.814 18.1226C358.037 18.2319 358.208 18.3869 358.327 18.5874C358.447 18.7856 358.508 19.0181 358.508 19.2847C358.508 19.4305 358.483 19.5786 358.433 19.729C358.385 19.8771 358.318 20.0252 358.231 20.1733C358.147 20.3215 358.048 20.4673 357.934 20.6108C357.822 20.7544 357.702 20.8957 357.575 21.0347L356.242 22.4805H358.737Z" fill="#FF634F"/>
<path d="M324.164 45.104C324.932 44.464 325.544 43.932 326 43.508C326.456 43.076 326.836 42.628 327.14 42.164C327.444 41.7 327.596 41.244 327.596 40.796C327.596 40.388 327.5 40.068 327.308 39.836C327.116 39.604 326.82 39.488 326.42 39.488C326.02 39.488 325.712 39.624 325.496 39.896C325.28 40.16 325.168 40.524 325.16 40.988H323.528C323.56 40.028 323.844 39.3 324.38 38.804C324.924 38.308 325.612 38.06 326.444 38.06C327.356 38.06 328.056 38.304 328.544 38.792C329.032 39.272 329.276 39.908 329.276 40.7C329.276 41.324 329.108 41.92 328.772 42.488C328.436 43.056 328.052 43.552 327.62 43.976C327.188 44.392 326.624 44.896 325.928 45.488H329.468V46.88H323.54V45.632L324.164 45.104ZM336.407 39.704H332.519V41.756C332.687 41.548 332.927 41.38 333.239 41.252C333.551 41.116 333.883 41.048 334.235 41.048C334.875 41.048 335.399 41.188 335.807 41.468C336.215 41.748 336.511 42.108 336.695 42.548C336.879 42.98 336.971 43.444 336.971 43.94C336.971 44.86 336.707 45.6 336.179 46.16C335.659 46.72 334.915 47 333.947 47C333.035 47 332.307 46.772 331.763 46.316C331.219 45.86 330.911 45.264 330.839 44.528H332.471C332.543 44.848 332.703 45.104 332.951 45.296C333.207 45.488 333.531 45.584 333.923 45.584C334.395 45.584 334.751 45.436 334.991 45.14C335.231 44.844 335.351 44.452 335.351 43.964C335.351 43.468 335.227 43.092 334.979 42.836C334.739 42.572 334.383 42.44 333.911 42.44C333.575 42.44 333.295 42.524 333.071 42.692C332.847 42.86 332.687 43.084 332.591 43.364H330.983V38.228H336.407V39.704ZM338.249 42.512C338.249 41.128 338.497 40.044 338.993 39.26C339.497 38.476 340.329 38.084 341.489 38.084C342.649 38.084 343.477 38.476 343.973 39.26C344.477 40.044 344.729 41.128 344.729 42.512C344.729 43.904 344.477 44.996 343.973 45.788C343.477 46.58 342.649 46.976 341.489 46.976C340.329 46.976 339.497 46.58 338.993 45.788C338.497 44.996 338.249 43.904 338.249 42.512ZM343.073 42.512C343.073 41.92 343.033 41.424 342.953 41.024C342.881 40.616 342.729 40.284 342.497 40.028C342.273 39.772 341.937 39.644 341.489 39.644C341.041 39.644 340.701 39.772 340.469 40.028C340.245 40.284 340.093 40.616 340.013 41.024C339.941 41.424 339.905 41.92 339.905 42.512C339.905 43.12 339.941 43.632 340.013 44.048C340.085 44.456 340.237 44.788 340.469 45.044C340.701 45.292 341.041 45.416 341.489 45.416C341.937 45.416 342.277 45.292 342.509 45.044C342.741 44.788 342.893 44.456 342.965 44.048C343.037 43.632 343.073 43.12 343.073 42.512ZM346.007 42.512C346.007 41.128 346.255 40.044 346.751 39.26C347.255 38.476 348.087 38.084 349.247 38.084C350.407 38.084 351.235 38.476 351.731 39.26C352.235 40.044 352.487 41.128 352.487 42.512C352.487 43.904 352.235 44.996 351.731 45.788C351.235 46.58 350.407 46.976 349.247 46.976C348.087 46.976 347.255 46.58 346.751 45.788C346.255 44.996 346.007 43.904 346.007 42.512ZM350.831 42.512C350.831 41.92 350.791 41.424 350.711 41.024C350.639 40.616 350.487 40.284 350.255 40.028C350.031 39.772 349.695 39.644 349.247 39.644C348.799 39.644 348.459 39.772 348.227 40.028C348.003 40.284 347.851 40.616 347.771 41.024C347.699 41.424 347.663 41.92 347.663 42.512C347.663 43.12 347.699 43.632 347.771 44.048C347.843 44.456 347.995 44.788 348.227 45.044C348.459 45.292 348.799 45.416 349.247 45.416C349.695 45.416 350.035 45.292 350.267 45.044C350.499 44.788 350.651 44.456 350.723 44.048C350.795 43.632 350.831 43.12 350.831 42.512ZM359.657 38.624V39.98H357.425V47H355.745V39.98H353.513V38.624H359.657ZM365.611 47L362.563 43.268V47H360.883V38.624H362.563V42.38L365.611 38.624H367.639L364.183 42.776L367.735 47H365.611Z" fill="#4274FF"/>
<path d="M70.556 28L67.508 24.268V28H65.828V19.624H67.508V23.38L70.556 19.624H72.584L69.128 23.776L72.68 28H70.556ZM77.529 21.256C78.033 21.256 78.481 21.368 78.873 21.592C79.265 21.808 79.569 22.132 79.785 22.564C80.009 22.988 80.121 23.5 80.121 24.1V28H78.441V24.328C78.441 23.8 78.309 23.396 78.045 23.116C77.781 22.828 77.421 22.684 76.965 22.684C76.501 22.684 76.133 22.828 75.861 23.116C75.597 23.396 75.465 23.8 75.465 24.328V28H73.785V19.12H75.465V22.18C75.681 21.892 75.969 21.668 76.329 21.508C76.689 21.34 77.089 21.256 77.529 21.256ZM81.2866 24.652C81.2866 23.98 81.4186 23.384 81.6826 22.864C81.9546 22.344 82.3186 21.944 82.7746 21.664C83.2386 21.384 83.7546 21.244 84.3226 21.244C84.8186 21.244 85.2506 21.344 85.6186 21.544C85.9946 21.744 86.2946 21.996 86.5186 22.3V21.352H88.2106V28H86.5186V27.028C86.3026 27.34 86.0026 27.6 85.6186 27.808C85.2426 28.008 84.8066 28.108 84.3106 28.108C83.7506 28.108 83.2386 27.964 82.7746 27.676C82.3186 27.388 81.9546 26.984 81.6826 26.464C81.4186 25.936 81.2866 25.332 81.2866 24.652ZM86.5186 24.676C86.5186 24.268 86.4386 23.92 86.2786 23.632C86.1186 23.336 85.9026 23.112 85.6306 22.96C85.3586 22.8 85.0666 22.72 84.7546 22.72C84.4426 22.72 84.1546 22.796 83.8906 22.948C83.6266 23.1 83.4106 23.324 83.2426 23.62C83.0826 23.908 83.0026 24.252 83.0026 24.652C83.0026 25.052 83.0826 25.404 83.2426 25.708C83.4106 26.004 83.6266 26.232 83.8906 26.392C84.1626 26.552 84.4506 26.632 84.7546 26.632C85.0666 26.632 85.3586 26.556 85.6306 26.404C85.9026 26.244 86.1186 26.02 86.2786 25.732C86.4386 25.436 86.5186 25.084 86.5186 24.676ZM91.5314 19.12V28H89.8514V19.12H91.5314ZM99.3713 24.532C99.3713 24.772 99.3553 24.988 99.3233 25.18H94.4633C94.5033 25.66 94.6713 26.036 94.9673 26.308C95.2633 26.58 95.6273 26.716 96.0593 26.716C96.6833 26.716 97.1273 26.448 97.3913 25.912H99.2033C99.0113 26.552 98.6433 27.08 98.0993 27.496C97.5553 27.904 96.8873 28.108 96.0953 28.108C95.4553 28.108 94.8793 27.968 94.3673 27.688C93.8633 27.4 93.4673 26.996 93.1793 26.476C92.8993 25.956 92.7593 25.356 92.7593 24.676C92.7593 23.988 92.8993 23.384 93.1793 22.864C93.4593 22.344 93.8513 21.944 94.3553 21.664C94.8593 21.384 95.4393 21.244 96.0953 21.244C96.7273 21.244 97.2913 21.38 97.7873 21.652C98.2913 21.924 98.6793 22.312 98.9513 22.816C99.2313 23.312 99.3713 23.884 99.3713 24.532ZM97.6313 24.052C97.6233 23.62 97.4673 23.276 97.1633 23.02C96.8593 22.756 96.4873 22.624 96.0473 22.624C95.6313 22.624 95.2793 22.752 94.9913 23.008C94.7113 23.256 94.5393 23.604 94.4753 24.052H97.6313ZM100.166 24.652C100.166 23.98 100.298 23.384 100.562 22.864C100.834 22.344 101.202 21.944 101.666 21.664C102.13 21.384 102.646 21.244 103.214 21.244C103.646 21.244 104.058 21.34 104.45 21.532C104.842 21.716 105.154 21.964 105.386 22.276V19.12H107.09V28H105.386V27.016C105.178 27.344 104.886 27.608 104.51 27.808C104.134 28.008 103.698 28.108 103.202 28.108C102.642 28.108 102.13 27.964 101.666 27.676C101.202 27.388 100.834 26.984 100.562 26.464C100.298 25.936 100.166 25.332 100.166 24.652ZM105.398 24.676C105.398 24.268 105.318 23.92 105.158 23.632C104.998 23.336 104.782 23.112 104.51 22.96C104.238 22.8 103.946 22.72 103.634 22.72C103.322 22.72 103.034 22.796 102.77 22.948C102.506 23.1 102.29 23.324 102.122 23.62C101.962 23.908 101.882 24.252 101.882 24.652C101.882 25.052 101.962 25.404 102.122 25.708C102.29 26.004 102.506 26.232 102.77 26.392C103.042 26.552 103.33 26.632 103.634 26.632C103.946 26.632 104.238 26.556 104.51 26.404C104.782 26.244 104.998 26.02 105.158 25.732C105.318 25.436 105.398 25.084 105.398 24.676ZM113.27 26.668H116.03V28H111.59V19.624H113.27V26.668ZM122.798 19.624V20.98H120.566V28H118.886V20.98H116.654V19.624H122.798ZM126.951 19.624C127.831 19.624 128.603 19.796 129.267 20.14C129.939 20.484 130.455 20.976 130.815 21.616C131.183 22.248 131.367 22.984 131.367 23.824C131.367 24.664 131.183 25.4 130.815 26.032C130.455 26.656 129.939 27.14 129.267 27.484C128.603 27.828 127.831 28 126.951 28H124.023V19.624H126.951ZM126.891 26.572C127.771 26.572 128.451 26.332 128.931 25.852C129.411 25.372 129.651 24.696 129.651 23.824C129.651 22.952 129.411 22.272 128.931 21.784C128.451 21.288 127.771 21.04 126.891 21.04H125.703V26.572H126.891Z" fill="#4274FF"/>
<path d="M70.06 38.03V38.77H68.16V45H67.25V38.77H65.34V38.03H70.06ZM76.1802 42.05C76.1802 42.2233 76.1702 42.4067 76.1502 42.6H71.7702C71.8035 43.14 71.9868 43.5633 72.3202 43.87C72.6602 44.17 73.0702 44.32 73.5502 44.32C73.9435 44.32 74.2702 44.23 74.5302 44.05C74.7968 43.8633 74.9835 43.6167 75.0902 43.31H76.0702C75.9235 43.8367 75.6302 44.2667 75.1902 44.6C74.7502 44.9267 74.2035 45.09 73.5502 45.09C73.0302 45.09 72.5635 44.9733 72.1502 44.74C71.7435 44.5067 71.4235 44.1767 71.1902 43.75C70.9568 43.3167 70.8402 42.8167 70.8402 42.25C70.8402 41.6833 70.9535 41.1867 71.1802 40.76C71.4068 40.3333 71.7235 40.0067 72.1302 39.78C72.5435 39.5467 73.0168 39.43 73.5502 39.43C74.0702 39.43 74.5302 39.5433 74.9302 39.77C75.3302 39.9967 75.6368 40.31 75.8502 40.71C76.0702 41.1033 76.1802 41.55 76.1802 42.05ZM75.2402 41.86C75.2402 41.5133 75.1635 41.2167 75.0102 40.97C74.8568 40.7167 74.6468 40.5267 74.3802 40.4C74.1202 40.2667 73.8302 40.2 73.5102 40.2C73.0502 40.2 72.6568 40.3467 72.3302 40.64C72.0102 40.9333 71.8268 41.34 71.7802 41.86H75.2402ZM78.2913 40.41C78.4513 40.0967 78.678 39.8533 78.9713 39.68C79.2713 39.5067 79.6347 39.42 80.0613 39.42V40.36H79.8213C78.8013 40.36 78.2913 40.9133 78.2913 42.02V45H77.3813V39.52H78.2913V40.41ZM87.7018 39.42C88.1285 39.42 88.5085 39.51 88.8418 39.69C89.1751 39.8633 89.4385 40.1267 89.6318 40.48C89.8251 40.8333 89.9218 41.2633 89.9218 41.77V45H89.0218V41.9C89.0218 41.3533 88.8851 40.9367 88.6118 40.65C88.3451 40.3567 87.9818 40.21 87.5218 40.21C87.0485 40.21 86.6718 40.3633 86.3918 40.67C86.1118 40.97 85.9718 41.4067 85.9718 41.98V45H85.0718V41.9C85.0718 41.3533 84.9351 40.9367 84.6618 40.65C84.3951 40.3567 84.0318 40.21 83.5718 40.21C83.0985 40.21 82.7218 40.3633 82.4418 40.67C82.1618 40.97 82.0218 41.4067 82.0218 41.98V45H81.1118V39.52H82.0218V40.31C82.2018 40.0233 82.4418 39.8033 82.7418 39.65C83.0485 39.4967 83.3851 39.42 83.7518 39.42C84.2118 39.42 84.6185 39.5233 84.9718 39.73C85.3251 39.9367 85.5885 40.24 85.7618 40.64C85.9151 40.2533 86.1685 39.9533 86.5218 39.74C86.8751 39.5267 87.2685 39.42 87.7018 39.42ZM91.8845 38.63C91.7112 38.63 91.5645 38.57 91.4445 38.45C91.3245 38.33 91.2645 38.1833 91.2645 38.01C91.2645 37.8367 91.3245 37.69 91.4445 37.57C91.5645 37.45 91.7112 37.39 91.8845 37.39C92.0512 37.39 92.1912 37.45 92.3045 37.57C92.4245 37.69 92.4845 37.8367 92.4845 38.01C92.4845 38.1833 92.4245 38.33 92.3045 38.45C92.1912 38.57 92.0512 38.63 91.8845 38.63ZM92.3245 39.52V45H91.4145V39.52H92.3245ZM96.5455 39.42C97.2121 39.42 97.7521 39.6233 98.1655 40.03C98.5788 40.43 98.7855 41.01 98.7855 41.77V45H97.8855V41.9C97.8855 41.3533 97.7488 40.9367 97.4755 40.65C97.2021 40.3567 96.8288 40.21 96.3555 40.21C95.8755 40.21 95.4921 40.36 95.2055 40.66C94.9255 40.96 94.7855 41.3967 94.7855 41.97V45H93.8755V39.52H94.7855V40.3C94.9655 40.02 95.2088 39.8033 95.5155 39.65C95.8288 39.4967 96.1721 39.42 96.5455 39.42ZM99.932 42.24C99.932 41.68 100.045 41.19 100.272 40.77C100.499 40.3433 100.809 40.0133 101.202 39.78C101.602 39.5467 102.045 39.43 102.532 39.43C103.012 39.43 103.429 39.5333 103.782 39.74C104.135 39.9467 104.399 40.2067 104.572 40.52V39.52H105.492V45H104.572V43.98C104.392 44.3 104.122 44.5667 103.762 44.78C103.409 44.9867 102.995 45.09 102.522 45.09C102.035 45.09 101.595 44.97 101.202 44.73C100.809 44.49 100.499 44.1533 100.272 43.72C100.045 43.2867 99.932 42.7933 99.932 42.24ZM104.572 42.25C104.572 41.8367 104.489 41.4767 104.322 41.17C104.155 40.8633 103.929 40.63 103.642 40.47C103.362 40.3033 103.052 40.22 102.712 40.22C102.372 40.22 102.062 40.3 101.782 40.46C101.502 40.62 101.279 40.8533 101.112 41.16C100.945 41.4667 100.862 41.8267 100.862 42.24C100.862 42.66 100.945 43.0267 101.112 43.34C101.279 43.6467 101.502 43.8833 101.782 44.05C102.062 44.21 102.372 44.29 102.712 44.29C103.052 44.29 103.362 44.21 103.642 44.05C103.929 43.8833 104.155 43.6467 104.322 43.34C104.489 43.0267 104.572 42.6633 104.572 42.25ZM107.94 37.6V45H107.03V37.6H107.94ZM114.497 46.86C113.857 46.2333 113.357 45.4367 112.997 44.47C112.643 43.5033 112.467 42.46 112.467 41.34C112.467 40.1933 112.653 39.1233 113.027 38.13C113.407 37.13 113.947 36.3067 114.647 35.66H115.597V35.75C114.85 36.45 114.287 37.2933 113.907 38.28C113.533 39.26 113.347 40.28 113.347 41.34C113.347 42.3733 113.523 43.36 113.877 44.3C114.237 45.24 114.76 46.0633 115.447 46.77V46.86H114.497ZM120.818 43.45H117.778L117.218 45H116.258L118.778 38.07H119.828L122.338 45H121.378L120.818 43.45ZM120.558 42.71L119.298 39.19L118.038 42.71H120.558ZM123.146 46.86V46.77C123.833 46.0633 124.353 45.24 124.706 44.3C125.066 43.36 125.246 42.3733 125.246 41.34C125.246 40.28 125.056 39.26 124.676 38.28C124.303 37.2933 123.743 36.45 122.996 35.75V35.66H123.946C124.646 36.3067 125.183 37.13 125.556 38.13C125.936 39.1233 126.126 40.1933 126.126 41.34C126.126 42.46 125.946 43.5033 125.586 44.47C125.233 45.4367 124.736 46.2333 124.096 46.86H123.146Z" fill="#656567"/>
<path d="M22.6514 82.3359V93H21.2378V82.3359H22.6514ZM27.1191 87.1333V88.2905H22.3438V87.1333H27.1191ZM27.8442 82.3359V83.4932H22.3438V82.3359H27.8442ZM30.4883 86.3203V93H29.1333V85.0752H30.4517L30.4883 86.3203ZM32.9639 85.0312L32.9565 86.291C32.8442 86.2666 32.7368 86.252 32.6343 86.2471C32.5366 86.2373 32.4243 86.2324 32.2974 86.2324C31.9849 86.2324 31.709 86.2812 31.4697 86.3789C31.2305 86.4766 31.0278 86.6133 30.8618 86.7891C30.6958 86.9648 30.564 87.1748 30.4663 87.4189C30.3735 87.6582 30.3125 87.9219 30.2832 88.21L29.9023 88.4297C29.9023 87.9512 29.9487 87.502 30.0415 87.082C30.1392 86.6621 30.2881 86.291 30.4883 85.9688C30.6885 85.6416 30.9424 85.3877 31.25 85.207C31.5625 85.0215 31.9336 84.9287 32.3633 84.9287C32.4609 84.9287 32.5732 84.9409 32.7002 84.9653C32.8271 84.9849 32.915 85.0068 32.9639 85.0312ZM33.7109 89.1255V88.957C33.7109 88.3857 33.7939 87.856 33.96 87.3677C34.126 86.8745 34.3652 86.4473 34.6777 86.0859C34.9902 85.7197 35.3687 85.4365 35.813 85.2363C36.2573 85.0312 36.7554 84.9287 37.3071 84.9287C37.8638 84.9287 38.3643 85.0312 38.8086 85.2363C39.2578 85.4365 39.6387 85.7197 39.9512 86.0859C40.2686 86.4473 40.5103 86.8745 40.6763 87.3677C40.8423 87.856 40.9253 88.3857 40.9253 88.957V89.1255C40.9253 89.6968 40.8423 90.2266 40.6763 90.7148C40.5103 91.2031 40.2686 91.6304 39.9512 91.9966C39.6387 92.3579 39.2603 92.6411 38.8159 92.8462C38.3765 93.0464 37.8784 93.1465 37.3218 93.1465C36.7651 93.1465 36.2646 93.0464 35.8203 92.8462C35.376 92.6411 34.9951 92.3579 34.6777 91.9966C34.3652 91.6304 34.126 91.2031 33.96 90.7148C33.7939 90.2266 33.7109 89.6968 33.7109 89.1255ZM35.0659 88.957V89.1255C35.0659 89.521 35.1123 89.8945 35.2051 90.2461C35.2979 90.5928 35.437 90.9004 35.6226 91.1689C35.813 91.4375 36.0498 91.6499 36.333 91.8062C36.6162 91.9575 36.9458 92.0332 37.3218 92.0332C37.6929 92.0332 38.0176 91.9575 38.2959 91.8062C38.5791 91.6499 38.8135 91.4375 38.999 91.1689C39.1846 90.9004 39.3237 90.5928 39.4165 90.2461C39.5142 89.8945 39.563 89.521 39.563 89.1255V88.957C39.563 88.5664 39.5142 88.1978 39.4165 87.8511C39.3237 87.4995 39.1821 87.1895 38.9917 86.9209C38.8062 86.6475 38.5718 86.4326 38.2886 86.2764C38.0103 86.1201 37.6831 86.042 37.3071 86.042C36.936 86.042 36.6089 86.1201 36.3257 86.2764C36.0474 86.4326 35.813 86.6475 35.6226 86.9209C35.437 87.1895 35.2979 87.4995 35.2051 87.8511C35.1123 88.1978 35.0659 88.5664 35.0659 88.957ZM43.9722 86.6499V93H42.6099V85.0752H43.8989L43.9722 86.6499ZM43.6938 88.7373L43.064 88.7153C43.0688 88.1733 43.1396 87.6729 43.2764 87.2139C43.4131 86.75 43.6157 86.3472 43.8843 86.0054C44.1528 85.6636 44.4873 85.3999 44.8877 85.2144C45.2881 85.0239 45.752 84.9287 46.2793 84.9287C46.6504 84.9287 46.9922 84.9824 47.3047 85.0898C47.6172 85.1924 47.8882 85.356 48.1177 85.5806C48.3472 85.8052 48.5254 86.0933 48.6523 86.4448C48.7793 86.7964 48.8428 87.2212 48.8428 87.7192V93H47.4878V87.7852C47.4878 87.3701 47.417 87.0381 47.2754 86.7891C47.1387 86.54 46.9434 86.3594 46.6895 86.2471C46.4355 86.1299 46.1377 86.0713 45.7959 86.0713C45.3955 86.0713 45.061 86.1421 44.7925 86.2837C44.5239 86.4253 44.3091 86.6206 44.1479 86.8696C43.9868 87.1187 43.8696 87.4043 43.7964 87.7266C43.728 88.0439 43.6938 88.3809 43.6938 88.7373ZM48.8281 87.9902L47.9199 88.2686C47.9248 87.834 47.9956 87.4165 48.1323 87.0161C48.2739 86.6157 48.4766 86.2593 48.7402 85.9468C49.0088 85.6343 49.3384 85.3877 49.729 85.207C50.1196 85.0215 50.5664 84.9287 51.0693 84.9287C51.4941 84.9287 51.8701 84.9849 52.1973 85.0972C52.5293 85.2095 52.8076 85.3828 53.0322 85.6172C53.2617 85.8467 53.4351 86.1421 53.5522 86.5034C53.6694 86.8647 53.728 87.2944 53.728 87.7925V93H52.3657V87.7778C52.3657 87.3335 52.2949 86.9893 52.1533 86.7451C52.0166 86.4961 51.8213 86.3228 51.5674 86.2251C51.3184 86.1226 51.0205 86.0713 50.6738 86.0713C50.376 86.0713 50.1123 86.1226 49.8828 86.2251C49.6533 86.3276 49.4604 86.4692 49.3042 86.6499C49.1479 86.8257 49.0283 87.0283 48.9453 87.2578C48.8672 87.4873 48.8281 87.7314 48.8281 87.9902Z" fill="black"/>
<path d="M29.69 112H27.98L22.835 104.215V112H21.125V101.56H22.835L27.98 109.33V101.56H29.69V112ZM35.5205 112.135C34.7405 112.135 34.0355 111.96 33.4055 111.61C32.7755 111.25 32.2805 110.75 31.9205 110.11C31.5605 109.46 31.3805 108.71 31.3805 107.86C31.3805 107.02 31.5655 106.275 31.9355 105.625C32.3055 104.975 32.8105 104.475 33.4505 104.125C34.0905 103.775 34.8055 103.6 35.5955 103.6C36.3855 103.6 37.1005 103.775 37.7405 104.125C38.3805 104.475 38.8855 104.975 39.2555 105.625C39.6255 106.275 39.8105 107.02 39.8105 107.86C39.8105 108.7 39.6205 109.445 39.2405 110.095C38.8605 110.745 38.3405 111.25 37.6805 111.61C37.0305 111.96 36.3105 112.135 35.5205 112.135ZM35.5205 110.65C35.9605 110.65 36.3705 110.545 36.7505 110.335C37.1405 110.125 37.4555 109.81 37.6955 109.39C37.9355 108.97 38.0555 108.46 38.0555 107.86C38.0555 107.26 37.9405 106.755 37.7105 106.345C37.4805 105.925 37.1755 105.61 36.7955 105.4C36.4155 105.19 36.0055 105.085 35.5655 105.085C35.1255 105.085 34.7155 105.19 34.3355 105.4C33.9655 105.61 33.6705 105.925 33.4505 106.345C33.2305 106.755 33.1205 107.26 33.1205 107.86C33.1205 108.75 33.3455 109.44 33.7955 109.93C34.2555 110.41 34.8305 110.65 35.5205 110.65ZM40.931 107.83C40.931 107 41.101 106.265 41.441 105.625C41.791 104.985 42.261 104.49 42.851 104.14C43.451 103.78 44.111 103.6 44.831 103.6C45.481 103.6 46.046 103.73 46.526 103.99C47.016 104.24 47.406 104.555 47.696 104.935V103.735H49.421V112H47.696V110.77C47.406 111.16 47.011 111.485 46.511 111.745C46.011 112.005 45.441 112.135 44.801 112.135C44.091 112.135 43.441 111.955 42.851 111.595C42.261 111.225 41.791 110.715 41.441 110.065C41.101 109.405 40.931 108.66 40.931 107.83ZM47.696 107.86C47.696 107.29 47.576 106.795 47.336 106.375C47.106 105.955 46.801 105.635 46.421 105.415C46.041 105.195 45.631 105.085 45.191 105.085C44.751 105.085 44.341 105.195 43.961 105.415C43.581 105.625 43.271 105.94 43.031 106.36C42.801 106.77 42.686 107.26 42.686 107.83C42.686 108.4 42.801 108.9 43.031 109.33C43.271 109.76 43.581 110.09 43.961 110.32C44.351 110.54 44.761 110.65 45.191 110.65C45.631 110.65 46.041 110.54 46.421 110.32C46.801 110.1 47.106 109.78 47.336 109.36C47.576 108.93 47.696 108.43 47.696 107.86ZM54.937 107.875L58.747 112H56.437L53.377 108.445V112H51.667V100.9H53.377V107.35L56.377 103.735H58.747L54.937 107.875ZM64.2477 103.6C64.8777 103.6 65.4377 103.735 65.9277 104.005C66.4277 104.275 66.8177 104.675 67.0977 105.205C67.3877 105.735 67.5327 106.375 67.5327 107.125V112H65.8377V107.38C65.8377 106.64 65.6527 106.075 65.2827 105.685C64.9127 105.285 64.4077 105.085 63.7677 105.085C63.1277 105.085 62.6177 105.285 62.2377 105.685C61.8677 106.075 61.6827 106.64 61.6827 107.38V112H59.9727V100.9H61.6827V104.695C61.9727 104.345 62.3377 104.075 62.7777 103.885C63.2277 103.695 63.7177 103.6 64.2477 103.6ZM69.1439 107.83C69.1439 107 69.3139 106.265 69.6539 105.625C70.0039 104.985 70.4739 104.49 71.0639 104.14C71.6639 103.78 72.3239 103.6 73.0439 103.6C73.6939 103.6 74.2589 103.73 74.7389 103.99C75.2289 104.24 75.6189 104.555 75.9089 104.935V103.735H77.6339V112H75.9089V110.77C75.6189 111.16 75.2239 111.485 74.7239 111.745C74.2239 112.005 73.6539 112.135 73.0139 112.135C72.3039 112.135 71.6539 111.955 71.0639 111.595C70.4739 111.225 70.0039 110.715 69.6539 110.065C69.3139 109.405 69.1439 108.66 69.1439 107.83ZM75.9089 107.86C75.9089 107.29 75.7889 106.795 75.5489 106.375C75.3189 105.955 75.0139 105.635 74.6339 105.415C74.2539 105.195 73.8439 105.085 73.4039 105.085C72.9639 105.085 72.5539 105.195 72.1739 105.415C71.7939 105.625 71.4839 105.94 71.2439 106.36C71.0139 106.77 70.8989 107.26 70.8989 107.83C70.8989 108.4 71.0139 108.9 71.2439 109.33C71.4839 109.76 71.7939 110.09 72.1739 110.32C72.5639 110.54 72.9739 110.65 73.4039 110.65C73.8439 110.65 74.2539 110.54 74.6339 110.32C75.0139 110.1 75.3189 109.78 75.5489 109.36C75.7889 108.93 75.9089 108.43 75.9089 107.86ZM81.5899 100.9V112H79.8799V100.9H81.5899ZM84.705 102.64C84.395 102.64 84.135 102.535 83.925 102.325C83.715 102.115 83.61 101.855 83.61 101.545C83.61 101.235 83.715 100.975 83.925 100.765C84.135 100.555 84.395 100.45 84.705 100.45C85.005 100.45 85.26 100.555 85.47 100.765C85.68 100.975 85.785 101.235 85.785 101.545C85.785 101.855 85.68 102.115 85.47 102.325C85.26 102.535 85.005 102.64 84.705 102.64ZM85.545 103.735V112H83.835V103.735H85.545Z" fill="black"/>
<path d="M324.245 106.645C324.805 106.745 325.28 107.04 325.67 107.53C326.06 108.02 326.255 108.575 326.255 109.195C326.255 109.725 326.115 110.205 325.835 110.635C325.565 111.055 325.17 111.39 324.65 111.64C324.13 111.88 323.525 112 322.835 112H318.665V101.575H322.64C323.35 101.575 323.96 101.695 324.47 101.935C324.98 102.175 325.365 102.5 325.625 102.91C325.885 103.31 326.015 103.76 326.015 104.26C326.015 104.86 325.855 105.36 325.535 105.76C325.215 106.16 324.785 106.455 324.245 106.645ZM320.375 105.955H322.49C323.05 105.955 323.485 105.83 323.795 105.58C324.115 105.32 324.275 104.95 324.275 104.47C324.275 104 324.115 103.635 323.795 103.375C323.485 103.105 323.05 102.97 322.49 102.97H320.375V105.955ZM322.685 110.605C323.265 110.605 323.72 110.465 324.05 110.185C324.38 109.905 324.545 109.515 324.545 109.015C324.545 108.505 324.37 108.1 324.02 107.8C323.67 107.5 323.205 107.35 322.625 107.35H320.375V110.605H322.685ZM327.543 107.83C327.543 107 327.713 106.265 328.053 105.625C328.403 104.985 328.873 104.49 329.463 104.14C330.063 103.78 330.723 103.6 331.443 103.6C332.093 103.6 332.658 103.73 333.138 103.99C333.628 104.24 334.018 104.555 334.308 104.935V103.735H336.033V112H334.308V110.77C334.018 111.16 333.623 111.485 333.123 111.745C332.623 112.005 332.053 112.135 331.413 112.135C330.703 112.135 330.053 111.955 329.463 111.595C328.873 111.225 328.403 110.715 328.053 110.065C327.713 109.405 327.543 108.66 327.543 107.83ZM334.308 107.86C334.308 107.29 334.188 106.795 333.948 106.375C333.718 105.955 333.413 105.635 333.033 105.415C332.653 105.195 332.243 105.085 331.803 105.085C331.363 105.085 330.953 105.195 330.573 105.415C330.193 105.625 329.883 105.94 329.643 106.36C329.413 106.77 329.298 107.26 329.298 107.83C329.298 108.4 329.413 108.9 329.643 109.33C329.883 109.76 330.193 110.09 330.573 110.32C330.963 110.54 331.373 110.65 331.803 110.65C332.243 110.65 332.653 110.54 333.033 110.32C333.413 110.1 333.718 109.78 333.948 109.36C334.188 108.93 334.308 108.43 334.308 107.86ZM339.989 104.935C340.239 104.515 340.569 104.19 340.979 103.96C341.399 103.72 341.894 103.6 342.464 103.6V105.37H342.029C341.359 105.37 340.849 105.54 340.499 105.88C340.159 106.22 339.989 106.81 339.989 107.65V112H338.279V103.735H339.989V104.935ZM344.906 102.64C344.596 102.64 344.336 102.535 344.126 102.325C343.916 102.115 343.811 101.855 343.811 101.545C343.811 101.235 343.916 100.975 344.126 100.765C344.336 100.555 344.596 100.45 344.906 100.45C345.206 100.45 345.461 100.555 345.671 100.765C345.881 100.975 345.986 101.235 345.986 101.545C345.986 101.855 345.881 102.115 345.671 102.325C345.461 102.535 345.206 102.64 344.906 102.64ZM345.746 103.735V112H344.036V103.735H345.746ZM350.991 112.135C350.341 112.135 349.756 112.02 349.236 111.79C348.726 111.55 348.321 111.23 348.021 110.83C347.721 110.42 347.561 109.965 347.541 109.465H349.311C349.341 109.815 349.506 110.11 349.806 110.35C350.116 110.58 350.501 110.695 350.961 110.695C351.441 110.695 351.811 110.605 352.071 110.425C352.341 110.235 352.476 109.995 352.476 109.705C352.476 109.395 352.326 109.165 352.026 109.015C351.736 108.865 351.271 108.7 350.631 108.52C350.011 108.35 349.506 108.185 349.116 108.025C348.726 107.865 348.386 107.62 348.096 107.29C347.816 106.96 347.676 106.525 347.676 105.985C347.676 105.545 347.806 105.145 348.066 104.785C348.326 104.415 348.696 104.125 349.176 103.915C349.666 103.705 350.226 103.6 350.856 103.6C351.796 103.6 352.551 103.84 353.121 104.32C353.701 104.79 354.011 105.435 354.051 106.255H352.341C352.311 105.885 352.161 105.59 351.891 105.37C351.621 105.15 351.256 105.04 350.796 105.04C350.346 105.04 350.001 105.125 349.761 105.295C349.521 105.465 349.401 105.69 349.401 105.97C349.401 106.19 349.481 106.375 349.641 106.525C349.801 106.675 349.996 106.795 350.226 106.885C350.456 106.965 350.796 107.07 351.246 107.2C351.846 107.36 352.336 107.525 352.716 107.695C353.106 107.855 353.441 108.095 353.721 108.415C354.001 108.735 354.146 109.16 354.156 109.69C354.156 110.16 354.026 110.58 353.766 110.95C353.506 111.32 353.136 111.61 352.656 111.82C352.186 112.03 351.631 112.135 350.991 112.135ZM355.434 107.83C355.434 107 355.604 106.265 355.944 105.625C356.294 104.985 356.764 104.49 357.354 104.14C357.954 103.78 358.614 103.6 359.334 103.6C359.984 103.6 360.549 103.73 361.029 103.99C361.519 104.24 361.909 104.555 362.199 104.935V103.735H363.924V112H362.199V110.77C361.909 111.16 361.514 111.485 361.014 111.745C360.514 112.005 359.944 112.135 359.304 112.135C358.594 112.135 357.944 111.955 357.354 111.595C356.764 111.225 356.294 110.715 355.944 110.065C355.604 109.405 355.434 108.66 355.434 107.83ZM362.199 107.86C362.199 107.29 362.079 106.795 361.839 106.375C361.609 105.955 361.304 105.635 360.924 105.415C360.544 105.195 360.134 105.085 359.694 105.085C359.254 105.085 358.844 105.195 358.464 105.415C358.084 105.625 357.774 105.94 357.534 106.36C357.304 106.77 357.189 107.26 357.189 107.83C357.189 108.4 357.304 108.9 357.534 109.33C357.774 109.76 358.084 110.09 358.464 110.32C358.854 110.54 359.264 110.65 359.694 110.65C360.134 110.65 360.544 110.54 360.924 110.32C361.304 110.1 361.609 109.78 361.839 109.36C362.079 108.93 362.199 108.43 362.199 107.86ZM367.88 100.9V112H366.17V100.9H367.88Z" fill="black"/>
<path d="M351.178 82.3359V93H349.787V82.3359H351.178ZM354.606 82.3359V83.4932H346.366V82.3359H354.606ZM354.892 89.1255V88.957C354.892 88.3857 354.975 87.856 355.141 87.3677C355.307 86.8745 355.546 86.4473 355.858 86.0859C356.171 85.7197 356.549 85.4365 356.994 85.2363C357.438 85.0312 357.936 84.9287 358.488 84.9287C359.044 84.9287 359.545 85.0312 359.989 85.2363C360.438 85.4365 360.819 85.7197 361.132 86.0859C361.449 86.4473 361.691 86.8745 361.857 87.3677C362.023 87.856 362.106 88.3857 362.106 88.957V89.1255C362.106 89.6968 362.023 90.2266 361.857 90.7148C361.691 91.2031 361.449 91.6304 361.132 91.9966C360.819 92.3579 360.441 92.6411 359.997 92.8462C359.557 93.0464 359.059 93.1465 358.502 93.1465C357.946 93.1465 357.445 93.0464 357.001 92.8462C356.557 92.6411 356.176 92.3579 355.858 91.9966C355.546 91.6304 355.307 91.2031 355.141 90.7148C354.975 90.2266 354.892 89.6968 354.892 89.1255ZM356.247 88.957V89.1255C356.247 89.521 356.293 89.8945 356.386 90.2461C356.479 90.5928 356.618 90.9004 356.803 91.1689C356.994 91.4375 357.23 91.6499 357.514 91.8062C357.797 91.9575 358.126 92.0332 358.502 92.0332C358.874 92.0332 359.198 91.9575 359.477 91.8062C359.76 91.6499 359.994 91.4375 360.18 91.1689C360.365 90.9004 360.504 90.5928 360.597 90.2461C360.695 89.8945 360.744 89.521 360.744 89.1255V88.957C360.744 88.5664 360.695 88.1978 360.597 87.8511C360.504 87.4995 360.363 87.1895 360.172 86.9209C359.987 86.6475 359.752 86.4326 359.469 86.2764C359.191 86.1201 358.864 86.042 358.488 86.042C358.117 86.042 357.79 86.1201 357.506 86.2764C357.228 86.4326 356.994 86.6475 356.803 86.9209C356.618 87.1895 356.479 87.4995 356.386 87.8511C356.293 88.1978 356.247 88.5664 356.247 88.957Z" fill="black"/>
<path d="M193 103C198.523 103 203 98.5228 203 93C203 87.4772 198.523 83 193 83C187.477 83 183 87.4772 183 93C183 98.5228 187.477 103 193 103Z" stroke="#FF634F" stroke-width="1.5" stroke-linecap="round" stroke-linejoin="round"/>
<path d="M193 97L197 93L193 89" stroke="#FF634F" stroke-width="1.5" stroke-linecap="round" stroke-linejoin="round"/>
<path d="M189 93H197" stroke="#FF634F" stroke-width="1.5" stroke-linecap="round" stroke-linejoin="round"/>
<line x1="4.37114e-08" y1="69.5" x2="388" y2="69.5" stroke="black" stroke-opacity="0.12" stroke-dasharray="5 5"/>
</svg>
