<svg width="388" height="131" viewBox="0 0 388 131" fill="none" xmlns="http://www.w3.org/2000/svg">
<rect width="388" height="131" rx="10" fill="white"/>
<circle cx="35.5" cy="33.5" r="21.5" fill="#FF634F"/>
<path d="M40.9092 33.9987C41.0539 33.9987 41.1926 33.9412 41.2949 33.839C41.3972 33.7367 41.4547 33.5979 41.4547 33.4533V32.3623C41.4547 32.2177 41.3972 32.0789 41.2949 31.9767C41.1926 31.8744 41.0539 31.8169 40.9092 31.8169C40.7646 31.8169 40.6258 31.8744 40.5235 31.9767C40.4212 32.0789 40.3638 32.2177 40.3638 32.3623V33.4533C40.3638 33.5979 40.4212 33.7367 40.5235 33.839C40.6258 33.9412 40.7646 33.9987 40.9092 33.9987Z" fill="white"/>
<path d="M40.9092 37.2714C41.0539 37.2714 41.1926 37.214 41.2949 37.1117C41.3972 37.0094 41.4547 36.8706 41.4547 36.726V35.6351C41.4547 35.4904 41.3972 35.3517 41.2949 35.2494C41.1926 35.1471 41.0539 35.0896 40.9092 35.0896C40.7646 35.0896 40.6258 35.1471 40.5235 35.2494C40.4212 35.3517 40.3638 35.4904 40.3638 35.6351V36.726C40.3638 36.8706 40.4212 37.0094 40.5235 37.1117C40.6258 37.214 40.7646 37.2714 40.9092 37.2714Z" fill="white"/>
<path d="M40.9092 40.5441C41.0539 40.5441 41.1926 40.4867 41.2949 40.3844C41.3972 40.2821 41.4547 40.1433 41.4547 39.9987V38.9078C41.4547 38.7631 41.3972 38.6244 41.2949 38.5221C41.1926 38.4198 41.0539 38.3623 40.9092 38.3623C40.7646 38.3623 40.6258 38.4198 40.5235 38.5221C40.4212 38.6244 40.3638 38.7631 40.3638 38.9078V39.9987C40.3638 40.1433 40.4212 40.2821 40.5235 40.3844C40.6258 40.4867 40.7646 40.5441 40.9092 40.5441Z" fill="white"/>
<path d="M47.4545 29.635H47.0945L28.6636 22.0423C28.5974 22.0146 28.5263 22.0002 28.4545 22C28.3827 21.9998 28.3116 22.0138 28.2452 22.0412C28.1788 22.0685 28.1185 22.1087 28.0677 22.1595C28.0169 22.2102 27.9766 22.2705 27.9491 22.3368L26.4982 25.8659C26.4685 25.932 26.4532 26.0035 26.4532 26.0759C26.4532 26.1483 26.4685 26.2199 26.4982 26.2859C26.5535 26.4192 26.6594 26.5251 26.7927 26.5805L27.8182 26.995C28.017 27.0769 28.1978 27.1972 28.3501 27.349C28.5025 27.5009 28.6234 27.6812 28.706 27.8798C28.7885 28.0784 28.8312 28.2913 28.8314 28.5064C28.8316 28.7214 28.7894 28.9344 28.7073 29.1332C28.6243 29.32 28.5079 29.4901 28.3636 29.635H24.5455C24.4008 29.635 24.2621 29.6925 24.1598 29.7948C24.0575 29.8971 24 30.0358 24 30.1805V33.9986C24 34.1433 24.0575 34.282 24.1598 34.3843C24.2621 34.4866 24.4008 34.5441 24.5455 34.5441H25.6364C26.0704 34.5441 26.4866 34.7165 26.7934 35.0234C27.1003 35.3303 27.2727 35.7465 27.2727 36.1805C27.2727 36.6145 27.1003 37.0307 26.7934 37.3375C26.4866 37.6444 26.0704 37.8168 25.6364 37.8168H24.5455C24.4008 37.8168 24.2621 37.8743 24.1598 37.9766C24.0575 38.0789 24 38.2176 24 38.3623V42.1805C24 42.3251 24.0575 42.4639 24.1598 42.5662C24.2621 42.6685 24.4008 42.7259 24.5455 42.7259H47.4545C47.5992 42.7259 47.7379 42.6685 47.8402 42.5662C47.9425 42.4639 48 42.3251 48 42.1805V38.3623C48 38.2176 47.9425 38.0789 47.8402 37.9766C47.7379 37.8743 47.5992 37.8168 47.4545 37.8168H46.3636C45.9296 37.8168 45.5134 37.6444 45.2066 37.3375C44.8997 37.0307 44.7273 36.6145 44.7273 36.1805C44.7273 35.7465 44.8997 35.3303 45.2066 35.0234C45.5134 34.7165 45.9296 34.5441 46.3636 34.5441H47.4545C47.5992 34.5441 47.7379 34.4866 47.8402 34.3843C47.9425 34.282 48 34.1433 48 33.9986V30.1805C48 30.0358 47.9425 29.8971 47.8402 29.7948C47.7379 29.6925 47.5992 29.635 47.4545 29.635ZM28.2164 25.9859L27.7145 25.7786L28.7509 23.2586L44.2309 29.635H29.6564C29.6564 29.6023 29.6891 29.575 29.7 29.5477C29.8366 29.2165 29.9066 28.8615 29.9059 28.5032C29.9053 28.1449 29.8341 27.7902 29.6963 27.4594C29.5585 27.1286 29.3569 26.8282 29.1029 26.5754C28.849 26.3226 28.5477 26.1223 28.2164 25.9859V25.9859ZM46.9091 33.4532H46.3636C45.6403 33.4532 44.9466 33.7405 44.4352 34.252C43.9237 34.7635 43.6364 35.4571 43.6364 36.1805C43.6364 36.9038 43.9237 37.5975 44.4352 38.1089C44.9466 38.6204 45.6403 38.9077 46.3636 38.9077H46.9091V41.635H25.0909V38.9077H25.6364C26.3597 38.9077 27.0534 38.6204 27.5648 38.1089C28.0763 37.5975 28.3636 36.9038 28.3636 36.1805C28.3636 35.4571 28.0763 34.7635 27.5648 34.252C27.0534 33.7405 26.3597 33.4532 25.6364 33.4532H25.0909V30.7259H46.9091V33.4532Z" fill="white"/>
<path d="M31.0909 33.9986H37.6363C37.781 33.9986 37.9197 33.9412 38.022 33.8389C38.1243 33.7366 38.1818 33.5978 38.1818 33.4532C38.1818 33.3085 38.1243 33.1698 38.022 33.0675C37.9197 32.9652 37.781 32.9077 37.6363 32.9077H31.0909C30.9462 32.9077 30.8075 32.9652 30.7052 33.0675C30.6029 33.1698 30.5454 33.3085 30.5454 33.4532C30.5454 33.5978 30.6029 33.7366 30.7052 33.8389C30.8075 33.9412 30.9462 33.9986 31.0909 33.9986V33.9986Z" fill="white"/>
<path d="M31.0909 39.4532H37.6363C37.781 39.4532 37.9197 39.3957 38.022 39.2935C38.1243 39.1912 38.1818 39.0524 38.1818 38.9078C38.1818 38.7631 38.1243 38.6244 38.022 38.5221C37.9197 38.4198 37.781 38.3623 37.6363 38.3623H31.0909C30.9462 38.3623 30.8075 38.4198 30.7052 38.5221C30.6029 38.6244 30.5454 38.7631 30.5454 38.9078C30.5454 39.0524 30.6029 39.1912 30.7052 39.2935C30.8075 39.3957 30.9462 39.4532 31.0909 39.4532V39.4532Z" fill="white"/>
<path d="M31.0909 36.7259H37.6363C37.781 36.7259 37.9197 36.6685 38.022 36.5662C38.1243 36.4639 38.1818 36.3251 38.1818 36.1805C38.1818 36.0358 38.1243 35.8971 38.022 35.7948C37.9197 35.6925 37.781 35.635 37.6363 35.635H31.0909C30.9462 35.635 30.8075 35.6925 30.7052 35.7948C30.6029 35.8971 30.5454 36.0358 30.5454 36.1805C30.5454 36.3251 30.6029 36.4639 30.7052 36.5662C30.8075 36.6685 30.9462 36.7259 31.0909 36.7259V36.7259Z" fill="white"/>
<rect x="286" y="12" width="83" height="16.6" rx="8.3" fill="#FFE1DD"/>
<path d="M298.635 21.019C298.635 20.9279 298.615 20.8436 298.574 20.7661C298.535 20.6864 298.454 20.6146 298.331 20.5508C298.21 20.4847 298.028 20.4277 297.784 20.3799C297.579 20.3366 297.393 20.2853 297.227 20.2261C297.063 20.1668 296.923 20.0951 296.807 20.0107C296.693 19.9264 296.605 19.8273 296.543 19.7134C296.482 19.5994 296.451 19.4661 296.451 19.3135C296.451 19.1676 296.483 19.0298 296.547 18.8999C296.613 18.77 296.705 18.6549 296.824 18.5547C296.944 18.4544 297.089 18.3758 297.258 18.3188C297.426 18.2619 297.614 18.2334 297.822 18.2334C298.118 18.2334 298.371 18.2858 298.581 18.3906C298.79 18.4954 298.951 18.6356 299.062 18.811C299.174 18.9842 299.23 19.1768 299.23 19.3887H298.598C298.598 19.2861 298.567 19.187 298.505 19.0913C298.446 18.9933 298.358 18.9124 298.242 18.8486C298.128 18.7848 297.988 18.7529 297.822 18.7529C297.646 18.7529 297.504 18.7803 297.395 18.835C297.287 18.8874 297.209 18.9546 297.159 19.0366C297.111 19.1187 297.087 19.2052 297.087 19.2964C297.087 19.3647 297.098 19.4263 297.121 19.481C297.146 19.5334 297.189 19.5824 297.251 19.6279C297.312 19.6712 297.399 19.7122 297.511 19.751C297.622 19.7897 297.765 19.8285 297.938 19.8672C298.241 19.9355 298.491 20.0176 298.687 20.1133C298.882 20.209 299.028 20.3263 299.124 20.4653C299.22 20.6043 299.268 20.7729 299.268 20.9712C299.268 21.133 299.233 21.2811 299.165 21.4155C299.099 21.55 299.002 21.6662 298.875 21.7642C298.749 21.8599 298.599 21.9351 298.423 21.9897C298.25 22.0422 298.055 22.0684 297.839 22.0684C297.513 22.0684 297.237 22.0103 297.012 21.894C296.786 21.7778 296.615 21.6274 296.499 21.4429C296.383 21.2583 296.325 21.0635 296.325 20.8584H296.96C296.97 21.0316 297.02 21.1694 297.111 21.272C297.202 21.3722 297.314 21.444 297.446 21.4873C297.578 21.5283 297.709 21.5488 297.839 21.5488C298.012 21.5488 298.157 21.526 298.273 21.4805C298.391 21.4349 298.481 21.3722 298.543 21.2925C298.604 21.2127 298.635 21.1216 298.635 21.019ZM302.361 21.1455V18.3018H302.997V22H302.392L302.361 21.1455ZM302.48 20.3662L302.744 20.3594C302.744 20.6055 302.717 20.8333 302.665 21.043C302.615 21.2503 302.533 21.4303 302.419 21.583C302.305 21.7357 302.156 21.8553 301.971 21.9419C301.787 22.0262 301.562 22.0684 301.298 22.0684C301.118 22.0684 300.953 22.0422 300.802 21.9897C300.654 21.9373 300.527 21.8564 300.419 21.7471C300.312 21.6377 300.229 21.4953 300.17 21.3198C300.113 21.1444 300.084 20.9336 300.084 20.6875V18.3018H300.717V20.6943C300.717 20.8607 300.735 20.9985 300.771 21.1079C300.81 21.215 300.861 21.3005 300.925 21.3643C300.991 21.4258 301.064 21.4691 301.144 21.4941C301.226 21.5192 301.31 21.5317 301.397 21.5317C301.666 21.5317 301.879 21.4805 302.036 21.3779C302.193 21.2731 302.306 21.133 302.375 20.9575C302.445 20.7798 302.48 20.5827 302.48 20.3662ZM304.593 19.0913V22H303.96V18.3018H304.559L304.593 19.0913ZM304.442 20.0107L304.179 20.0005C304.181 19.7476 304.219 19.514 304.292 19.2998C304.365 19.0833 304.467 18.8953 304.6 18.7358C304.732 18.5763 304.889 18.4533 305.071 18.3667C305.256 18.2778 305.46 18.2334 305.683 18.2334C305.865 18.2334 306.029 18.2585 306.175 18.3086C306.321 18.3564 306.445 18.4339 306.548 18.541C306.653 18.6481 306.732 18.7871 306.787 18.958C306.842 19.1266 306.869 19.3328 306.869 19.5767V22H306.233V19.5698C306.233 19.3761 306.205 19.2212 306.148 19.105C306.091 18.9865 306.008 18.901 305.898 18.8486C305.789 18.7939 305.655 18.7666 305.495 18.7666C305.338 18.7666 305.194 18.7996 305.064 18.8657C304.937 18.9318 304.826 19.0229 304.733 19.1392C304.642 19.2554 304.57 19.3887 304.518 19.5391C304.467 19.6872 304.442 19.8444 304.442 20.0107ZM310.161 21.2822V16.75H310.796V22H310.215L310.161 21.2822ZM307.672 20.1919V20.1201C307.672 19.8376 307.707 19.5812 307.775 19.3511C307.846 19.1187 307.945 18.9193 308.072 18.7529C308.202 18.5866 308.356 18.459 308.534 18.3701C308.714 18.279 308.914 18.2334 309.135 18.2334C309.368 18.2334 309.57 18.2744 309.744 18.3564C309.919 18.4362 310.067 18.5535 310.188 18.7085C310.311 18.8612 310.408 19.0457 310.479 19.2622C310.549 19.4787 310.598 19.7236 310.625 19.9971V20.3115C310.6 20.5827 310.551 20.8265 310.479 21.043C310.408 21.2594 310.311 21.444 310.188 21.5967C310.067 21.7493 309.919 21.8667 309.744 21.9487C309.568 22.0285 309.363 22.0684 309.128 22.0684C308.912 22.0684 308.714 22.0216 308.534 21.9282C308.356 21.8348 308.202 21.7038 308.072 21.5352C307.945 21.3665 307.846 21.1683 307.775 20.9404C307.707 20.7103 307.672 20.4608 307.672 20.1919ZM308.308 20.1201V20.1919C308.308 20.3765 308.326 20.5496 308.363 20.7114C308.402 20.8732 308.461 21.0156 308.541 21.1387C308.62 21.2617 308.722 21.3586 308.845 21.4292C308.968 21.4976 309.115 21.5317 309.286 21.5317C309.495 21.5317 309.667 21.4873 309.802 21.3984C309.938 21.3096 310.048 21.1922 310.13 21.0464C310.212 20.9006 310.276 20.7422 310.321 20.5713V19.7476C310.294 19.6222 310.254 19.5015 310.202 19.3853C310.152 19.2668 310.085 19.1619 310.003 19.0708C309.924 18.9774 309.825 18.9033 309.706 18.8486C309.59 18.7939 309.452 18.7666 309.292 18.7666C309.119 18.7666 308.97 18.8031 308.845 18.876C308.722 18.9466 308.62 19.0446 308.541 19.1699C308.461 19.293 308.402 19.4365 308.363 19.6006C308.326 19.7624 308.308 19.9355 308.308 20.1201ZM313.961 21.3677V19.4639C313.961 19.318 313.932 19.1916 313.873 19.0845C313.816 18.9751 313.729 18.8908 313.613 18.8315C313.497 18.7723 313.353 18.7427 313.182 18.7427C313.023 18.7427 312.882 18.77 312.762 18.8247C312.643 18.8794 312.55 18.9512 312.481 19.04C312.415 19.1289 312.382 19.2246 312.382 19.3271H311.75C311.75 19.195 311.784 19.064 311.853 18.9341C311.921 18.8042 312.019 18.6868 312.146 18.582C312.276 18.4749 312.431 18.3906 312.611 18.3291C312.794 18.2653 312.996 18.2334 313.22 18.2334C313.489 18.2334 313.726 18.279 313.931 18.3701C314.138 18.4613 314.3 18.5991 314.416 18.7837C314.535 18.966 314.594 19.195 314.594 19.4707V21.1934C314.594 21.3164 314.604 21.4474 314.625 21.5864C314.647 21.7254 314.68 21.8451 314.724 21.9453V22H314.064C314.032 21.9271 314.007 21.8302 313.989 21.7095C313.971 21.5864 313.961 21.4725 313.961 21.3677ZM314.071 19.7578L314.078 20.2021H313.438C313.258 20.2021 313.098 20.217 312.957 20.2466C312.815 20.2739 312.697 20.3161 312.601 20.373C312.505 20.43 312.432 20.5018 312.382 20.5884C312.332 20.6727 312.307 20.7718 312.307 20.8857C312.307 21.002 312.333 21.1079 312.386 21.2036C312.438 21.2993 312.517 21.3757 312.622 21.4326C312.729 21.4873 312.86 21.5146 313.015 21.5146C313.208 21.5146 313.379 21.4736 313.527 21.3916C313.675 21.3096 313.793 21.2093 313.879 21.0908C313.968 20.9723 314.016 20.8573 314.023 20.7456L314.293 21.0498C314.277 21.1455 314.234 21.2515 314.163 21.3677C314.092 21.4839 313.998 21.5955 313.879 21.7026C313.763 21.8075 313.624 21.8952 313.462 21.9658C313.303 22.0342 313.123 22.0684 312.922 22.0684C312.672 22.0684 312.452 22.0194 312.263 21.9214C312.076 21.8234 311.93 21.6924 311.825 21.5283C311.723 21.362 311.671 21.1763 311.671 20.9712C311.671 20.7729 311.71 20.5986 311.788 20.4482C311.865 20.2956 311.977 20.1691 312.123 20.0688C312.268 19.9663 312.444 19.8888 312.649 19.8364C312.854 19.784 313.083 19.7578 313.336 19.7578H314.071ZM316.573 21.6172L317.602 18.3018H318.278L316.795 22.5708C316.761 22.6619 316.715 22.7599 316.658 22.8647C316.604 22.9718 316.533 23.0732 316.446 23.1689C316.36 23.2646 316.255 23.3421 316.132 23.4014C316.011 23.4629 315.866 23.4937 315.698 23.4937C315.648 23.4937 315.584 23.4868 315.506 23.4731C315.429 23.4595 315.374 23.4481 315.342 23.439L315.339 22.9263C315.357 22.9285 315.386 22.9308 315.424 22.9331C315.465 22.9377 315.494 22.9399 315.51 22.9399C315.653 22.9399 315.775 22.9206 315.875 22.8818C315.976 22.8454 316.06 22.7827 316.128 22.6938C316.199 22.6073 316.259 22.4876 316.31 22.335L316.573 21.6172ZM315.817 18.3018L316.778 21.1729L316.942 21.8394L316.487 22.0718L315.127 18.3018H315.817ZM319.054 21.248V21.7573C319.054 21.9647 319.002 22.1834 318.897 22.4136C318.792 22.646 318.645 22.8397 318.456 22.9946L318.097 22.7451C318.17 22.6449 318.232 22.5423 318.282 22.4375C318.332 22.335 318.369 22.2279 318.395 22.1162C318.422 22.0068 318.436 21.8906 318.436 21.7676V21.248H319.054ZM324.79 21.4805V22H321.532V21.5454L323.163 19.7305C323.363 19.5072 323.518 19.318 323.627 19.1631C323.739 19.0059 323.817 18.8657 323.86 18.7427C323.905 18.6174 323.928 18.4897 323.928 18.3599C323.928 18.1958 323.894 18.0477 323.826 17.9155C323.76 17.7811 323.662 17.674 323.532 17.5942C323.402 17.5145 323.245 17.4746 323.06 17.4746C322.839 17.4746 322.654 17.5179 322.506 17.6045C322.361 17.6888 322.251 17.8073 322.178 17.96C322.105 18.1126 322.069 18.2881 322.069 18.4863H321.437C321.437 18.2061 321.498 17.9497 321.621 17.7173C321.744 17.4849 321.926 17.3003 322.168 17.1636C322.41 17.0246 322.707 16.9551 323.06 16.9551C323.375 16.9551 323.643 17.0109 323.867 17.1226C324.09 17.2319 324.261 17.3869 324.379 17.5874C324.5 17.7856 324.561 18.0181 324.561 18.2847C324.561 18.4305 324.535 18.5786 324.485 18.729C324.438 18.8771 324.37 19.0252 324.284 19.1733C324.199 19.3215 324.1 19.4673 323.986 19.6108C323.875 19.7544 323.755 19.8957 323.627 20.0347L322.294 21.4805H324.79ZM326.389 19.2007H326.84C327.061 19.2007 327.244 19.1642 327.387 19.0913C327.533 19.0161 327.641 18.9147 327.712 18.7871C327.785 18.6572 327.821 18.5114 327.821 18.3496C327.821 18.1582 327.789 17.9976 327.726 17.8677C327.662 17.7378 327.566 17.6398 327.438 17.5737C327.311 17.5076 327.149 17.4746 326.953 17.4746C326.775 17.4746 326.618 17.5099 326.481 17.5806C326.347 17.6489 326.241 17.7469 326.164 17.8745C326.088 18.0021 326.051 18.1525 326.051 18.3257H325.418C325.418 18.0728 325.482 17.8426 325.61 17.6353C325.737 17.4279 325.916 17.2627 326.146 17.1396C326.379 17.0166 326.648 16.9551 326.953 16.9551C327.254 16.9551 327.517 17.0086 327.743 17.1157C327.968 17.2205 328.144 17.3778 328.269 17.5874C328.394 17.7948 328.457 18.0534 328.457 18.3633C328.457 18.4886 328.427 18.623 328.368 18.7666C328.311 18.9079 328.221 19.04 328.098 19.1631C327.977 19.2861 327.82 19.3875 327.626 19.4673C327.433 19.5448 327.2 19.5835 326.929 19.5835H326.389V19.2007ZM326.389 19.7202V19.3408H326.929C327.246 19.3408 327.508 19.3784 327.715 19.4536C327.923 19.5288 328.086 19.6291 328.204 19.7544C328.325 19.8797 328.409 20.0176 328.457 20.168C328.507 20.3161 328.532 20.4642 328.532 20.6123C328.532 20.8447 328.492 21.0509 328.413 21.231C328.335 21.411 328.225 21.5636 328.081 21.689C327.94 21.8143 327.773 21.9089 327.582 21.9727C327.391 22.0365 327.182 22.0684 326.957 22.0684C326.74 22.0684 326.536 22.0376 326.345 21.9761C326.156 21.9146 325.988 21.8257 325.842 21.7095C325.696 21.591 325.583 21.4463 325.5 21.2754C325.418 21.1022 325.377 20.9051 325.377 20.6841H326.01C326.01 20.8573 326.047 21.0088 326.123 21.1387C326.2 21.2686 326.309 21.37 326.451 21.4429C326.594 21.5135 326.763 21.5488 326.957 21.5488C327.15 21.5488 327.317 21.5158 327.456 21.4497C327.597 21.3813 327.705 21.2788 327.78 21.1421C327.858 21.0054 327.896 20.8333 327.896 20.626C327.896 20.4186 327.853 20.2489 327.767 20.1167C327.68 19.9823 327.557 19.8831 327.397 19.8193C327.24 19.7533 327.055 19.7202 326.84 19.7202H326.389ZM331.226 18.3018H331.861V22.4409C331.861 22.6665 331.825 22.8579 331.752 23.0151C331.681 23.1724 331.574 23.2909 331.431 23.3706C331.289 23.4526 331.111 23.4937 330.894 23.4937C330.837 23.4937 330.771 23.488 330.696 23.4766C330.618 23.4652 330.553 23.4515 330.501 23.4355L330.504 22.9263C330.548 22.9354 330.597 22.9422 330.651 22.9468C330.706 22.9536 330.754 22.957 330.795 22.957C330.888 22.957 330.967 22.9399 331.031 22.9058C331.095 22.8716 331.142 22.8169 331.174 22.7417C331.208 22.6665 331.226 22.5662 331.226 22.4409V18.3018ZM331.161 17.3208C331.161 17.2183 331.193 17.1317 331.256 17.061C331.32 16.9904 331.412 16.9551 331.533 16.9551C331.656 16.9551 331.75 16.9904 331.813 17.061C331.877 17.1317 331.909 17.2183 331.909 17.3208C331.909 17.4188 331.877 17.5031 331.813 17.5737C331.75 17.6421 331.656 17.6763 331.533 17.6763C331.412 17.6763 331.32 17.6421 331.256 17.5737C331.193 17.5031 331.161 17.4188 331.161 17.3208ZM335.146 21.1455V18.3018H335.782V22H335.177L335.146 21.1455ZM335.266 20.3662L335.529 20.3594C335.529 20.6055 335.503 20.8333 335.45 21.043C335.4 21.2503 335.318 21.4303 335.204 21.583C335.09 21.7357 334.941 21.8553 334.756 21.9419C334.572 22.0262 334.347 22.0684 334.083 22.0684C333.903 22.0684 333.738 22.0422 333.587 21.9897C333.439 21.9373 333.312 21.8564 333.205 21.7471C333.097 21.6377 333.014 21.4953 332.955 21.3198C332.898 21.1444 332.87 20.9336 332.87 20.6875V18.3018H333.502V20.6943C333.502 20.8607 333.52 20.9985 333.557 21.1079C333.595 21.215 333.647 21.3005 333.71 21.3643C333.777 21.4258 333.849 21.4691 333.929 21.4941C334.011 21.5192 334.096 21.5317 334.182 21.5317C334.451 21.5317 334.664 21.4805 334.821 21.3779C334.979 21.2731 335.091 21.133 335.16 20.9575C335.23 20.7798 335.266 20.5827 335.266 20.3662ZM337.378 19.0913V22H336.746V18.3018H337.344L337.378 19.0913ZM337.228 20.0107L336.964 20.0005C336.967 19.7476 337.004 19.514 337.077 19.2998C337.15 19.0833 337.253 18.8953 337.385 18.7358C337.517 18.5763 337.674 18.4533 337.856 18.3667C338.041 18.2778 338.245 18.2334 338.468 18.2334C338.651 18.2334 338.815 18.2585 338.96 18.3086C339.106 18.3564 339.23 18.4339 339.333 18.541C339.438 18.6481 339.518 18.7871 339.572 18.958C339.627 19.1266 339.654 19.3328 339.654 19.5767V22H339.019V19.5698C339.019 19.3761 338.99 19.2212 338.933 19.105C338.876 18.9865 338.793 18.901 338.684 18.8486C338.574 18.7939 338.44 18.7666 338.28 18.7666C338.123 18.7666 337.979 18.7996 337.85 18.8657C337.722 18.9318 337.611 19.0229 337.518 19.1392C337.427 19.2554 337.355 19.3887 337.303 19.5391C337.253 19.6872 337.228 19.8444 337.228 20.0107ZM341.189 21.248V21.7573C341.189 21.9647 341.137 22.1834 341.032 22.4136C340.927 22.646 340.78 22.8397 340.591 22.9946L340.232 22.7451C340.305 22.6449 340.366 22.5423 340.417 22.4375C340.467 22.335 340.504 22.2279 340.529 22.1162C340.557 22.0068 340.57 21.8906 340.57 21.7676V21.248H341.189ZM346.924 21.4805V22H343.667V21.5454L345.297 19.7305C345.498 19.5072 345.653 19.318 345.762 19.1631C345.874 19.0059 345.951 18.8657 345.995 18.7427C346.04 18.6174 346.063 18.4897 346.063 18.3599C346.063 18.1958 346.029 18.0477 345.96 17.9155C345.894 17.7811 345.796 17.674 345.667 17.5942C345.537 17.5145 345.379 17.4746 345.195 17.4746C344.974 17.4746 344.789 17.5179 344.641 17.6045C344.495 17.6888 344.386 17.8073 344.313 17.96C344.24 18.1126 344.204 18.2881 344.204 18.4863H343.571C343.571 18.2061 343.633 17.9497 343.756 17.7173C343.879 17.4849 344.061 17.3003 344.303 17.1636C344.544 17.0246 344.842 16.9551 345.195 16.9551C345.509 16.9551 345.778 17.0109 346.001 17.1226C346.225 17.2319 346.396 17.3869 346.514 17.5874C346.635 17.7856 346.695 18.0181 346.695 18.2847C346.695 18.4305 346.67 18.5786 346.62 18.729C346.572 18.8771 346.505 19.0252 346.418 19.1733C346.334 19.3215 346.235 19.4673 346.121 19.6108C346.009 19.7544 345.89 19.8957 345.762 20.0347L344.429 21.4805H346.924ZM350.725 19.1152V19.874C350.725 20.2819 350.689 20.626 350.616 20.9062C350.543 21.1865 350.438 21.4121 350.301 21.583C350.165 21.7539 349.999 21.8781 349.806 21.9556C349.614 22.0308 349.398 22.0684 349.156 22.0684C348.965 22.0684 348.788 22.0444 348.626 21.9966C348.465 21.9487 348.319 21.8724 348.189 21.7676C348.061 21.6605 347.952 21.5215 347.861 21.3506C347.77 21.1797 347.7 20.9723 347.652 20.7285C347.604 20.4847 347.581 20.1999 347.581 19.874V19.1152C347.581 18.7074 347.617 18.3656 347.69 18.0898C347.765 17.8141 347.871 17.5931 348.008 17.4268C348.145 17.2581 348.309 17.1374 348.5 17.0645C348.694 16.9915 348.91 16.9551 349.149 16.9551C349.343 16.9551 349.521 16.979 349.683 17.0269C349.847 17.0724 349.993 17.1465 350.12 17.249C350.248 17.3493 350.356 17.4837 350.445 17.6523C350.536 17.8187 350.605 18.0226 350.653 18.2642C350.701 18.5057 350.725 18.7894 350.725 19.1152ZM350.089 19.9766V19.0093C350.089 18.786 350.076 18.59 350.048 18.4214C350.023 18.2505 349.986 18.1047 349.936 17.9839C349.885 17.8631 349.822 17.7651 349.744 17.6899C349.669 17.6147 349.581 17.5601 349.481 17.5259C349.383 17.4894 349.272 17.4712 349.149 17.4712C348.999 17.4712 348.866 17.4997 348.75 17.5566C348.633 17.6113 348.535 17.6991 348.456 17.8198C348.378 17.9406 348.319 18.099 348.278 18.2949C348.237 18.4909 348.216 18.729 348.216 19.0093V19.9766C348.216 20.1999 348.229 20.397 348.254 20.5679C348.281 20.7388 348.321 20.8869 348.374 21.0122C348.426 21.1353 348.49 21.2367 348.565 21.3164C348.64 21.3962 348.727 21.4554 348.825 21.4941C348.925 21.5306 349.035 21.5488 349.156 21.5488C349.311 21.5488 349.447 21.5192 349.563 21.46C349.679 21.4007 349.776 21.3084 349.854 21.1831C349.933 21.0555 349.993 20.8926 350.031 20.6943C350.07 20.4938 350.089 20.2546 350.089 19.9766ZM354.799 21.4805V22H351.542V21.5454L353.172 19.7305C353.373 19.5072 353.528 19.318 353.637 19.1631C353.749 19.0059 353.826 18.8657 353.87 18.7427C353.915 18.6174 353.938 18.4897 353.938 18.3599C353.938 18.1958 353.904 18.0477 353.835 17.9155C353.769 17.7811 353.671 17.674 353.542 17.5942C353.412 17.5145 353.254 17.4746 353.07 17.4746C352.849 17.4746 352.664 17.5179 352.516 17.6045C352.37 17.6888 352.261 17.8073 352.188 17.96C352.115 18.1126 352.079 18.2881 352.079 18.4863H351.446C351.446 18.2061 351.508 17.9497 351.631 17.7173C351.754 17.4849 351.936 17.3003 352.178 17.1636C352.419 17.0246 352.717 16.9551 353.07 16.9551C353.384 16.9551 353.653 17.0109 353.876 17.1226C354.1 17.2319 354.271 17.3869 354.389 17.5874C354.51 17.7856 354.57 18.0181 354.57 18.2847C354.57 18.4305 354.545 18.5786 354.495 18.729C354.447 18.8771 354.38 19.0252 354.293 19.1733C354.209 19.3215 354.11 19.4673 353.996 19.6108C353.884 19.7544 353.765 19.8957 353.637 20.0347L352.304 21.4805H354.799ZM358.737 21.4805V22H355.479V21.5454L357.11 19.7305C357.31 19.5072 357.465 19.318 357.575 19.1631C357.686 19.0059 357.764 18.8657 357.807 18.7427C357.853 18.6174 357.875 18.4897 357.875 18.3599C357.875 18.1958 357.841 18.0477 357.773 17.9155C357.707 17.7811 357.609 17.674 357.479 17.5942C357.349 17.5145 357.192 17.4746 357.007 17.4746C356.786 17.4746 356.602 17.5179 356.454 17.6045C356.308 17.6888 356.198 17.8073 356.125 17.96C356.053 18.1126 356.016 18.2881 356.016 18.4863H355.384C355.384 18.2061 355.445 17.9497 355.568 17.7173C355.691 17.4849 355.874 17.3003 356.115 17.1636C356.357 17.0246 356.654 16.9551 357.007 16.9551C357.322 16.9551 357.591 17.0109 357.814 17.1226C358.037 17.2319 358.208 17.3869 358.327 17.5874C358.447 17.7856 358.508 18.0181 358.508 18.2847C358.508 18.4305 358.483 18.5786 358.433 18.729C358.385 18.8771 358.318 19.0252 358.231 19.1733C358.147 19.3215 358.048 19.4673 357.934 19.6108C357.822 19.7544 357.702 19.8957 357.575 20.0347L356.242 21.4805H358.737Z" fill="#FF634F"/>
<path d="M324.164 45.104C324.932 44.464 325.544 43.932 326 43.508C326.456 43.076 326.836 42.628 327.14 42.164C327.444 41.7 327.596 41.244 327.596 40.796C327.596 40.388 327.5 40.068 327.308 39.836C327.116 39.604 326.82 39.488 326.42 39.488C326.02 39.488 325.712 39.624 325.496 39.896C325.28 40.16 325.168 40.524 325.16 40.988H323.528C323.56 40.028 323.844 39.3 324.38 38.804C324.924 38.308 325.612 38.06 326.444 38.06C327.356 38.06 328.056 38.304 328.544 38.792C329.032 39.272 329.276 39.908 329.276 40.7C329.276 41.324 329.108 41.92 328.772 42.488C328.436 43.056 328.052 43.552 327.62 43.976C327.188 44.392 326.624 44.896 325.928 45.488H329.468V46.88H323.54V45.632L324.164 45.104ZM336.407 39.704H332.519V41.756C332.687 41.548 332.927 41.38 333.239 41.252C333.551 41.116 333.883 41.048 334.235 41.048C334.875 41.048 335.399 41.188 335.807 41.468C336.215 41.748 336.511 42.108 336.695 42.548C336.879 42.98 336.971 43.444 336.971 43.94C336.971 44.86 336.707 45.6 336.179 46.16C335.659 46.72 334.915 47 333.947 47C333.035 47 332.307 46.772 331.763 46.316C331.219 45.86 330.911 45.264 330.839 44.528H332.471C332.543 44.848 332.703 45.104 332.951 45.296C333.207 45.488 333.531 45.584 333.923 45.584C334.395 45.584 334.751 45.436 334.991 45.14C335.231 44.844 335.351 44.452 335.351 43.964C335.351 43.468 335.227 43.092 334.979 42.836C334.739 42.572 334.383 42.44 333.911 42.44C333.575 42.44 333.295 42.524 333.071 42.692C332.847 42.86 332.687 43.084 332.591 43.364H330.983V38.228H336.407V39.704ZM338.249 42.512C338.249 41.128 338.497 40.044 338.993 39.26C339.497 38.476 340.329 38.084 341.489 38.084C342.649 38.084 343.477 38.476 343.973 39.26C344.477 40.044 344.729 41.128 344.729 42.512C344.729 43.904 344.477 44.996 343.973 45.788C343.477 46.58 342.649 46.976 341.489 46.976C340.329 46.976 339.497 46.58 338.993 45.788C338.497 44.996 338.249 43.904 338.249 42.512ZM343.073 42.512C343.073 41.92 343.033 41.424 342.953 41.024C342.881 40.616 342.729 40.284 342.497 40.028C342.273 39.772 341.937 39.644 341.489 39.644C341.041 39.644 340.701 39.772 340.469 40.028C340.245 40.284 340.093 40.616 340.013 41.024C339.941 41.424 339.905 41.92 339.905 42.512C339.905 43.12 339.941 43.632 340.013 44.048C340.085 44.456 340.237 44.788 340.469 45.044C340.701 45.292 341.041 45.416 341.489 45.416C341.937 45.416 342.277 45.292 342.509 45.044C342.741 44.788 342.893 44.456 342.965 44.048C343.037 43.632 343.073 43.12 343.073 42.512ZM346.007 42.512C346.007 41.128 346.255 40.044 346.751 39.26C347.255 38.476 348.087 38.084 349.247 38.084C350.407 38.084 351.235 38.476 351.731 39.26C352.235 40.044 352.487 41.128 352.487 42.512C352.487 43.904 352.235 44.996 351.731 45.788C351.235 46.58 350.407 46.976 349.247 46.976C348.087 46.976 347.255 46.58 346.751 45.788C346.255 44.996 346.007 43.904 346.007 42.512ZM350.831 42.512C350.831 41.92 350.791 41.424 350.711 41.024C350.639 40.616 350.487 40.284 350.255 40.028C350.031 39.772 349.695 39.644 349.247 39.644C348.799 39.644 348.459 39.772 348.227 40.028C348.003 40.284 347.851 40.616 347.771 41.024C347.699 41.424 347.663 41.92 347.663 42.512C347.663 43.12 347.699 43.632 347.771 44.048C347.843 44.456 347.995 44.788 348.227 45.044C348.459 45.292 348.799 45.416 349.247 45.416C349.695 45.416 350.035 45.292 350.267 45.044C350.499 44.788 350.651 44.456 350.723 44.048C350.795 43.632 350.831 43.12 350.831 42.512ZM359.657 38.624V39.98H357.425V47H355.745V39.98H353.513V38.624H359.657ZM365.611 47L362.563 43.268V47H360.883V38.624H362.563V42.38L365.611 38.624H367.639L364.183 42.776L367.735 47H365.611Z" fill="#4274FF"/>
<path d="M72.776 19.624V28H71.096V24.436H67.508V28H65.828V19.624H67.508V23.068H71.096V19.624H72.776ZM78.7496 28L76.9016 24.736H76.1096V28H74.4296V19.624H77.5736C78.2216 19.624 78.7736 19.74 79.2296 19.972C79.6856 20.196 80.0256 20.504 80.2496 20.896C80.4816 21.28 80.5976 21.712 80.5976 22.192C80.5976 22.744 80.4376 23.244 80.1176 23.692C79.7976 24.132 79.3216 24.436 78.6896 24.604L80.6936 28H78.7496ZM76.1096 23.476H77.5136C77.9696 23.476 78.3096 23.368 78.5336 23.152C78.7576 22.928 78.8696 22.62 78.8696 22.228C78.8696 21.844 78.7576 21.548 78.5336 21.34C78.3096 21.124 77.9696 21.016 77.5136 21.016H76.1096V23.476ZM91.9244 19.624V28H90.2444V24.436H86.6564V28H84.9764V19.624H86.6564V23.068H90.2444V19.624H91.9244ZM94.43 20.56C94.134 20.56 93.886 20.468 93.686 20.284C93.494 20.092 93.398 19.856 93.398 19.576C93.398 19.296 93.494 19.064 93.686 18.88C93.886 18.688 94.134 18.592 94.43 18.592C94.726 18.592 94.97 18.688 95.162 18.88C95.362 19.064 95.462 19.296 95.462 19.576C95.462 19.856 95.362 20.092 95.162 20.284C94.97 20.468 94.726 20.56 94.43 20.56ZM95.258 21.352V28H93.578V21.352H95.258ZM99.5218 21.244C100.018 21.244 100.454 21.344 100.83 21.544C101.206 21.736 101.502 21.988 101.718 22.3V21.352H103.41V28.048C103.41 28.664 103.286 29.212 103.038 29.692C102.79 30.18 102.418 30.564 101.922 30.844C101.426 31.132 100.826 31.276 100.122 31.276C99.1778 31.276 98.4018 31.056 97.7938 30.616C97.1938 30.176 96.8538 29.576 96.7738 28.816H98.4418C98.5298 29.12 98.7178 29.36 99.0058 29.536C99.3018 29.72 99.6578 29.812 100.074 29.812C100.562 29.812 100.958 29.664 101.262 29.368C101.566 29.08 101.718 28.64 101.718 28.048V27.016C101.502 27.328 101.202 27.588 100.818 27.796C100.442 28.004 100.01 28.108 99.5218 28.108C98.9618 28.108 98.4498 27.964 97.9858 27.676C97.5218 27.388 97.1538 26.984 96.8818 26.464C96.6178 25.936 96.4858 25.332 96.4858 24.652C96.4858 23.98 96.6178 23.384 96.8818 22.864C97.1538 22.344 97.5178 21.944 97.9738 21.664C98.4378 21.384 98.9538 21.244 99.5218 21.244ZM101.718 24.676C101.718 24.268 101.638 23.92 101.478 23.632C101.318 23.336 101.102 23.112 100.83 22.96C100.558 22.8 100.266 22.72 99.9538 22.72C99.6418 22.72 99.3538 22.796 99.0898 22.948C98.8258 23.1 98.6098 23.324 98.4418 23.62C98.2818 23.908 98.2018 24.252 98.2018 24.652C98.2018 25.052 98.2818 25.404 98.4418 25.708C98.6098 26.004 98.8258 26.232 99.0898 26.392C99.3618 26.552 99.6498 26.632 99.9538 26.632C100.266 26.632 100.558 26.556 100.83 26.404C101.102 26.244 101.318 26.02 101.478 25.732C101.638 25.436 101.718 25.084 101.718 24.676ZM108.795 21.256C109.299 21.256 109.747 21.368 110.139 21.592C110.531 21.808 110.835 22.132 111.051 22.564C111.275 22.988 111.387 23.5 111.387 24.1V28H109.707V24.328C109.707 23.8 109.575 23.396 109.311 23.116C109.047 22.828 108.687 22.684 108.231 22.684C107.767 22.684 107.399 22.828 107.127 23.116C106.863 23.396 106.731 23.8 106.731 24.328V28H105.051V19.12H106.731V22.18C106.947 21.892 107.235 21.668 107.595 21.508C107.955 21.34 108.355 21.256 108.795 21.256ZM122.2 21.352L120.256 28H118.444L117.232 23.356L116.02 28H114.196L112.24 21.352H113.944L115.12 26.416L116.392 21.352H118.168L119.416 26.404L120.592 21.352H122.2ZM122.677 24.652C122.677 23.98 122.809 23.384 123.073 22.864C123.345 22.344 123.709 21.944 124.165 21.664C124.629 21.384 125.145 21.244 125.713 21.244C126.209 21.244 126.641 21.344 127.009 21.544C127.385 21.744 127.685 21.996 127.909 22.3V21.352H129.601V28H127.909V27.028C127.693 27.34 127.393 27.6 127.009 27.808C126.633 28.008 126.197 28.108 125.701 28.108C125.141 28.108 124.629 27.964 124.165 27.676C123.709 27.388 123.345 26.984 123.073 26.464C122.809 25.936 122.677 25.332 122.677 24.652ZM127.909 24.676C127.909 24.268 127.829 23.92 127.669 23.632C127.509 23.336 127.293 23.112 127.021 22.96C126.749 22.8 126.457 22.72 126.145 22.72C125.833 22.72 125.545 22.796 125.281 22.948C125.017 23.1 124.801 23.324 124.633 23.62C124.473 23.908 124.393 24.252 124.393 24.652C124.393 25.052 124.473 25.404 124.633 25.708C124.801 26.004 125.017 26.232 125.281 26.392C125.553 26.552 125.841 26.632 126.145 26.632C126.457 26.632 126.749 26.556 127.021 26.404C127.293 26.244 127.509 26.02 127.669 25.732C127.829 25.436 127.909 25.084 127.909 24.676ZM137.602 21.352L133.486 31.144H131.698L133.138 27.832L130.474 21.352H132.358L134.074 25.996L135.814 21.352H137.602ZM143.047 26.668H145.807V28H141.367V19.624H143.047V26.668ZM152.575 19.624V20.98H150.343V28H148.663V20.98H146.431V19.624H152.575ZM156.729 19.624C157.609 19.624 158.381 19.796 159.045 20.14C159.717 20.484 160.233 20.976 160.593 21.616C160.961 22.248 161.145 22.984 161.145 23.824C161.145 24.664 160.961 25.4 160.593 26.032C160.233 26.656 159.717 27.14 159.045 27.484C158.381 27.828 157.609 28 156.729 28H153.801V19.624H156.729ZM156.669 26.572C157.549 26.572 158.229 26.332 158.709 25.852C159.189 25.372 159.429 24.696 159.429 23.824C159.429 22.952 159.189 22.272 158.709 21.784C158.229 21.288 157.549 21.04 156.669 21.04H155.481V26.572H156.669Z" fill="#4274FF"/>
<path d="M70.06 38.03V38.77H68.16V45H67.25V38.77H65.34V38.03H70.06ZM76.1802 42.05C76.1802 42.2233 76.1702 42.4067 76.1502 42.6H71.7702C71.8035 43.14 71.9868 43.5633 72.3202 43.87C72.6602 44.17 73.0702 44.32 73.5502 44.32C73.9435 44.32 74.2702 44.23 74.5302 44.05C74.7968 43.8633 74.9835 43.6167 75.0902 43.31H76.0702C75.9235 43.8367 75.6302 44.2667 75.1902 44.6C74.7502 44.9267 74.2035 45.09 73.5502 45.09C73.0302 45.09 72.5635 44.9733 72.1502 44.74C71.7435 44.5067 71.4235 44.1767 71.1902 43.75C70.9568 43.3167 70.8402 42.8167 70.8402 42.25C70.8402 41.6833 70.9535 41.1867 71.1802 40.76C71.4068 40.3333 71.7235 40.0067 72.1302 39.78C72.5435 39.5467 73.0168 39.43 73.5502 39.43C74.0702 39.43 74.5302 39.5433 74.9302 39.77C75.3302 39.9967 75.6368 40.31 75.8502 40.71C76.0702 41.1033 76.1802 41.55 76.1802 42.05ZM75.2402 41.86C75.2402 41.5133 75.1635 41.2167 75.0102 40.97C74.8568 40.7167 74.6468 40.5267 74.3802 40.4C74.1202 40.2667 73.8302 40.2 73.5102 40.2C73.0502 40.2 72.6568 40.3467 72.3302 40.64C72.0102 40.9333 71.8268 41.34 71.7802 41.86H75.2402ZM78.2913 40.41C78.4513 40.0967 78.678 39.8533 78.9713 39.68C79.2713 39.5067 79.6347 39.42 80.0613 39.42V40.36H79.8213C78.8013 40.36 78.2913 40.9133 78.2913 42.02V45H77.3813V39.52H78.2913V40.41ZM87.7018 39.42C88.1285 39.42 88.5085 39.51 88.8418 39.69C89.1751 39.8633 89.4385 40.1267 89.6318 40.48C89.8251 40.8333 89.9218 41.2633 89.9218 41.77V45H89.0218V41.9C89.0218 41.3533 88.8851 40.9367 88.6118 40.65C88.3451 40.3567 87.9818 40.21 87.5218 40.21C87.0485 40.21 86.6718 40.3633 86.3918 40.67C86.1118 40.97 85.9718 41.4067 85.9718 41.98V45H85.0718V41.9C85.0718 41.3533 84.9351 40.9367 84.6618 40.65C84.3951 40.3567 84.0318 40.21 83.5718 40.21C83.0985 40.21 82.7218 40.3633 82.4418 40.67C82.1618 40.97 82.0218 41.4067 82.0218 41.98V45H81.1118V39.52H82.0218V40.31C82.2018 40.0233 82.4418 39.8033 82.7418 39.65C83.0485 39.4967 83.3851 39.42 83.7518 39.42C84.2118 39.42 84.6185 39.5233 84.9718 39.73C85.3251 39.9367 85.5885 40.24 85.7618 40.64C85.9151 40.2533 86.1685 39.9533 86.5218 39.74C86.8751 39.5267 87.2685 39.42 87.7018 39.42ZM91.8845 38.63C91.7112 38.63 91.5645 38.57 91.4445 38.45C91.3245 38.33 91.2645 38.1833 91.2645 38.01C91.2645 37.8367 91.3245 37.69 91.4445 37.57C91.5645 37.45 91.7112 37.39 91.8845 37.39C92.0512 37.39 92.1912 37.45 92.3045 37.57C92.4245 37.69 92.4845 37.8367 92.4845 38.01C92.4845 38.1833 92.4245 38.33 92.3045 38.45C92.1912 38.57 92.0512 38.63 91.8845 38.63ZM92.3245 39.52V45H91.4145V39.52H92.3245ZM96.5455 39.42C97.2121 39.42 97.7521 39.6233 98.1655 40.03C98.5788 40.43 98.7855 41.01 98.7855 41.77V45H97.8855V41.9C97.8855 41.3533 97.7488 40.9367 97.4755 40.65C97.2021 40.3567 96.8288 40.21 96.3555 40.21C95.8755 40.21 95.4921 40.36 95.2055 40.66C94.9255 40.96 94.7855 41.3967 94.7855 41.97V45H93.8755V39.52H94.7855V40.3C94.9655 40.02 95.2088 39.8033 95.5155 39.65C95.8288 39.4967 96.1721 39.42 96.5455 39.42ZM99.932 42.24C99.932 41.68 100.045 41.19 100.272 40.77C100.499 40.3433 100.809 40.0133 101.202 39.78C101.602 39.5467 102.045 39.43 102.532 39.43C103.012 39.43 103.429 39.5333 103.782 39.74C104.135 39.9467 104.399 40.2067 104.572 40.52V39.52H105.492V45H104.572V43.98C104.392 44.3 104.122 44.5667 103.762 44.78C103.409 44.9867 102.995 45.09 102.522 45.09C102.035 45.09 101.595 44.97 101.202 44.73C100.809 44.49 100.499 44.1533 100.272 43.72C100.045 43.2867 99.932 42.7933 99.932 42.24ZM104.572 42.25C104.572 41.8367 104.489 41.4767 104.322 41.17C104.155 40.8633 103.929 40.63 103.642 40.47C103.362 40.3033 103.052 40.22 102.712 40.22C102.372 40.22 102.062 40.3 101.782 40.46C101.502 40.62 101.279 40.8533 101.112 41.16C100.945 41.4667 100.862 41.8267 100.862 42.24C100.862 42.66 100.945 43.0267 101.112 43.34C101.279 43.6467 101.502 43.8833 101.782 44.05C102.062 44.21 102.372 44.29 102.712 44.29C103.052 44.29 103.362 44.21 103.642 44.05C103.929 43.8833 104.155 43.6467 104.322 43.34C104.489 43.0267 104.572 42.6633 104.572 42.25ZM107.94 37.6V45H107.03V37.6H107.94ZM114.497 46.86C113.857 46.2333 113.357 45.4367 112.997 44.47C112.643 43.5033 112.467 42.46 112.467 41.34C112.467 40.1933 112.653 39.1233 113.027 38.13C113.407 37.13 113.947 36.3067 114.647 35.66H115.597V35.75C114.85 36.45 114.287 37.2933 113.907 38.28C113.533 39.26 113.347 40.28 113.347 41.34C113.347 42.3733 113.523 43.36 113.877 44.3C114.237 45.24 114.76 46.0633 115.447 46.77V46.86H114.497ZM120.818 43.45H117.778L117.218 45H116.258L118.778 38.07H119.828L122.338 45H121.378L120.818 43.45ZM120.558 42.71L119.298 39.19L118.038 42.71H120.558ZM123.146 46.86V46.77C123.833 46.0633 124.353 45.24 124.706 44.3C125.066 43.36 125.246 42.3733 125.246 41.34C125.246 40.28 125.056 39.26 124.676 38.28C124.303 37.2933 123.743 36.45 122.996 35.75V35.66H123.946C124.646 36.3067 125.183 37.13 125.556 38.13C125.936 39.1233 126.126 40.1933 126.126 41.34C126.126 42.46 125.946 43.5033 125.586 44.47C125.233 45.4367 124.736 46.2333 124.096 46.86H123.146Z" fill="#656567"/>
<path d="M22.6514 82.3359V93H21.2378V82.3359H22.6514ZM27.1191 87.1333V88.2905H22.3438V87.1333H27.1191ZM27.8442 82.3359V83.4932H22.3438V82.3359H27.8442ZM30.4883 86.3203V93H29.1333V85.0752H30.4517L30.4883 86.3203ZM32.9639 85.0312L32.9565 86.291C32.8442 86.2666 32.7368 86.252 32.6343 86.2471C32.5366 86.2373 32.4243 86.2324 32.2974 86.2324C31.9849 86.2324 31.709 86.2812 31.4697 86.3789C31.2305 86.4766 31.0278 86.6133 30.8618 86.7891C30.6958 86.9648 30.564 87.1748 30.4663 87.4189C30.3735 87.6582 30.3125 87.9219 30.2832 88.21L29.9023 88.4297C29.9023 87.9512 29.9487 87.502 30.0415 87.082C30.1392 86.6621 30.2881 86.291 30.4883 85.9688C30.6885 85.6416 30.9424 85.3877 31.25 85.207C31.5625 85.0215 31.9336 84.9287 32.3633 84.9287C32.4609 84.9287 32.5732 84.9409 32.7002 84.9653C32.8271 84.9849 32.915 85.0068 32.9639 85.0312ZM33.7109 89.1255V88.957C33.7109 88.3857 33.7939 87.856 33.96 87.3677C34.126 86.8745 34.3652 86.4473 34.6777 86.0859C34.9902 85.7197 35.3687 85.4365 35.813 85.2363C36.2573 85.0312 36.7554 84.9287 37.3071 84.9287C37.8638 84.9287 38.3643 85.0312 38.8086 85.2363C39.2578 85.4365 39.6387 85.7197 39.9512 86.0859C40.2686 86.4473 40.5103 86.8745 40.6763 87.3677C40.8423 87.856 40.9253 88.3857 40.9253 88.957V89.1255C40.9253 89.6968 40.8423 90.2266 40.6763 90.7148C40.5103 91.2031 40.2686 91.6304 39.9512 91.9966C39.6387 92.3579 39.2603 92.6411 38.8159 92.8462C38.3765 93.0464 37.8784 93.1465 37.3218 93.1465C36.7651 93.1465 36.2646 93.0464 35.8203 92.8462C35.376 92.6411 34.9951 92.3579 34.6777 91.9966C34.3652 91.6304 34.126 91.2031 33.96 90.7148C33.7939 90.2266 33.7109 89.6968 33.7109 89.1255ZM35.0659 88.957V89.1255C35.0659 89.521 35.1123 89.8945 35.2051 90.2461C35.2979 90.5928 35.437 90.9004 35.6226 91.1689C35.813 91.4375 36.0498 91.6499 36.333 91.8062C36.6162 91.9575 36.9458 92.0332 37.3218 92.0332C37.6929 92.0332 38.0176 91.9575 38.2959 91.8062C38.5791 91.6499 38.8135 91.4375 38.999 91.1689C39.1846 90.9004 39.3237 90.5928 39.4165 90.2461C39.5142 89.8945 39.563 89.521 39.563 89.1255V88.957C39.563 88.5664 39.5142 88.1978 39.4165 87.8511C39.3237 87.4995 39.1821 87.1895 38.9917 86.9209C38.8062 86.6475 38.5718 86.4326 38.2886 86.2764C38.0103 86.1201 37.6831 86.042 37.3071 86.042C36.936 86.042 36.6089 86.1201 36.3257 86.2764C36.0474 86.4326 35.813 86.6475 35.6226 86.9209C35.437 87.1895 35.2979 87.4995 35.2051 87.8511C35.1123 88.1978 35.0659 88.5664 35.0659 88.957ZM43.9722 86.6499V93H42.6099V85.0752H43.8989L43.9722 86.6499ZM43.6938 88.7373L43.064 88.7153C43.0688 88.1733 43.1396 87.6729 43.2764 87.2139C43.4131 86.75 43.6157 86.3472 43.8843 86.0054C44.1528 85.6636 44.4873 85.3999 44.8877 85.2144C45.2881 85.0239 45.752 84.9287 46.2793 84.9287C46.6504 84.9287 46.9922 84.9824 47.3047 85.0898C47.6172 85.1924 47.8882 85.356 48.1177 85.5806C48.3472 85.8052 48.5254 86.0933 48.6523 86.4448C48.7793 86.7964 48.8428 87.2212 48.8428 87.7192V93H47.4878V87.7852C47.4878 87.3701 47.417 87.0381 47.2754 86.7891C47.1387 86.54 46.9434 86.3594 46.6895 86.2471C46.4355 86.1299 46.1377 86.0713 45.7959 86.0713C45.3955 86.0713 45.061 86.1421 44.7925 86.2837C44.5239 86.4253 44.3091 86.6206 44.1479 86.8696C43.9868 87.1187 43.8696 87.4043 43.7964 87.7266C43.728 88.0439 43.6938 88.3809 43.6938 88.7373ZM48.8281 87.9902L47.9199 88.2686C47.9248 87.834 47.9956 87.4165 48.1323 87.0161C48.2739 86.6157 48.4766 86.2593 48.7402 85.9468C49.0088 85.6343 49.3384 85.3877 49.729 85.207C50.1196 85.0215 50.5664 84.9287 51.0693 84.9287C51.4941 84.9287 51.8701 84.9849 52.1973 85.0972C52.5293 85.2095 52.8076 85.3828 53.0322 85.6172C53.2617 85.8467 53.4351 86.1421 53.5522 86.5034C53.6694 86.8647 53.728 87.2944 53.728 87.7925V93H52.3657V87.7778C52.3657 87.3335 52.2949 86.9893 52.1533 86.7451C52.0166 86.4961 51.8213 86.3228 51.5674 86.2251C51.3184 86.1226 51.0205 86.0713 50.6738 86.0713C50.376 86.0713 50.1123 86.1226 49.8828 86.2251C49.6533 86.3276 49.4604 86.4692 49.3042 86.6499C49.1479 86.8257 49.0283 87.0283 48.9453 87.2578C48.8672 87.4873 48.8281 87.7314 48.8281 87.9902Z" fill="black"/>
<path d="M32.105 101.575V112H30.395V104.86L27.215 112H26.03L22.835 104.86V112H21.125V101.575H22.97L26.63 109.75L30.275 101.575H32.105ZM37.9375 112.135C37.1575 112.135 36.4525 111.96 35.8225 111.61C35.1925 111.25 34.6975 110.75 34.3375 110.11C33.9775 109.46 33.7975 108.71 33.7975 107.86C33.7975 107.02 33.9825 106.275 34.3525 105.625C34.7225 104.975 35.2275 104.475 35.8675 104.125C36.5075 103.775 37.2225 103.6 38.0125 103.6C38.8025 103.6 39.5175 103.775 40.1575 104.125C40.7975 104.475 41.3025 104.975 41.6725 105.625C42.0425 106.275 42.2275 107.02 42.2275 107.86C42.2275 108.7 42.0375 109.445 41.6575 110.095C41.2775 110.745 40.7575 111.25 40.0975 111.61C39.4475 111.96 38.7275 112.135 37.9375 112.135ZM37.9375 110.65C38.3775 110.65 38.7875 110.545 39.1675 110.335C39.5575 110.125 39.8725 109.81 40.1125 109.39C40.3525 108.97 40.4725 108.46 40.4725 107.86C40.4725 107.26 40.3575 106.755 40.1275 106.345C39.8975 105.925 39.5925 105.61 39.2125 105.4C38.8325 105.19 38.4225 105.085 37.9825 105.085C37.5425 105.085 37.1325 105.19 36.7525 105.4C36.3825 105.61 36.0875 105.925 35.8675 106.345C35.6475 106.755 35.5375 107.26 35.5375 107.86C35.5375 108.75 35.7625 109.44 36.2125 109.93C36.6725 110.41 37.2475 110.65 37.9375 110.65ZM48.088 103.6C48.738 103.6 49.318 103.735 49.828 104.005C50.348 104.275 50.753 104.675 51.043 105.205C51.333 105.735 51.478 106.375 51.478 107.125V112H49.783V107.38C49.783 106.64 49.598 106.075 49.228 105.685C48.858 105.285 48.353 105.085 47.713 105.085C47.073 105.085 46.563 105.285 46.183 105.685C45.813 106.075 45.628 106.64 45.628 107.38V112H43.918V103.735H45.628V104.68C45.908 104.34 46.263 104.075 46.693 103.885C47.133 103.695 47.598 103.6 48.088 103.6ZM54.5292 102.64C54.2192 102.64 53.9592 102.535 53.7492 102.325C53.5392 102.115 53.4342 101.855 53.4342 101.545C53.4342 101.235 53.5392 100.975 53.7492 100.765C53.9592 100.555 54.2192 100.45 54.5292 100.45C54.8292 100.45 55.0842 100.555 55.2942 100.765C55.5042 100.975 55.6092 101.235 55.6092 101.545C55.6092 101.855 55.5042 102.115 55.2942 102.325C55.0842 102.535 54.8292 102.64 54.5292 102.64ZM55.3692 103.735V112H53.6592V103.735H55.3692ZM59.3243 104.95C59.6143 104.57 60.0093 104.25 60.5093 103.99C61.0093 103.73 61.5743 103.6 62.2043 103.6C62.9243 103.6 63.5793 103.78 64.1693 104.14C64.7693 104.49 65.2393 104.985 65.5793 105.625C65.9193 106.265 66.0893 107 66.0893 107.83C66.0893 108.66 65.9193 109.405 65.5793 110.065C65.2393 110.715 64.7693 111.225 64.1693 111.595C63.5793 111.955 62.9243 112.135 62.2043 112.135C61.5743 112.135 61.0143 112.01 60.5243 111.76C60.0343 111.5 59.6343 111.18 59.3243 110.8V115.93H57.6143V103.735H59.3243V104.95ZM64.3493 107.83C64.3493 107.26 64.2293 106.77 63.9893 106.36C63.7593 105.94 63.4493 105.625 63.0593 105.415C62.6793 105.195 62.2693 105.085 61.8293 105.085C61.3993 105.085 60.9893 105.195 60.5993 105.415C60.2193 105.635 59.9093 105.955 59.6693 106.375C59.4393 106.795 59.3243 107.29 59.3243 107.86C59.3243 108.43 59.4393 108.93 59.6693 109.36C59.9093 109.78 60.2193 110.1 60.5993 110.32C60.9893 110.54 61.3993 110.65 61.8293 110.65C62.2693 110.65 62.6793 110.54 63.0593 110.32C63.4493 110.09 63.7593 109.76 63.9893 109.33C64.2293 108.9 64.3493 108.4 64.3493 107.83ZM75.2653 103.735V112H73.5553V111.025C73.2853 111.365 72.9303 111.635 72.4903 111.835C72.0603 112.025 71.6003 112.12 71.1103 112.12C70.4603 112.12 69.8753 111.985 69.3553 111.715C68.8453 111.445 68.4403 111.045 68.1403 110.515C67.8503 109.985 67.7053 109.345 67.7053 108.595V103.735H69.4003V108.34C69.4003 109.08 69.5853 109.65 69.9553 110.05C70.3253 110.44 70.8303 110.635 71.4703 110.635C72.1103 110.635 72.6153 110.44 72.9853 110.05C73.3653 109.65 73.5553 109.08 73.5553 108.34V103.735H75.2653ZM79.2315 104.935C79.4815 104.515 79.8115 104.19 80.2215 103.96C80.6415 103.72 81.1365 103.6 81.7065 103.6V105.37H81.2715C80.6015 105.37 80.0915 105.54 79.7415 105.88C79.4015 106.22 79.2315 106.81 79.2315 107.65V112H77.5215V103.735H79.2315V104.935Z" fill="black"/>
<path d="M311.69 112H309.98L304.835 104.215V112H303.125V101.56H304.835L309.98 109.33V101.56H311.69V112ZM317.521 112.135C316.741 112.135 316.036 111.96 315.406 111.61C314.776 111.25 314.281 110.75 313.921 110.11C313.561 109.46 313.381 108.71 313.381 107.86C313.381 107.02 313.566 106.275 313.936 105.625C314.306 104.975 314.811 104.475 315.451 104.125C316.091 103.775 316.806 103.6 317.596 103.6C318.386 103.6 319.101 103.775 319.741 104.125C320.381 104.475 320.886 104.975 321.256 105.625C321.626 106.275 321.811 107.02 321.811 107.86C321.811 108.7 321.621 109.445 321.241 110.095C320.861 110.745 320.341 111.25 319.681 111.61C319.031 111.96 318.311 112.135 317.521 112.135ZM317.521 110.65C317.961 110.65 318.371 110.545 318.751 110.335C319.141 110.125 319.456 109.81 319.696 109.39C319.936 108.97 320.056 108.46 320.056 107.86C320.056 107.26 319.941 106.755 319.711 106.345C319.481 105.925 319.176 105.61 318.796 105.4C318.416 105.19 318.006 105.085 317.566 105.085C317.126 105.085 316.716 105.19 316.336 105.4C315.966 105.61 315.671 105.925 315.451 106.345C315.231 106.755 315.121 107.26 315.121 107.86C315.121 108.75 315.346 109.44 315.796 109.93C316.256 110.41 316.831 110.65 317.521 110.65ZM322.931 107.83C322.931 107 323.101 106.265 323.441 105.625C323.791 104.985 324.261 104.49 324.851 104.14C325.451 103.78 326.111 103.6 326.831 103.6C327.481 103.6 328.046 103.73 328.526 103.99C329.016 104.24 329.406 104.555 329.696 104.935V103.735H331.421V112H329.696V110.77C329.406 111.16 329.011 111.485 328.511 111.745C328.011 112.005 327.441 112.135 326.801 112.135C326.091 112.135 325.441 111.955 324.851 111.595C324.261 111.225 323.791 110.715 323.441 110.065C323.101 109.405 322.931 108.66 322.931 107.83ZM329.696 107.86C329.696 107.29 329.576 106.795 329.336 106.375C329.106 105.955 328.801 105.635 328.421 105.415C328.041 105.195 327.631 105.085 327.191 105.085C326.751 105.085 326.341 105.195 325.961 105.415C325.581 105.625 325.271 105.94 325.031 106.36C324.801 106.77 324.686 107.26 324.686 107.83C324.686 108.4 324.801 108.9 325.031 109.33C325.271 109.76 325.581 110.09 325.961 110.32C326.351 110.54 326.761 110.65 327.191 110.65C327.631 110.65 328.041 110.54 328.421 110.32C328.801 110.1 329.106 109.78 329.336 109.36C329.576 108.93 329.696 108.43 329.696 107.86ZM336.937 107.875L340.747 112H338.437L335.377 108.445V112H333.667V100.9H335.377V107.35L338.377 103.735H340.747L336.937 107.875ZM346.248 103.6C346.878 103.6 347.438 103.735 347.928 104.005C348.428 104.275 348.818 104.675 349.098 105.205C349.388 105.735 349.533 106.375 349.533 107.125V112H347.838V107.38C347.838 106.64 347.653 106.075 347.283 105.685C346.913 105.285 346.408 105.085 345.768 105.085C345.128 105.085 344.618 105.285 344.238 105.685C343.868 106.075 343.683 106.64 343.683 107.38V112H341.973V100.9H343.683V104.695C343.973 104.345 344.338 104.075 344.778 103.885C345.228 103.695 345.718 103.6 346.248 103.6ZM351.144 107.83C351.144 107 351.314 106.265 351.654 105.625C352.004 104.985 352.474 104.49 353.064 104.14C353.664 103.78 354.324 103.6 355.044 103.6C355.694 103.6 356.259 103.73 356.739 103.99C357.229 104.24 357.619 104.555 357.909 104.935V103.735H359.634V112H357.909V110.77C357.619 111.16 357.224 111.485 356.724 111.745C356.224 112.005 355.654 112.135 355.014 112.135C354.304 112.135 353.654 111.955 353.064 111.595C352.474 111.225 352.004 110.715 351.654 110.065C351.314 109.405 351.144 108.66 351.144 107.83ZM357.909 107.86C357.909 107.29 357.789 106.795 357.549 106.375C357.319 105.955 357.014 105.635 356.634 105.415C356.254 105.195 355.844 105.085 355.404 105.085C354.964 105.085 354.554 105.195 354.174 105.415C353.794 105.625 353.484 105.94 353.244 106.36C353.014 106.77 352.899 107.26 352.899 107.83C352.899 108.4 353.014 108.9 353.244 109.33C353.484 109.76 353.794 110.09 354.174 110.32C354.564 110.54 354.974 110.65 355.404 110.65C355.844 110.65 356.254 110.54 356.634 110.32C357.014 110.1 357.319 109.78 357.549 109.36C357.789 108.93 357.909 108.43 357.909 107.86ZM363.59 100.9V112H361.88V100.9H363.59ZM366.705 102.64C366.395 102.64 366.135 102.535 365.925 102.325C365.715 102.115 365.61 101.855 365.61 101.545C365.61 101.235 365.715 100.975 365.925 100.765C366.135 100.555 366.395 100.45 366.705 100.45C367.005 100.45 367.26 100.555 367.47 100.765C367.68 100.975 367.785 101.235 367.785 101.545C367.785 101.855 367.68 102.115 367.47 102.325C367.26 102.535 367.005 102.64 366.705 102.64ZM367.545 103.735V112H365.835V103.735H367.545Z" fill="black"/>
<path d="M351.178 82.3359V93H349.787V82.3359H351.178ZM354.606 82.3359V83.4932H346.366V82.3359H354.606ZM354.892 89.1255V88.957C354.892 88.3857 354.975 87.856 355.141 87.3677C355.307 86.8745 355.546 86.4473 355.858 86.0859C356.171 85.7197 356.549 85.4365 356.994 85.2363C357.438 85.0312 357.936 84.9287 358.488 84.9287C359.044 84.9287 359.545 85.0312 359.989 85.2363C360.438 85.4365 360.819 85.7197 361.132 86.0859C361.449 86.4473 361.691 86.8745 361.857 87.3677C362.023 87.856 362.106 88.3857 362.106 88.957V89.1255C362.106 89.6968 362.023 90.2266 361.857 90.7148C361.691 91.2031 361.449 91.6304 361.132 91.9966C360.819 92.3579 360.441 92.6411 359.997 92.8462C359.557 93.0464 359.059 93.1465 358.502 93.1465C357.946 93.1465 357.445 93.0464 357.001 92.8462C356.557 92.6411 356.176 92.3579 355.858 91.9966C355.546 91.6304 355.307 91.2031 355.141 90.7148C354.975 90.2266 354.892 89.6968 354.892 89.1255ZM356.247 88.957V89.1255C356.247 89.521 356.293 89.8945 356.386 90.2461C356.479 90.5928 356.618 90.9004 356.803 91.1689C356.994 91.4375 357.23 91.6499 357.514 91.8062C357.797 91.9575 358.126 92.0332 358.502 92.0332C358.874 92.0332 359.198 91.9575 359.477 91.8062C359.76 91.6499 359.994 91.4375 360.18 91.1689C360.365 90.9004 360.504 90.5928 360.597 90.2461C360.695 89.8945 360.744 89.521 360.744 89.1255V88.957C360.744 88.5664 360.695 88.1978 360.597 87.8511C360.504 87.4995 360.363 87.1895 360.172 86.9209C359.987 86.6475 359.752 86.4326 359.469 86.2764C359.191 86.1201 358.864 86.042 358.488 86.042C358.117 86.042 357.79 86.1201 357.506 86.2764C357.228 86.4326 356.994 86.6475 356.803 86.9209C356.618 87.1895 356.479 87.4995 356.386 87.8511C356.293 88.1978 356.247 88.5664 356.247 88.957Z" fill="black"/>
<path d="M193 103C198.523 103 203 98.5228 203 93C203 87.4772 198.523 83 193 83C187.477 83 183 87.4772 183 93C183 98.5228 187.477 103 193 103Z" stroke="#FF634F" stroke-width="1.5" stroke-linecap="round" stroke-linejoin="round"/>
<path d="M193 97L197 93L193 89" stroke="#FF634F" stroke-width="1.5" stroke-linecap="round" stroke-linejoin="round"/>
<path d="M189 93H197" stroke="#FF634F" stroke-width="1.5" stroke-linecap="round" stroke-linejoin="round"/>
<line x1="4.37114e-08" y1="69.5" x2="388" y2="69.5" stroke="black" stroke-opacity="0.12" stroke-dasharray="5 5"/>
</svg>
