<svg width="388" height="131" viewBox="0 0 388 131" fill="none" xmlns="http://www.w3.org/2000/svg">
<rect width="388" height="131" rx="10" fill="white"/>
<circle cx="35.5" cy="33.5" r="21.5" fill="#FF634F"/>
<path d="M40.909 33.9986C41.0536 33.9986 41.1924 33.9411 41.2947 33.8388C41.397 33.7365 41.4544 33.5978 41.4544 33.4531V32.3622C41.4544 32.2176 41.397 32.0788 41.2947 31.9765C41.1924 31.8742 41.0536 31.8168 40.909 31.8168C40.7643 31.8168 40.6256 31.8742 40.5233 31.9765C40.421 32.0788 40.3635 32.2176 40.3635 32.3622V33.4531C40.3635 33.5978 40.421 33.7365 40.5233 33.8388C40.6256 33.9411 40.7643 33.9986 40.909 33.9986Z" fill="white"/>
<path d="M40.909 37.2714C41.0536 37.2714 41.1924 37.214 41.2947 37.1117C41.397 37.0094 41.4544 36.8706 41.4544 36.726V35.6351C41.4544 35.4904 41.397 35.3517 41.2947 35.2494C41.1924 35.1471 41.0536 35.0896 40.909 35.0896C40.7643 35.0896 40.6256 35.1471 40.5233 35.2494C40.421 35.3517 40.3635 35.4904 40.3635 35.6351V36.726C40.3635 36.8706 40.421 37.0094 40.5233 37.1117C40.6256 37.214 40.7643 37.2714 40.909 37.2714Z" fill="white"/>
<path d="M40.909 40.544C41.0536 40.544 41.1924 40.4865 41.2947 40.3842C41.397 40.2819 41.4544 40.1432 41.4544 39.9985V38.9076C41.4544 38.763 41.397 38.6242 41.2947 38.5219C41.1924 38.4196 41.0536 38.3622 40.909 38.3622C40.7643 38.3622 40.6256 38.4196 40.5233 38.5219C40.421 38.6242 40.3635 38.763 40.3635 38.9076V39.9985C40.3635 40.1432 40.421 40.2819 40.5233 40.3842C40.6256 40.4865 40.7643 40.544 40.909 40.544Z" fill="white"/>
<path d="M47.4545 29.635H47.0945L28.6636 22.0423C28.5974 22.0146 28.5263 22.0002 28.4545 22C28.3827 21.9998 28.3116 22.0138 28.2452 22.0412C28.1788 22.0685 28.1185 22.1087 28.0677 22.1595C28.0169 22.2102 27.9766 22.2705 27.9491 22.3368L26.4982 25.8659C26.4685 25.932 26.4532 26.0035 26.4532 26.0759C26.4532 26.1483 26.4685 26.2199 26.4982 26.2859C26.5535 26.4192 26.6594 26.5251 26.7927 26.5805L27.8182 26.995C28.017 27.0769 28.1978 27.1972 28.3501 27.349C28.5025 27.5009 28.6234 27.6812 28.706 27.8798C28.7885 28.0784 28.8312 28.2913 28.8314 28.5064C28.8316 28.7214 28.7894 28.9344 28.7073 29.1332C28.6243 29.32 28.5079 29.4901 28.3636 29.635H24.5455C24.4008 29.635 24.2621 29.6925 24.1598 29.7948C24.0575 29.8971 24 30.0358 24 30.1805V33.9986C24 34.1433 24.0575 34.282 24.1598 34.3843C24.2621 34.4866 24.4008 34.5441 24.5455 34.5441H25.6364C26.0704 34.5441 26.4866 34.7165 26.7934 35.0234C27.1003 35.3303 27.2727 35.7465 27.2727 36.1805C27.2727 36.6145 27.1003 37.0307 26.7934 37.3375C26.4866 37.6444 26.0704 37.8168 25.6364 37.8168H24.5455C24.4008 37.8168 24.2621 37.8743 24.1598 37.9766C24.0575 38.0789 24 38.2176 24 38.3623V42.1805C24 42.3251 24.0575 42.4639 24.1598 42.5662C24.2621 42.6685 24.4008 42.7259 24.5455 42.7259H47.4545C47.5992 42.7259 47.7379 42.6685 47.8402 42.5662C47.9425 42.4639 48 42.3251 48 42.1805V38.3623C48 38.2176 47.9425 38.0789 47.8402 37.9766C47.7379 37.8743 47.5992 37.8168 47.4545 37.8168H46.3636C45.9296 37.8168 45.5134 37.6444 45.2066 37.3375C44.8997 37.0307 44.7273 36.6145 44.7273 36.1805C44.7273 35.7465 44.8997 35.3303 45.2066 35.0234C45.5134 34.7165 45.9296 34.5441 46.3636 34.5441H47.4545C47.5992 34.5441 47.7379 34.4866 47.8402 34.3843C47.9425 34.282 48 34.1433 48 33.9986V30.1805C48 30.0358 47.9425 29.8971 47.8402 29.7948C47.7379 29.6925 47.5992 29.635 47.4545 29.635ZM28.2164 25.9859L27.7145 25.7786L28.7509 23.2586L44.2309 29.635H29.6564C29.6564 29.6023 29.6891 29.575 29.7 29.5477C29.8366 29.2165 29.9066 28.8615 29.9059 28.5032C29.9053 28.1449 29.8341 27.7902 29.6963 27.4594C29.5585 27.1286 29.3569 26.8282 29.1029 26.5754C28.849 26.3226 28.5477 26.1223 28.2164 25.9859V25.9859ZM46.9091 33.4532H46.3636C45.6403 33.4532 44.9466 33.7405 44.4352 34.252C43.9237 34.7635 43.6364 35.4571 43.6364 36.1805C43.6364 36.9038 43.9237 37.5975 44.4352 38.1089C44.9466 38.6204 45.6403 38.9077 46.3636 38.9077H46.9091V41.635H25.0909V38.9077H25.6364C26.3597 38.9077 27.0534 38.6204 27.5648 38.1089C28.0763 37.5975 28.3636 36.9038 28.3636 36.1805C28.3636 35.4571 28.0763 34.7635 27.5648 34.252C27.0534 33.7405 26.3597 33.4532 25.6364 33.4532H25.0909V30.7259H46.9091V33.4532Z" fill="white"/>
<path d="M31.0909 33.9986H37.6363C37.781 33.9986 37.9197 33.9412 38.022 33.8389C38.1243 33.7366 38.1818 33.5978 38.1818 33.4532C38.1818 33.3085 38.1243 33.1698 38.022 33.0675C37.9197 32.9652 37.781 32.9077 37.6363 32.9077H31.0909C30.9462 32.9077 30.8075 32.9652 30.7052 33.0675C30.6029 33.1698 30.5454 33.3085 30.5454 33.4532C30.5454 33.5978 30.6029 33.7366 30.7052 33.8389C30.8075 33.9412 30.9462 33.9986 31.0909 33.9986V33.9986Z" fill="white"/>
<path d="M31.0909 39.4531H37.6363C37.781 39.4531 37.9197 39.3956 38.022 39.2933C38.1243 39.191 38.1818 39.0523 38.1818 38.9076C38.1818 38.763 38.1243 38.6242 38.022 38.5219C37.9197 38.4196 37.781 38.3622 37.6363 38.3622H31.0909C30.9462 38.3622 30.8075 38.4196 30.7052 38.5219C30.6029 38.6242 30.5454 38.763 30.5454 38.9076C30.5454 39.0523 30.6029 39.191 30.7052 39.2933C30.8075 39.3956 30.9462 39.4531 31.0909 39.4531V39.4531Z" fill="white"/>
<path d="M31.0909 36.7259H37.6363C37.781 36.7259 37.9197 36.6685 38.022 36.5662C38.1243 36.4639 38.1818 36.3251 38.1818 36.1805C38.1818 36.0358 38.1243 35.8971 38.022 35.7948C37.9197 35.6925 37.781 35.635 37.6363 35.635H31.0909C30.9462 35.635 30.8075 35.6925 30.7052 35.7948C30.6029 35.8971 30.5454 36.0358 30.5454 36.1805C30.5454 36.3251 30.6029 36.4639 30.7052 36.5662C30.8075 36.6685 30.9462 36.7259 31.0909 36.7259V36.7259Z" fill="white"/>
<rect x="286" y="12" width="83" height="16.6" rx="8.3" fill="#FFE1DD"/>
<path d="M303.244 21.1881C303.245 21.11 303.228 21.0375 303.194 20.9707C303.161 20.9019 303.093 20.8395 302.988 20.7834C302.885 20.7255 302.73 20.6746 302.521 20.6309C302.346 20.5916 302.187 20.5456 302.046 20.493C301.906 20.4404 301.786 20.3773 301.688 20.3038C301.591 20.2303 301.517 20.1444 301.465 20.046C301.414 19.9477 301.389 19.8331 301.391 19.7023C301.392 19.5773 301.421 19.4595 301.477 19.3489C301.535 19.2383 301.616 19.1407 301.718 19.056C301.823 18.9714 301.948 18.9057 302.093 18.8587C302.238 18.8117 302.399 18.7894 302.577 18.7917C302.831 18.7949 303.047 18.8426 303.226 18.9348C303.404 19.0269 303.54 19.1488 303.634 19.3004C303.728 19.4501 303.774 19.6157 303.771 19.7973L303.229 19.7904C303.231 19.7025 303.205 19.6172 303.154 19.5345C303.104 19.4499 303.03 19.3796 302.931 19.3236C302.834 19.2677 302.714 19.2388 302.571 19.2369C302.421 19.235 302.299 19.2569 302.204 19.3025C302.112 19.3463 302.044 19.403 302 19.4728C301.958 19.5426 301.937 19.6165 301.936 19.6946C301.935 19.7532 301.944 19.8061 301.963 19.8532C301.984 19.8984 302.02 19.9408 302.073 19.9806C302.125 20.0184 302.199 20.0545 302.294 20.0889C302.389 20.1233 302.511 20.1581 302.659 20.1932C302.918 20.2551 303.131 20.3282 303.298 20.4124C303.465 20.4966 303.588 20.5988 303.669 20.7189C303.749 20.8391 303.788 20.9842 303.786 21.1541C303.784 21.2927 303.753 21.4193 303.693 21.5338C303.635 21.6483 303.551 21.7468 303.441 21.8294C303.332 21.91 303.202 21.9728 303.051 22.0178C302.902 22.0608 302.735 22.0811 302.55 22.0787C302.27 22.0751 302.035 22.0223 301.843 21.9202C301.651 21.8181 301.506 21.6873 301.408 21.5278C301.311 21.3684 301.263 21.2007 301.265 21.025L301.81 21.032C301.816 21.1805 301.857 21.2992 301.934 21.3881C302.011 21.475 302.106 21.5378 302.219 21.5764C302.332 21.613 302.444 21.632 302.555 21.6334C302.704 21.6353 302.828 21.6174 302.928 21.5796C303.03 21.5419 303.108 21.4891 303.162 21.4215C303.215 21.3538 303.243 21.276 303.244 21.1881ZM306.435 21.3376L306.467 18.9003L307.012 18.9073L306.971 22.0769L306.452 22.0703L306.435 21.3376ZM306.547 20.671L306.772 20.668C306.769 20.8789 306.744 21.074 306.697 21.253C306.652 21.4302 306.58 21.5836 306.48 21.7132C306.381 21.8428 306.252 21.9437 306.093 22.0158C305.934 22.0861 305.741 22.1197 305.514 22.1168C305.36 22.1148 305.219 22.0905 305.09 22.044C304.964 21.9974 304.855 21.9267 304.765 21.8318C304.674 21.7368 304.605 21.6139 304.556 21.4628C304.509 21.3118 304.487 21.1309 304.489 20.9199L304.516 18.8752L305.058 18.8822L305.031 20.9328C305.029 21.0753 305.044 21.1937 305.074 21.2878C305.106 21.3801 305.149 21.4539 305.203 21.5092C305.259 21.5627 305.321 21.6006 305.389 21.623C305.459 21.6454 305.531 21.657 305.605 21.658C305.835 21.6609 306.019 21.6194 306.155 21.5332C306.29 21.4451 306.389 21.3262 306.449 21.1766C306.512 21.0251 306.544 20.8565 306.547 20.671ZM308.371 19.6016L308.339 22.0945L307.797 22.0876L307.838 18.9179L308.35 18.9245L308.371 19.6016ZM308.232 20.3879L308.006 20.3763C308.011 20.1595 308.046 19.9597 308.111 19.777C308.176 19.5922 308.266 19.4322 308.381 19.297C308.496 19.1617 308.632 19.058 308.789 18.9858C308.948 18.9117 309.124 18.8758 309.315 18.8783C309.471 18.8803 309.611 18.9036 309.736 18.9482C309.86 18.9908 309.966 19.0586 310.053 19.1515C310.141 19.2444 310.208 19.3644 310.253 19.5115C310.298 19.6566 310.319 19.8337 310.317 20.0427L310.29 22.1196L309.745 22.1126L309.772 20.0298C309.774 19.8638 309.751 19.7307 309.704 19.6304C309.656 19.5283 309.586 19.4541 309.493 19.408C309.4 19.3599 309.285 19.335 309.148 19.3332C309.013 19.3315 308.89 19.3582 308.778 19.4134C308.668 19.4687 308.572 19.5456 308.491 19.6441C308.411 19.7427 308.348 19.8562 308.302 19.9845C308.257 20.1109 308.234 20.2454 308.232 20.3879ZM313.119 21.5407L313.169 17.6563L313.714 17.6633L313.656 22.1629L313.158 22.1565L313.119 21.5407ZM310.998 20.5788L310.999 20.5173C311.002 20.2751 311.034 20.0558 311.095 19.8593C311.159 19.6609 311.246 19.4911 311.357 19.3499C311.47 19.2088 311.603 19.1011 311.757 19.0269C311.912 18.9508 312.084 18.9139 312.274 18.9164C312.473 18.9189 312.646 18.9563 312.794 19.0285C312.943 19.0988 313.069 19.201 313.171 19.3351C313.274 19.4674 313.355 19.6266 313.414 19.8129C313.472 19.9992 313.511 20.2097 313.531 20.4444L313.528 20.7139C313.504 20.946 313.459 21.1544 313.394 21.3392C313.331 21.5239 313.246 21.681 313.139 21.8105C313.034 21.94 312.905 22.039 312.754 22.1074C312.603 22.1738 312.427 22.2057 312.226 22.2031C312.04 22.2007 311.871 22.1585 311.717 22.0765C311.566 21.9944 311.436 21.8804 311.326 21.7345C311.219 21.5886 311.136 21.4176 311.078 21.2215C311.022 21.0235 310.995 20.8093 310.998 20.5788ZM311.544 20.5243L311.543 20.5858C311.541 20.744 311.555 20.8926 311.584 21.0317C311.616 21.1708 311.665 21.2935 311.732 21.3998C311.799 21.5062 311.885 21.5903 311.989 21.6522C312.094 21.7121 312.22 21.743 312.366 21.7449C312.546 21.7472 312.694 21.7111 312.81 21.6364C312.928 21.5617 313.023 21.4623 313.095 21.3382C313.167 21.2142 313.223 21.0791 313.264 20.9332L313.273 20.2272C313.251 20.1195 313.219 20.0155 313.175 19.9153C313.133 19.8132 313.078 19.7227 313.009 19.6436C312.941 19.5627 312.857 19.4981 312.756 19.4499C312.657 19.4018 312.539 19.3768 312.403 19.3751C312.254 19.3732 312.126 19.4028 312.018 19.4639C311.911 19.5231 311.823 19.6059 311.754 19.7125C311.684 19.817 311.632 19.9394 311.597 20.0796C311.564 20.2179 311.546 20.3661 311.544 20.5243ZM316.375 21.6558L316.396 20.0241C316.398 19.8992 316.374 19.7904 316.324 19.698C316.277 19.6036 316.204 19.5304 316.105 19.4784C316.006 19.4263 315.883 19.3993 315.737 19.3974C315.6 19.3957 315.479 19.4176 315.375 19.4631C315.273 19.5087 315.192 19.5692 315.133 19.6446C315.075 19.72 315.046 19.8017 315.045 19.8896L314.503 19.8826C314.504 19.7693 314.535 19.6574 314.595 19.5468C314.655 19.4363 314.74 19.3368 314.851 19.2483C314.963 19.158 315.097 19.0874 315.252 19.0367C315.409 18.984 315.583 18.9589 315.774 18.9614C316.005 18.9643 316.207 19.006 316.382 19.0864C316.559 19.1668 316.696 19.2867 316.794 19.4462C316.893 19.6037 316.941 19.8007 316.938 20.037L316.919 21.5134C316.918 21.6189 316.925 21.7313 316.941 21.8506C316.959 21.97 316.986 22.0729 317.022 22.1593L317.022 22.2062L316.456 22.1989C316.43 22.1361 316.409 22.0528 316.395 21.9491C316.381 21.8434 316.374 21.7457 316.375 21.6558ZM316.487 20.2773L316.488 20.6582L315.94 20.6511C315.786 20.6492 315.648 20.6601 315.527 20.6839C315.405 20.7058 315.303 20.7406 315.221 20.7884C315.138 20.8362 315.075 20.8969 315.031 20.9705C314.987 21.0422 314.964 21.1269 314.963 21.2246C314.962 21.3242 314.983 21.4153 315.027 21.4979C315.071 21.5805 315.137 21.6468 315.226 21.6967C315.318 21.7448 315.43 21.7697 315.562 21.7714C315.728 21.7735 315.875 21.7402 316.003 21.6716C316.131 21.6029 316.233 21.5183 316.308 21.4177C316.386 21.3171 316.428 21.219 316.435 21.1234L316.663 21.3871C316.648 21.4689 316.61 21.5592 316.548 21.6581C316.487 21.7569 316.404 21.8515 316.301 21.942C316.201 22.0306 316.081 22.1042 315.941 22.163C315.804 22.2198 315.649 22.2471 315.477 22.2449C315.262 22.2422 315.074 22.1978 314.913 22.1117C314.754 22.0257 314.631 21.9118 314.543 21.77C314.457 21.6263 314.415 21.4666 314.417 21.2908C314.419 21.1209 314.454 20.9719 314.522 20.8439C314.591 20.7139 314.688 20.6067 314.814 20.5224C314.94 20.4361 315.091 20.3716 315.267 20.329C315.444 20.2863 315.64 20.2664 315.857 20.2692L316.487 20.2773ZM318.611 21.8985L319.529 19.0683L320.109 19.0757L318.791 22.7182C318.76 22.796 318.72 22.8795 318.67 22.9687C318.622 23.0599 318.561 23.146 318.485 23.2271C318.41 23.3081 318.319 23.3734 318.213 23.4228C318.109 23.4742 317.985 23.499 317.84 23.4971C317.797 23.4965 317.743 23.49 317.676 23.4774C317.61 23.4648 317.563 23.4545 317.536 23.4463L317.539 23.0069C317.554 23.009 317.579 23.0113 317.612 23.0137C317.647 23.018 317.672 23.0203 317.685 23.0205C317.808 23.022 317.913 23.0068 317.999 22.9747C318.086 22.9445 318.159 22.8918 318.218 22.8164C318.28 22.7429 318.333 22.6411 318.377 22.5108L318.611 21.8985ZM318 19.0486L318.791 21.5199L318.925 22.093L318.533 22.2872L317.408 19.041L318 19.0486ZM320.742 21.6094L320.736 22.0459C320.734 22.2237 320.686 22.4106 320.594 22.6067C320.502 22.8047 320.374 22.9691 320.21 23.0998L319.905 22.882C319.969 22.7969 320.022 22.7097 320.067 22.6204C320.111 22.533 320.144 22.4417 320.167 22.3463C320.191 22.2528 320.204 22.1534 320.206 22.0479L320.211 21.6026L320.742 21.6094ZM325.655 21.8719L325.649 22.3171L322.857 22.2812L322.862 21.8916L324.28 20.3541C324.454 20.1649 324.589 20.0045 324.684 19.8729C324.782 19.7394 324.85 19.6201 324.888 19.5151C324.929 19.4082 324.949 19.2991 324.951 19.1878C324.953 19.0472 324.925 18.9198 324.868 18.8058C324.813 18.6899 324.73 18.597 324.62 18.5272C324.509 18.4574 324.375 18.4215 324.217 18.4195C324.027 18.4171 323.868 18.4521 323.741 18.5247C323.615 18.5954 323.52 18.6957 323.455 18.8257C323.391 18.9558 323.358 19.1058 323.356 19.2757L322.814 19.2687C322.817 19.0285 322.873 18.8095 322.981 18.6116C323.089 18.4138 323.247 18.2576 323.455 18.1431C323.664 18.0266 323.92 17.9703 324.222 17.9742C324.492 17.9777 324.722 18.0285 324.912 18.1266C325.102 18.2228 325.247 18.3575 325.346 18.5307C325.447 18.7019 325.497 18.9018 325.494 19.1303C325.492 19.2553 325.469 19.382 325.424 19.5103C325.382 19.6367 325.322 19.7629 325.247 19.8889C325.173 20.0149 325.086 20.1388 324.987 20.2606C324.89 20.3824 324.786 20.5022 324.675 20.6199L323.516 21.8444L325.655 21.8719ZM327.051 19.9355L327.438 19.9405C327.627 19.943 327.784 19.9137 327.907 19.8528C328.033 19.79 328.127 19.7043 328.189 19.5957C328.253 19.4851 328.286 19.3606 328.288 19.2219C328.29 19.0579 328.264 18.9198 328.211 18.8078C328.158 18.6958 328.077 18.6107 327.968 18.5527C327.859 18.4947 327.721 18.4646 327.553 18.4624C327.401 18.4604 327.266 18.489 327.148 18.548C327.032 18.6051 326.94 18.6879 326.872 18.7964C326.806 18.905 326.772 19.0335 326.77 19.1819L326.229 19.1749C326.231 18.9581 326.289 18.7616 326.4 18.5853C326.512 18.409 326.667 18.2693 326.866 18.1664C327.066 18.0635 327.297 18.0138 327.559 18.0171C327.817 18.0204 328.042 18.0692 328.234 18.1635C328.426 18.2558 328.575 18.3925 328.68 18.5736C328.785 18.7527 328.836 18.975 328.832 19.2406C328.831 19.348 328.804 19.4629 328.752 19.5853C328.701 19.7058 328.623 19.8181 328.516 19.9222C328.411 20.0263 328.275 20.1115 328.108 20.1777C327.941 20.2419 327.742 20.2726 327.509 20.2696L327.047 20.2636L327.051 19.9355ZM327.045 20.3808L327.049 20.0557L327.512 20.0616C327.784 20.0651 328.008 20.1002 328.185 20.1669C328.362 20.2337 328.5 20.3214 328.6 20.4301C328.702 20.5389 328.773 20.6579 328.812 20.7874C328.854 20.9149 328.874 21.0421 328.872 21.169C328.869 21.3682 328.833 21.5445 328.763 21.6979C328.694 21.8514 328.598 21.981 328.473 22.0868C328.351 22.1927 328.207 22.2719 328.043 22.3245C327.878 22.377 327.699 22.4021 327.506 22.3996C327.32 22.3972 327.146 22.3686 326.982 22.3138C326.821 22.259 326.678 22.1809 326.554 22.0797C326.431 21.9766 326.335 21.8513 326.266 21.7039C326.198 21.5546 326.165 21.3852 326.167 21.1958L326.709 21.2027C326.707 21.3512 326.738 21.4815 326.801 21.5936C326.866 21.7058 326.959 21.7939 327.079 21.8579C327.201 21.9201 327.345 21.9522 327.511 21.9543C327.677 21.9565 327.82 21.93 327.94 21.8749C328.062 21.8178 328.156 21.7312 328.222 21.6148C328.29 21.4985 328.325 21.3515 328.327 21.1737C328.329 20.996 328.294 20.85 328.221 20.7358C328.149 20.6196 328.044 20.5333 327.908 20.4769C327.774 20.4185 327.615 20.3882 327.432 20.3858L327.045 20.3808ZM331.206 19.2184L331.751 19.2254L331.705 22.773C331.703 22.9663 331.669 23.13 331.605 23.2639C331.543 23.3979 331.45 23.4983 331.326 23.565C331.204 23.6338 331.05 23.667 330.865 23.6646C330.816 23.664 330.759 23.6583 330.695 23.6477C330.629 23.6371 330.573 23.6247 330.528 23.6104L330.537 23.174C330.574 23.1823 330.616 23.1887 330.663 23.1932C330.709 23.1997 330.75 23.2031 330.785 23.2036C330.866 23.2046 330.933 23.1908 330.988 23.1622C331.043 23.1336 331.085 23.0873 331.113 23.0232C331.143 22.9591 331.159 22.8734 331.16 22.766L331.206 19.2184ZM331.161 18.3769C331.162 18.2891 331.19 18.2152 331.246 18.1554C331.301 18.0955 331.381 18.0663 331.484 18.0676C331.59 18.069 331.67 18.1003 331.723 18.1615C331.777 18.2227 331.804 18.2973 331.803 18.3852C331.802 18.4692 331.773 18.5411 331.718 18.6009C331.662 18.6588 331.582 18.6871 331.476 18.6857C331.373 18.6844 331.294 18.6541 331.24 18.5948C331.186 18.5335 331.16 18.4609 331.161 18.3769ZM334.535 21.6989L334.566 19.2616L335.111 19.2686L335.07 22.4383L334.552 22.4316L334.535 21.6989ZM334.646 21.0323L334.871 21.0294C334.869 21.2403 334.844 21.4353 334.796 21.6144C334.751 21.7916 334.679 21.9449 334.58 22.0745C334.48 22.2041 334.351 22.305 334.192 22.3772C334.033 22.4474 333.84 22.4811 333.613 22.4781C333.459 22.4762 333.318 22.4519 333.19 22.4053C333.063 22.3588 332.955 22.288 332.864 22.1931C332.773 22.0982 332.704 21.9752 332.655 21.8242C332.608 21.6732 332.586 21.4922 332.589 21.2813L332.615 19.2365L333.157 19.2435L333.131 21.2941C333.129 21.4367 333.143 21.555 333.173 21.6492C333.205 21.7414 333.248 21.8152 333.302 21.8706C333.358 21.924 333.42 21.9619 333.488 21.9843C333.558 22.0067 333.63 22.0184 333.704 22.0193C333.935 22.0223 334.118 21.9807 334.254 21.8945C334.39 21.8064 334.488 21.6876 334.548 21.5379C334.611 21.3864 334.643 21.2179 334.646 21.0323ZM336.47 19.9629L336.438 22.4559L335.896 22.4489L335.937 19.2792L336.45 19.2858L336.47 19.9629ZM336.331 20.7493L336.106 20.7376C336.11 20.5208 336.145 20.3211 336.21 20.1383C336.275 19.9536 336.365 19.7936 336.48 19.6583C336.595 19.5231 336.731 19.4194 336.888 19.3471C337.047 19.273 337.223 19.2372 337.414 19.2396C337.57 19.2417 337.711 19.2649 337.835 19.3095C337.96 19.3521 338.065 19.4199 338.152 19.5128C338.241 19.6058 338.307 19.7258 338.352 19.8729C338.397 20.018 338.419 20.195 338.416 20.404L338.389 22.481L337.844 22.474L337.871 20.3911C337.873 20.2251 337.85 20.092 337.803 19.9918C337.755 19.8896 337.685 19.8154 337.592 19.7693C337.499 19.7212 337.384 19.6963 337.247 19.6946C337.112 19.6928 336.989 19.7196 336.877 19.7748C336.767 19.83 336.671 19.9069 336.59 20.0055C336.51 20.1041 336.447 20.2175 336.401 20.3458C336.356 20.4722 336.333 20.6067 336.331 20.7493ZM339.713 21.8534L339.707 22.2899C339.705 22.4676 339.658 22.6545 339.565 22.8506C339.473 23.0487 339.345 23.213 339.181 23.3438L338.876 23.1259C338.94 23.0408 338.993 22.9536 339.038 22.8643C339.082 22.777 339.115 22.6856 339.138 22.5902C339.162 22.4968 339.175 22.3973 339.177 22.2919L339.183 21.8466L339.713 21.8534ZM344.626 22.1158L344.62 22.5611L341.828 22.5252L341.833 22.1356L343.251 20.598C343.425 20.4088 343.56 20.2484 343.655 20.1168C343.753 19.9833 343.821 19.8641 343.859 19.7591C343.9 19.6522 343.921 19.5431 343.922 19.4317C343.924 19.2911 343.896 19.1638 343.839 19.0498C343.784 18.9338 343.701 18.841 343.591 18.7712C343.48 18.7014 343.346 18.6655 343.188 18.6634C342.998 18.661 342.84 18.6961 342.712 18.7687C342.586 18.8393 342.491 18.9397 342.427 19.0697C342.362 19.1997 342.329 19.3497 342.327 19.5196L341.785 19.5127C341.788 19.2724 341.844 19.0534 341.952 18.8556C342.06 18.6577 342.218 18.5015 342.427 18.387C342.635 18.2706 342.891 18.2143 343.193 18.2182C343.463 18.2216 343.693 18.2724 343.883 18.3706C344.073 18.4668 344.218 18.6015 344.317 18.7747C344.419 18.9459 344.468 19.1458 344.465 19.3743C344.463 19.4992 344.44 19.6259 344.395 19.7543C344.353 19.8807 344.294 20.0069 344.218 20.1329C344.144 20.2589 344.057 20.3828 343.958 20.5046C343.861 20.6264 343.757 20.7461 343.646 20.8638L342.487 22.0883L344.626 22.1158ZM347.909 20.1305L347.901 20.7809C347.897 21.1304 347.862 21.4249 347.796 21.6644C347.73 21.9038 347.638 22.0959 347.519 22.2409C347.4 22.3859 347.257 22.4905 347.09 22.5548C346.925 22.6171 346.739 22.6469 346.532 22.6443C346.368 22.6422 346.217 22.6197 346.079 22.5769C345.941 22.5341 345.817 22.4671 345.707 22.3758C345.598 22.2826 345.506 22.1623 345.43 22.0148C345.354 21.8673 345.296 21.6889 345.258 21.4794C345.22 21.2699 345.202 21.0255 345.206 20.7462L345.214 20.0959C345.219 19.7463 345.254 19.4537 345.319 19.2182C345.387 18.9828 345.48 18.7945 345.599 18.6534C345.718 18.5104 345.86 18.4087 346.025 18.3483C346.192 18.288 346.378 18.2591 346.583 18.2618C346.749 18.2639 346.901 18.2864 347.039 18.3291C347.179 18.37 347.303 18.4351 347.411 18.5244C347.52 18.6117 347.611 18.7281 347.685 18.8736C347.762 19.0172 347.819 19.1928 347.857 19.4003C347.896 19.6078 347.913 19.8513 347.909 20.1305ZM347.355 20.8617L347.366 20.0327C347.368 19.8413 347.359 19.6732 347.337 19.5284C347.317 19.3816 347.287 19.2562 347.245 19.1522C347.204 19.0481 347.15 18.9634 347.084 18.8981C347.021 18.8329 346.946 18.785 346.861 18.7546C346.777 18.7223 346.683 18.7055 346.577 18.7041C346.448 18.7024 346.334 18.7254 346.233 18.7729C346.133 18.8185 346.048 18.8926 345.979 18.9953C345.911 19.0979 345.858 19.233 345.821 19.4005C345.784 19.568 345.763 19.7718 345.76 20.0121L345.75 20.8411C345.747 21.0325 345.756 21.2016 345.775 21.3483C345.797 21.4951 345.83 21.6225 345.873 21.7305C345.917 21.8365 345.97 21.9241 346.034 21.9933C346.097 22.0625 346.171 22.1142 346.254 22.1485C346.34 22.1808 346.434 22.1977 346.538 22.199C346.671 22.2007 346.787 22.1768 346.888 22.1273C346.988 22.0778 347.072 21.9998 347.14 21.8932C347.209 21.7847 347.262 21.6458 347.297 21.4763C347.333 21.3048 347.352 21.1 347.355 20.8617ZM351.375 22.2026L351.37 22.6479L348.578 22.612L348.583 22.2224L350 20.6848C350.174 20.4956 350.309 20.3352 350.405 20.2036C350.502 20.0701 350.57 19.9509 350.609 19.8459C350.649 19.739 350.67 19.6298 350.671 19.5185C350.673 19.3779 350.646 19.2506 350.588 19.1366C350.533 19.0206 350.45 18.9277 350.34 18.858C350.23 18.7882 350.095 18.7523 349.937 18.7502C349.748 18.7478 349.589 18.7829 349.461 18.8555C349.335 18.9261 349.24 19.0265 349.176 19.1565C349.112 19.2865 349.079 19.4365 349.076 19.6064L348.534 19.5995C348.538 19.3592 348.593 19.1402 348.701 18.9424C348.809 18.7445 348.967 18.5883 349.176 18.4738C349.384 18.3574 349.64 18.3011 349.943 18.305C350.212 18.3084 350.442 18.3592 350.632 18.4574C350.823 18.5536 350.967 18.6883 351.067 18.8614C351.168 19.0327 351.217 19.2326 351.214 19.4611C351.213 19.586 351.189 19.7127 351.145 19.8411C351.102 19.9675 351.043 20.0937 350.967 20.2197C350.893 20.3457 350.807 20.4696 350.707 20.5913C350.61 20.7132 350.506 20.8329 350.395 20.9506L349.237 22.1751L351.375 22.2026ZM354.75 22.246L354.744 22.6913L351.952 22.6554L351.958 22.2658L353.375 20.7282C353.549 20.539 353.684 20.3786 353.78 20.247C353.877 20.1135 353.945 19.9943 353.983 19.8893C354.024 19.7824 354.045 19.6732 354.046 19.5619C354.048 19.4213 354.02 19.294 353.963 19.18C353.908 19.064 353.825 18.9711 353.715 18.9014C353.604 18.8316 353.47 18.7957 353.312 18.7936C353.122 18.7912 352.964 18.8263 352.836 18.8988C352.71 18.9695 352.615 19.0698 352.551 19.1999C352.487 19.3299 352.453 19.4799 352.451 19.6498L351.909 19.6429C351.912 19.4026 351.968 19.1836 352.076 18.9858C352.184 18.7879 352.342 18.6317 352.551 18.5172C352.759 18.4008 353.015 18.3445 353.318 18.3484C353.587 18.3518 353.817 18.4026 354.007 18.5008C354.197 18.597 354.342 18.7317 354.441 18.9048C354.543 19.0761 354.592 19.276 354.589 19.5044C354.587 19.6294 354.564 19.7561 354.52 19.8844C354.477 20.0109 354.418 20.1371 354.342 20.2631C354.268 20.3891 354.181 20.513 354.082 20.6347C353.985 20.7565 353.881 20.8763 353.77 20.994L352.611 22.2185L354.75 22.246Z" fill="#FF634F"/>
<path d="M324.164 45.104C324.932 44.464 325.544 43.932 326 43.508C326.456 43.076 326.836 42.628 327.14 42.164C327.444 41.7 327.596 41.244 327.596 40.796C327.596 40.388 327.5 40.068 327.308 39.836C327.116 39.604 326.82 39.488 326.42 39.488C326.02 39.488 325.712 39.624 325.496 39.896C325.28 40.16 325.168 40.524 325.16 40.988H323.528C323.56 40.028 323.844 39.3 324.38 38.804C324.924 38.308 325.612 38.06 326.444 38.06C327.356 38.06 328.056 38.304 328.544 38.792C329.032 39.272 329.276 39.908 329.276 40.7C329.276 41.324 329.108 41.92 328.772 42.488C328.436 43.056 328.052 43.552 327.62 43.976C327.188 44.392 326.624 44.896 325.928 45.488H329.468V46.88H323.54V45.632L324.164 45.104ZM336.407 39.704H332.519V41.756C332.687 41.548 332.927 41.38 333.239 41.252C333.551 41.116 333.883 41.048 334.235 41.048C334.875 41.048 335.399 41.188 335.807 41.468C336.215 41.748 336.511 42.108 336.695 42.548C336.879 42.98 336.971 43.444 336.971 43.94C336.971 44.86 336.707 45.6 336.179 46.16C335.659 46.72 334.915 47 333.947 47C333.035 47 332.307 46.772 331.763 46.316C331.219 45.86 330.911 45.264 330.839 44.528H332.471C332.543 44.848 332.703 45.104 332.951 45.296C333.207 45.488 333.531 45.584 333.923 45.584C334.395 45.584 334.751 45.436 334.991 45.14C335.231 44.844 335.351 44.452 335.351 43.964C335.351 43.468 335.227 43.092 334.979 42.836C334.739 42.572 334.383 42.44 333.911 42.44C333.575 42.44 333.295 42.524 333.071 42.692C332.847 42.86 332.687 43.084 332.591 43.364H330.983V38.228H336.407V39.704ZM338.249 42.512C338.249 41.128 338.497 40.044 338.993 39.26C339.497 38.476 340.329 38.084 341.489 38.084C342.649 38.084 343.477 38.476 343.973 39.26C344.477 40.044 344.729 41.128 344.729 42.512C344.729 43.904 344.477 44.996 343.973 45.788C343.477 46.58 342.649 46.976 341.489 46.976C340.329 46.976 339.497 46.58 338.993 45.788C338.497 44.996 338.249 43.904 338.249 42.512ZM343.073 42.512C343.073 41.92 343.033 41.424 342.953 41.024C342.881 40.616 342.729 40.284 342.497 40.028C342.273 39.772 341.937 39.644 341.489 39.644C341.041 39.644 340.701 39.772 340.469 40.028C340.245 40.284 340.093 40.616 340.013 41.024C339.941 41.424 339.905 41.92 339.905 42.512C339.905 43.12 339.941 43.632 340.013 44.048C340.085 44.456 340.237 44.788 340.469 45.044C340.701 45.292 341.041 45.416 341.489 45.416C341.937 45.416 342.277 45.292 342.509 45.044C342.741 44.788 342.893 44.456 342.965 44.048C343.037 43.632 343.073 43.12 343.073 42.512ZM346.007 42.512C346.007 41.128 346.255 40.044 346.751 39.26C347.255 38.476 348.087 38.084 349.247 38.084C350.407 38.084 351.235 38.476 351.731 39.26C352.235 40.044 352.487 41.128 352.487 42.512C352.487 43.904 352.235 44.996 351.731 45.788C351.235 46.58 350.407 46.976 349.247 46.976C348.087 46.976 347.255 46.58 346.751 45.788C346.255 44.996 346.007 43.904 346.007 42.512ZM350.831 42.512C350.831 41.92 350.791 41.424 350.711 41.024C350.639 40.616 350.487 40.284 350.255 40.028C350.031 39.772 349.695 39.644 349.247 39.644C348.799 39.644 348.459 39.772 348.227 40.028C348.003 40.284 347.851 40.616 347.771 41.024C347.699 41.424 347.663 41.92 347.663 42.512C347.663 43.12 347.699 43.632 347.771 44.048C347.843 44.456 347.995 44.788 348.227 45.044C348.459 45.292 348.799 45.416 349.247 45.416C349.695 45.416 350.035 45.292 350.267 45.044C350.499 44.788 350.651 44.456 350.723 44.048C350.795 43.632 350.831 43.12 350.831 42.512ZM359.657 38.624V39.98H357.425V47H355.745V39.98H353.513V38.624H359.657ZM365.611 47L362.563 43.268V47H360.883V38.624H362.563V42.38L365.611 38.624H367.639L364.183 42.776L367.735 47H365.611Z" fill="#4274FF"/>
<path d="M72.776 19.624V28H71.096V24.436H67.508V28H65.828V19.624H67.508V23.068H71.096V19.624H72.776ZM78.7496 28L76.9016 24.736H76.1096V28H74.4296V19.624H77.5736C78.2216 19.624 78.7736 19.74 79.2296 19.972C79.6856 20.196 80.0256 20.504 80.2496 20.896C80.4816 21.28 80.5976 21.712 80.5976 22.192C80.5976 22.744 80.4376 23.244 80.1176 23.692C79.7976 24.132 79.3216 24.436 78.6896 24.604L80.6936 28H78.7496ZM76.1096 23.476H77.5136C77.9696 23.476 78.3096 23.368 78.5336 23.152C78.7576 22.928 78.8696 22.62 78.8696 22.228C78.8696 21.844 78.7576 21.548 78.5336 21.34C78.3096 21.124 77.9696 21.016 77.5136 21.016H76.1096V23.476ZM91.9244 19.624V28H90.2444V24.436H86.6564V28H84.9764V19.624H86.6564V23.068H90.2444V19.624H91.9244ZM94.43 20.56C94.134 20.56 93.886 20.468 93.686 20.284C93.494 20.092 93.398 19.856 93.398 19.576C93.398 19.296 93.494 19.064 93.686 18.88C93.886 18.688 94.134 18.592 94.43 18.592C94.726 18.592 94.97 18.688 95.162 18.88C95.362 19.064 95.462 19.296 95.462 19.576C95.462 19.856 95.362 20.092 95.162 20.284C94.97 20.468 94.726 20.56 94.43 20.56ZM95.258 21.352V28H93.578V21.352H95.258ZM99.5218 21.244C100.018 21.244 100.454 21.344 100.83 21.544C101.206 21.736 101.502 21.988 101.718 22.3V21.352H103.41V28.048C103.41 28.664 103.286 29.212 103.038 29.692C102.79 30.18 102.418 30.564 101.922 30.844C101.426 31.132 100.826 31.276 100.122 31.276C99.1778 31.276 98.4018 31.056 97.7938 30.616C97.1938 30.176 96.8538 29.576 96.7738 28.816H98.4418C98.5298 29.12 98.7178 29.36 99.0058 29.536C99.3018 29.72 99.6578 29.812 100.074 29.812C100.562 29.812 100.958 29.664 101.262 29.368C101.566 29.08 101.718 28.64 101.718 28.048V27.016C101.502 27.328 101.202 27.588 100.818 27.796C100.442 28.004 100.01 28.108 99.5218 28.108C98.9618 28.108 98.4498 27.964 97.9858 27.676C97.5218 27.388 97.1538 26.984 96.8818 26.464C96.6178 25.936 96.4858 25.332 96.4858 24.652C96.4858 23.98 96.6178 23.384 96.8818 22.864C97.1538 22.344 97.5178 21.944 97.9738 21.664C98.4378 21.384 98.9538 21.244 99.5218 21.244ZM101.718 24.676C101.718 24.268 101.638 23.92 101.478 23.632C101.318 23.336 101.102 23.112 100.83 22.96C100.558 22.8 100.266 22.72 99.9538 22.72C99.6418 22.72 99.3538 22.796 99.0898 22.948C98.8258 23.1 98.6098 23.324 98.4418 23.62C98.2818 23.908 98.2018 24.252 98.2018 24.652C98.2018 25.052 98.2818 25.404 98.4418 25.708C98.6098 26.004 98.8258 26.232 99.0898 26.392C99.3618 26.552 99.6498 26.632 99.9538 26.632C100.266 26.632 100.558 26.556 100.83 26.404C101.102 26.244 101.318 26.02 101.478 25.732C101.638 25.436 101.718 25.084 101.718 24.676ZM108.795 21.256C109.299 21.256 109.747 21.368 110.139 21.592C110.531 21.808 110.835 22.132 111.051 22.564C111.275 22.988 111.387 23.5 111.387 24.1V28H109.707V24.328C109.707 23.8 109.575 23.396 109.311 23.116C109.047 22.828 108.687 22.684 108.231 22.684C107.767 22.684 107.399 22.828 107.127 23.116C106.863 23.396 106.731 23.8 106.731 24.328V28H105.051V19.12H106.731V22.18C106.947 21.892 107.235 21.668 107.595 21.508C107.955 21.34 108.355 21.256 108.795 21.256ZM122.2 21.352L120.256 28H118.444L117.232 23.356L116.02 28H114.196L112.24 21.352H113.944L115.12 26.416L116.392 21.352H118.168L119.416 26.404L120.592 21.352H122.2ZM122.677 24.652C122.677 23.98 122.809 23.384 123.073 22.864C123.345 22.344 123.709 21.944 124.165 21.664C124.629 21.384 125.145 21.244 125.713 21.244C126.209 21.244 126.641 21.344 127.009 21.544C127.385 21.744 127.685 21.996 127.909 22.3V21.352H129.601V28H127.909V27.028C127.693 27.34 127.393 27.6 127.009 27.808C126.633 28.008 126.197 28.108 125.701 28.108C125.141 28.108 124.629 27.964 124.165 27.676C123.709 27.388 123.345 26.984 123.073 26.464C122.809 25.936 122.677 25.332 122.677 24.652ZM127.909 24.676C127.909 24.268 127.829 23.92 127.669 23.632C127.509 23.336 127.293 23.112 127.021 22.96C126.749 22.8 126.457 22.72 126.145 22.72C125.833 22.72 125.545 22.796 125.281 22.948C125.017 23.1 124.801 23.324 124.633 23.62C124.473 23.908 124.393 24.252 124.393 24.652C124.393 25.052 124.473 25.404 124.633 25.708C124.801 26.004 125.017 26.232 125.281 26.392C125.553 26.552 125.841 26.632 126.145 26.632C126.457 26.632 126.749 26.556 127.021 26.404C127.293 26.244 127.509 26.02 127.669 25.732C127.829 25.436 127.909 25.084 127.909 24.676ZM137.602 21.352L133.486 31.144H131.698L133.138 27.832L130.474 21.352H132.358L134.074 25.996L135.814 21.352H137.602ZM143.047 26.668H145.807V28H141.367V19.624H143.047V26.668ZM152.575 19.624V20.98H150.343V28H148.663V20.98H146.431V19.624H152.575ZM156.729 19.624C157.609 19.624 158.381 19.796 159.045 20.14C159.717 20.484 160.233 20.976 160.593 21.616C160.961 22.248 161.145 22.984 161.145 23.824C161.145 24.664 160.961 25.4 160.593 26.032C160.233 26.656 159.717 27.14 159.045 27.484C158.381 27.828 157.609 28 156.729 28H153.801V19.624H156.729ZM156.669 26.572C157.549 26.572 158.229 26.332 158.709 25.852C159.189 25.372 159.429 24.696 159.429 23.824C159.429 22.952 159.189 22.272 158.709 21.784C158.229 21.288 157.549 21.04 156.669 21.04H155.481V26.572H156.669Z" fill="#4274FF"/>
<path d="M70.06 38.03V38.77H68.16V45H67.25V38.77H65.34V38.03H70.06ZM76.1802 42.05C76.1802 42.2233 76.1702 42.4067 76.1502 42.6H71.7702C71.8035 43.14 71.9868 43.5633 72.3202 43.87C72.6602 44.17 73.0702 44.32 73.5502 44.32C73.9435 44.32 74.2702 44.23 74.5302 44.05C74.7968 43.8633 74.9835 43.6167 75.0902 43.31H76.0702C75.9235 43.8367 75.6302 44.2667 75.1902 44.6C74.7502 44.9267 74.2035 45.09 73.5502 45.09C73.0302 45.09 72.5635 44.9733 72.1502 44.74C71.7435 44.5067 71.4235 44.1767 71.1902 43.75C70.9568 43.3167 70.8402 42.8167 70.8402 42.25C70.8402 41.6833 70.9535 41.1867 71.1802 40.76C71.4068 40.3333 71.7235 40.0067 72.1302 39.78C72.5435 39.5467 73.0168 39.43 73.5502 39.43C74.0702 39.43 74.5302 39.5433 74.9302 39.77C75.3302 39.9967 75.6368 40.31 75.8502 40.71C76.0702 41.1033 76.1802 41.55 76.1802 42.05ZM75.2402 41.86C75.2402 41.5133 75.1635 41.2167 75.0102 40.97C74.8568 40.7167 74.6468 40.5267 74.3802 40.4C74.1202 40.2667 73.8302 40.2 73.5102 40.2C73.0502 40.2 72.6568 40.3467 72.3302 40.64C72.0102 40.9333 71.8268 41.34 71.7802 41.86H75.2402ZM78.2913 40.41C78.4513 40.0967 78.678 39.8533 78.9713 39.68C79.2713 39.5067 79.6347 39.42 80.0613 39.42V40.36H79.8213C78.8013 40.36 78.2913 40.9133 78.2913 42.02V45H77.3813V39.52H78.2913V40.41ZM87.7018 39.42C88.1285 39.42 88.5085 39.51 88.8418 39.69C89.1751 39.8633 89.4385 40.1267 89.6318 40.48C89.8251 40.8333 89.9218 41.2633 89.9218 41.77V45H89.0218V41.9C89.0218 41.3533 88.8851 40.9367 88.6118 40.65C88.3451 40.3567 87.9818 40.21 87.5218 40.21C87.0485 40.21 86.6718 40.3633 86.3918 40.67C86.1118 40.97 85.9718 41.4067 85.9718 41.98V45H85.0718V41.9C85.0718 41.3533 84.9351 40.9367 84.6618 40.65C84.3951 40.3567 84.0318 40.21 83.5718 40.21C83.0985 40.21 82.7218 40.3633 82.4418 40.67C82.1618 40.97 82.0218 41.4067 82.0218 41.98V45H81.1118V39.52H82.0218V40.31C82.2018 40.0233 82.4418 39.8033 82.7418 39.65C83.0485 39.4967 83.3851 39.42 83.7518 39.42C84.2118 39.42 84.6185 39.5233 84.9718 39.73C85.3251 39.9367 85.5885 40.24 85.7618 40.64C85.9151 40.2533 86.1685 39.9533 86.5218 39.74C86.8751 39.5267 87.2685 39.42 87.7018 39.42ZM91.8845 38.63C91.7112 38.63 91.5645 38.57 91.4445 38.45C91.3245 38.33 91.2645 38.1833 91.2645 38.01C91.2645 37.8367 91.3245 37.69 91.4445 37.57C91.5645 37.45 91.7112 37.39 91.8845 37.39C92.0512 37.39 92.1912 37.45 92.3045 37.57C92.4245 37.69 92.4845 37.8367 92.4845 38.01C92.4845 38.1833 92.4245 38.33 92.3045 38.45C92.1912 38.57 92.0512 38.63 91.8845 38.63ZM92.3245 39.52V45H91.4145V39.52H92.3245ZM96.5455 39.42C97.2121 39.42 97.7521 39.6233 98.1655 40.03C98.5788 40.43 98.7855 41.01 98.7855 41.77V45H97.8855V41.9C97.8855 41.3533 97.7488 40.9367 97.4755 40.65C97.2021 40.3567 96.8288 40.21 96.3555 40.21C95.8755 40.21 95.4921 40.36 95.2055 40.66C94.9255 40.96 94.7855 41.3967 94.7855 41.97V45H93.8755V39.52H94.7855V40.3C94.9655 40.02 95.2088 39.8033 95.5155 39.65C95.8288 39.4967 96.1721 39.42 96.5455 39.42ZM99.932 42.24C99.932 41.68 100.045 41.19 100.272 40.77C100.499 40.3433 100.809 40.0133 101.202 39.78C101.602 39.5467 102.045 39.43 102.532 39.43C103.012 39.43 103.429 39.5333 103.782 39.74C104.135 39.9467 104.399 40.2067 104.572 40.52V39.52H105.492V45H104.572V43.98C104.392 44.3 104.122 44.5667 103.762 44.78C103.409 44.9867 102.995 45.09 102.522 45.09C102.035 45.09 101.595 44.97 101.202 44.73C100.809 44.49 100.499 44.1533 100.272 43.72C100.045 43.2867 99.932 42.7933 99.932 42.24ZM104.572 42.25C104.572 41.8367 104.489 41.4767 104.322 41.17C104.155 40.8633 103.929 40.63 103.642 40.47C103.362 40.3033 103.052 40.22 102.712 40.22C102.372 40.22 102.062 40.3 101.782 40.46C101.502 40.62 101.279 40.8533 101.112 41.16C100.945 41.4667 100.862 41.8267 100.862 42.24C100.862 42.66 100.945 43.0267 101.112 43.34C101.279 43.6467 101.502 43.8833 101.782 44.05C102.062 44.21 102.372 44.29 102.712 44.29C103.052 44.29 103.362 44.21 103.642 44.05C103.929 43.8833 104.155 43.6467 104.322 43.34C104.489 43.0267 104.572 42.6633 104.572 42.25ZM107.94 37.6V45H107.03V37.6H107.94ZM114.497 46.86C113.857 46.2333 113.357 45.4367 112.997 44.47C112.643 43.5033 112.467 42.46 112.467 41.34C112.467 40.1933 112.653 39.1233 113.027 38.13C113.407 37.13 113.947 36.3067 114.647 35.66H115.597V35.75C114.85 36.45 114.287 37.2933 113.907 38.28C113.533 39.26 113.347 40.28 113.347 41.34C113.347 42.3733 113.523 43.36 113.877 44.3C114.237 45.24 114.76 46.0633 115.447 46.77V46.86H114.497ZM120.818 43.45H117.778L117.218 45H116.258L118.778 38.07H119.828L122.338 45H121.378L120.818 43.45ZM120.558 42.71L119.298 39.19L118.038 42.71H120.558ZM123.146 46.86V46.77C123.833 46.0633 124.353 45.24 124.706 44.3C125.066 43.36 125.246 42.3733 125.246 41.34C125.246 40.28 125.056 39.26 124.676 38.28C124.303 37.2933 123.743 36.45 122.996 35.75V35.66H123.946C124.646 36.3067 125.183 37.13 125.556 38.13C125.936 39.1233 126.126 40.1933 126.126 41.34C126.126 42.46 125.946 43.5033 125.586 44.47C125.233 45.4367 124.736 46.2333 124.096 46.86H123.146Z" fill="#656567"/>
<path d="M22.6514 82.3359V93H21.2378V82.3359H22.6514ZM27.1191 87.1333V88.2905H22.3438V87.1333H27.1191ZM27.8442 82.3359V83.4932H22.3438V82.3359H27.8442ZM30.4883 86.3203V93H29.1333V85.0752H30.4517L30.4883 86.3203ZM32.9639 85.0312L32.9565 86.291C32.8442 86.2666 32.7368 86.252 32.6343 86.2471C32.5366 86.2373 32.4243 86.2324 32.2974 86.2324C31.9849 86.2324 31.709 86.2812 31.4697 86.3789C31.2305 86.4766 31.0278 86.6133 30.8618 86.7891C30.6958 86.9648 30.564 87.1748 30.4663 87.4189C30.3735 87.6582 30.3125 87.9219 30.2832 88.21L29.9023 88.4297C29.9023 87.9512 29.9487 87.502 30.0415 87.082C30.1392 86.6621 30.2881 86.291 30.4883 85.9688C30.6885 85.6416 30.9424 85.3877 31.25 85.207C31.5625 85.0215 31.9336 84.9287 32.3633 84.9287C32.4609 84.9287 32.5732 84.9409 32.7002 84.9653C32.8271 84.9849 32.915 85.0068 32.9639 85.0312ZM33.7109 89.1255V88.957C33.7109 88.3857 33.7939 87.856 33.96 87.3677C34.126 86.8745 34.3652 86.4473 34.6777 86.0859C34.9902 85.7197 35.3687 85.4365 35.813 85.2363C36.2573 85.0312 36.7554 84.9287 37.3071 84.9287C37.8638 84.9287 38.3643 85.0312 38.8086 85.2363C39.2578 85.4365 39.6387 85.7197 39.9512 86.0859C40.2686 86.4473 40.5103 86.8745 40.6763 87.3677C40.8423 87.856 40.9253 88.3857 40.9253 88.957V89.1255C40.9253 89.6968 40.8423 90.2266 40.6763 90.7148C40.5103 91.2031 40.2686 91.6304 39.9512 91.9966C39.6387 92.3579 39.2603 92.6411 38.8159 92.8462C38.3765 93.0464 37.8784 93.1465 37.3218 93.1465C36.7651 93.1465 36.2646 93.0464 35.8203 92.8462C35.376 92.6411 34.9951 92.3579 34.6777 91.9966C34.3652 91.6304 34.126 91.2031 33.96 90.7148C33.7939 90.2266 33.7109 89.6968 33.7109 89.1255ZM35.0659 88.957V89.1255C35.0659 89.521 35.1123 89.8945 35.2051 90.2461C35.2979 90.5928 35.437 90.9004 35.6226 91.1689C35.813 91.4375 36.0498 91.6499 36.333 91.8062C36.6162 91.9575 36.9458 92.0332 37.3218 92.0332C37.6929 92.0332 38.0176 91.9575 38.2959 91.8062C38.5791 91.6499 38.8135 91.4375 38.999 91.1689C39.1846 90.9004 39.3237 90.5928 39.4165 90.2461C39.5142 89.8945 39.563 89.521 39.563 89.1255V88.957C39.563 88.5664 39.5142 88.1978 39.4165 87.8511C39.3237 87.4995 39.1821 87.1895 38.9917 86.9209C38.8062 86.6475 38.5718 86.4326 38.2886 86.2764C38.0103 86.1201 37.6831 86.042 37.3071 86.042C36.936 86.042 36.6089 86.1201 36.3257 86.2764C36.0474 86.4326 35.813 86.6475 35.6226 86.9209C35.437 87.1895 35.2979 87.4995 35.2051 87.8511C35.1123 88.1978 35.0659 88.5664 35.0659 88.957ZM43.9722 86.6499V93H42.6099V85.0752H43.8989L43.9722 86.6499ZM43.6938 88.7373L43.064 88.7153C43.0688 88.1733 43.1396 87.6729 43.2764 87.2139C43.4131 86.75 43.6157 86.3472 43.8843 86.0054C44.1528 85.6636 44.4873 85.3999 44.8877 85.2144C45.2881 85.0239 45.752 84.9287 46.2793 84.9287C46.6504 84.9287 46.9922 84.9824 47.3047 85.0898C47.6172 85.1924 47.8882 85.356 48.1177 85.5806C48.3472 85.8052 48.5254 86.0933 48.6523 86.4448C48.7793 86.7964 48.8428 87.2212 48.8428 87.7192V93H47.4878V87.7852C47.4878 87.3701 47.417 87.0381 47.2754 86.7891C47.1387 86.54 46.9434 86.3594 46.6895 86.2471C46.4355 86.1299 46.1377 86.0713 45.7959 86.0713C45.3955 86.0713 45.061 86.1421 44.7925 86.2837C44.5239 86.4253 44.3091 86.6206 44.1479 86.8696C43.9868 87.1187 43.8696 87.4043 43.7964 87.7266C43.728 88.0439 43.6938 88.3809 43.6938 88.7373ZM48.8281 87.9902L47.9199 88.2686C47.9248 87.834 47.9956 87.4165 48.1323 87.0161C48.2739 86.6157 48.4766 86.2593 48.7402 85.9468C49.0088 85.6343 49.3384 85.3877 49.729 85.207C50.1196 85.0215 50.5664 84.9287 51.0693 84.9287C51.4941 84.9287 51.8701 84.9849 52.1973 85.0972C52.5293 85.2095 52.8076 85.3828 53.0322 85.6172C53.2617 85.8467 53.4351 86.1421 53.5522 86.5034C53.6694 86.8647 53.728 87.2944 53.728 87.7925V93H52.3657V87.7778C52.3657 87.3335 52.2949 86.9893 52.1533 86.7451C52.0166 86.4961 51.8213 86.3228 51.5674 86.2251C51.3184 86.1226 51.0205 86.0713 50.6738 86.0713C50.376 86.0713 50.1123 86.1226 49.8828 86.2251C49.6533 86.3276 49.4604 86.4692 49.3042 86.6499C49.1479 86.8257 49.0283 87.0283 48.9453 87.2578C48.8672 87.4873 48.8281 87.7314 48.8281 87.9902Z" fill="black"/>
<path d="M32.105 101.575V112H30.395V104.86L27.215 112H26.03L22.835 104.86V112H21.125V101.575H22.97L26.63 109.75L30.275 101.575H32.105ZM37.9375 112.135C37.1575 112.135 36.4525 111.96 35.8225 111.61C35.1925 111.25 34.6975 110.75 34.3375 110.11C33.9775 109.46 33.7975 108.71 33.7975 107.86C33.7975 107.02 33.9825 106.275 34.3525 105.625C34.7225 104.975 35.2275 104.475 35.8675 104.125C36.5075 103.775 37.2225 103.6 38.0125 103.6C38.8025 103.6 39.5175 103.775 40.1575 104.125C40.7975 104.475 41.3025 104.975 41.6725 105.625C42.0425 106.275 42.2275 107.02 42.2275 107.86C42.2275 108.7 42.0375 109.445 41.6575 110.095C41.2775 110.745 40.7575 111.25 40.0975 111.61C39.4475 111.96 38.7275 112.135 37.9375 112.135ZM37.9375 110.65C38.3775 110.65 38.7875 110.545 39.1675 110.335C39.5575 110.125 39.8725 109.81 40.1125 109.39C40.3525 108.97 40.4725 108.46 40.4725 107.86C40.4725 107.26 40.3575 106.755 40.1275 106.345C39.8975 105.925 39.5925 105.61 39.2125 105.4C38.8325 105.19 38.4225 105.085 37.9825 105.085C37.5425 105.085 37.1325 105.19 36.7525 105.4C36.3825 105.61 36.0875 105.925 35.8675 106.345C35.6475 106.755 35.5375 107.26 35.5375 107.86C35.5375 108.75 35.7625 109.44 36.2125 109.93C36.6725 110.41 37.2475 110.65 37.9375 110.65ZM48.088 103.6C48.738 103.6 49.318 103.735 49.828 104.005C50.348 104.275 50.753 104.675 51.043 105.205C51.333 105.735 51.478 106.375 51.478 107.125V112H49.783V107.38C49.783 106.64 49.598 106.075 49.228 105.685C48.858 105.285 48.353 105.085 47.713 105.085C47.073 105.085 46.563 105.285 46.183 105.685C45.813 106.075 45.628 106.64 45.628 107.38V112H43.918V103.735H45.628V104.68C45.908 104.34 46.263 104.075 46.693 103.885C47.133 103.695 47.598 103.6 48.088 103.6ZM54.5292 102.64C54.2192 102.64 53.9592 102.535 53.7492 102.325C53.5392 102.115 53.4342 101.855 53.4342 101.545C53.4342 101.235 53.5392 100.975 53.7492 100.765C53.9592 100.555 54.2192 100.45 54.5292 100.45C54.8292 100.45 55.0842 100.555 55.2942 100.765C55.5042 100.975 55.6092 101.235 55.6092 101.545C55.6092 101.855 55.5042 102.115 55.2942 102.325C55.0842 102.535 54.8292 102.64 54.5292 102.64ZM55.3692 103.735V112H53.6592V103.735H55.3692ZM59.3243 104.95C59.6143 104.57 60.0093 104.25 60.5093 103.99C61.0093 103.73 61.5743 103.6 62.2043 103.6C62.9243 103.6 63.5793 103.78 64.1693 104.14C64.7693 104.49 65.2393 104.985 65.5793 105.625C65.9193 106.265 66.0893 107 66.0893 107.83C66.0893 108.66 65.9193 109.405 65.5793 110.065C65.2393 110.715 64.7693 111.225 64.1693 111.595C63.5793 111.955 62.9243 112.135 62.2043 112.135C61.5743 112.135 61.0143 112.01 60.5243 111.76C60.0343 111.5 59.6343 111.18 59.3243 110.8V115.93H57.6143V103.735H59.3243V104.95ZM64.3493 107.83C64.3493 107.26 64.2293 106.77 63.9893 106.36C63.7593 105.94 63.4493 105.625 63.0593 105.415C62.6793 105.195 62.2693 105.085 61.8293 105.085C61.3993 105.085 60.9893 105.195 60.5993 105.415C60.2193 105.635 59.9093 105.955 59.6693 106.375C59.4393 106.795 59.3243 107.29 59.3243 107.86C59.3243 108.43 59.4393 108.93 59.6693 109.36C59.9093 109.78 60.2193 110.1 60.5993 110.32C60.9893 110.54 61.3993 110.65 61.8293 110.65C62.2693 110.65 62.6793 110.54 63.0593 110.32C63.4493 110.09 63.7593 109.76 63.9893 109.33C64.2293 108.9 64.3493 108.4 64.3493 107.83ZM75.2653 103.735V112H73.5553V111.025C73.2853 111.365 72.9303 111.635 72.4903 111.835C72.0603 112.025 71.6003 112.12 71.1103 112.12C70.4603 112.12 69.8753 111.985 69.3553 111.715C68.8453 111.445 68.4403 111.045 68.1403 110.515C67.8503 109.985 67.7053 109.345 67.7053 108.595V103.735H69.4003V108.34C69.4003 109.08 69.5853 109.65 69.9553 110.05C70.3253 110.44 70.8303 110.635 71.4703 110.635C72.1103 110.635 72.6153 110.44 72.9853 110.05C73.3653 109.65 73.5553 109.08 73.5553 108.34V103.735H75.2653ZM79.2315 104.935C79.4815 104.515 79.8115 104.19 80.2215 103.96C80.6415 103.72 81.1365 103.6 81.7065 103.6V105.37H81.2715C80.6015 105.37 80.0915 105.54 79.7415 105.88C79.4015 106.22 79.2315 106.81 79.2315 107.65V112H77.5215V103.735H79.2315V104.935Z" fill="black"/>
<path d="M311.69 112H309.98L304.835 104.215V112H303.125V101.56H304.835L309.98 109.33V101.56H311.69V112ZM317.521 112.135C316.741 112.135 316.036 111.96 315.406 111.61C314.776 111.25 314.281 110.75 313.921 110.11C313.561 109.46 313.381 108.71 313.381 107.86C313.381 107.02 313.566 106.275 313.936 105.625C314.306 104.975 314.811 104.475 315.451 104.125C316.091 103.775 316.806 103.6 317.596 103.6C318.386 103.6 319.101 103.775 319.741 104.125C320.381 104.475 320.886 104.975 321.256 105.625C321.626 106.275 321.811 107.02 321.811 107.86C321.811 108.7 321.621 109.445 321.241 110.095C320.861 110.745 320.341 111.25 319.681 111.61C319.031 111.96 318.311 112.135 317.521 112.135ZM317.521 110.65C317.961 110.65 318.371 110.545 318.751 110.335C319.141 110.125 319.456 109.81 319.696 109.39C319.936 108.97 320.056 108.46 320.056 107.86C320.056 107.26 319.941 106.755 319.711 106.345C319.481 105.925 319.176 105.61 318.796 105.4C318.416 105.19 318.006 105.085 317.566 105.085C317.126 105.085 316.716 105.19 316.336 105.4C315.966 105.61 315.671 105.925 315.451 106.345C315.231 106.755 315.121 107.26 315.121 107.86C315.121 108.75 315.346 109.44 315.796 109.93C316.256 110.41 316.831 110.65 317.521 110.65ZM322.931 107.83C322.931 107 323.101 106.265 323.441 105.625C323.791 104.985 324.261 104.49 324.851 104.14C325.451 103.78 326.111 103.6 326.831 103.6C327.481 103.6 328.046 103.73 328.526 103.99C329.016 104.24 329.406 104.555 329.696 104.935V103.735H331.421V112H329.696V110.77C329.406 111.16 329.011 111.485 328.511 111.745C328.011 112.005 327.441 112.135 326.801 112.135C326.091 112.135 325.441 111.955 324.851 111.595C324.261 111.225 323.791 110.715 323.441 110.065C323.101 109.405 322.931 108.66 322.931 107.83ZM329.696 107.86C329.696 107.29 329.576 106.795 329.336 106.375C329.106 105.955 328.801 105.635 328.421 105.415C328.041 105.195 327.631 105.085 327.191 105.085C326.751 105.085 326.341 105.195 325.961 105.415C325.581 105.625 325.271 105.94 325.031 106.36C324.801 106.77 324.686 107.26 324.686 107.83C324.686 108.4 324.801 108.9 325.031 109.33C325.271 109.76 325.581 110.09 325.961 110.32C326.351 110.54 326.761 110.65 327.191 110.65C327.631 110.65 328.041 110.54 328.421 110.32C328.801 110.1 329.106 109.78 329.336 109.36C329.576 108.93 329.696 108.43 329.696 107.86ZM336.937 107.875L340.747 112H338.437L335.377 108.445V112H333.667V100.9H335.377V107.35L338.377 103.735H340.747L336.937 107.875ZM346.248 103.6C346.878 103.6 347.438 103.735 347.928 104.005C348.428 104.275 348.818 104.675 349.098 105.205C349.388 105.735 349.533 106.375 349.533 107.125V112H347.838V107.38C347.838 106.64 347.653 106.075 347.283 105.685C346.913 105.285 346.408 105.085 345.768 105.085C345.128 105.085 344.618 105.285 344.238 105.685C343.868 106.075 343.683 106.64 343.683 107.38V112H341.973V100.9H343.683V104.695C343.973 104.345 344.338 104.075 344.778 103.885C345.228 103.695 345.718 103.6 346.248 103.6ZM351.144 107.83C351.144 107 351.314 106.265 351.654 105.625C352.004 104.985 352.474 104.49 353.064 104.14C353.664 103.78 354.324 103.6 355.044 103.6C355.694 103.6 356.259 103.73 356.739 103.99C357.229 104.24 357.619 104.555 357.909 104.935V103.735H359.634V112H357.909V110.77C357.619 111.16 357.224 111.485 356.724 111.745C356.224 112.005 355.654 112.135 355.014 112.135C354.304 112.135 353.654 111.955 353.064 111.595C352.474 111.225 352.004 110.715 351.654 110.065C351.314 109.405 351.144 108.66 351.144 107.83ZM357.909 107.86C357.909 107.29 357.789 106.795 357.549 106.375C357.319 105.955 357.014 105.635 356.634 105.415C356.254 105.195 355.844 105.085 355.404 105.085C354.964 105.085 354.554 105.195 354.174 105.415C353.794 105.625 353.484 105.94 353.244 106.36C353.014 106.77 352.899 107.26 352.899 107.83C352.899 108.4 353.014 108.9 353.244 109.33C353.484 109.76 353.794 110.09 354.174 110.32C354.564 110.54 354.974 110.65 355.404 110.65C355.844 110.65 356.254 110.54 356.634 110.32C357.014 110.1 357.319 109.78 357.549 109.36C357.789 108.93 357.909 108.43 357.909 107.86ZM363.59 100.9V112H361.88V100.9H363.59ZM366.705 102.64C366.395 102.64 366.135 102.535 365.925 102.325C365.715 102.115 365.61 101.855 365.61 101.545C365.61 101.235 365.715 100.975 365.925 100.765C366.135 100.555 366.395 100.45 366.705 100.45C367.005 100.45 367.26 100.555 367.47 100.765C367.68 100.975 367.785 101.235 367.785 101.545C367.785 101.855 367.68 102.115 367.47 102.325C367.26 102.535 367.005 102.64 366.705 102.64ZM367.545 103.735V112H365.835V103.735H367.545Z" fill="black"/>
<path d="M351.178 82.3359V93H349.787V82.3359H351.178ZM354.606 82.3359V83.4932H346.366V82.3359H354.606ZM354.892 89.1255V88.957C354.892 88.3857 354.975 87.856 355.141 87.3677C355.307 86.8745 355.546 86.4473 355.858 86.0859C356.171 85.7197 356.549 85.4365 356.994 85.2363C357.438 85.0312 357.936 84.9287 358.488 84.9287C359.044 84.9287 359.545 85.0312 359.989 85.2363C360.438 85.4365 360.819 85.7197 361.132 86.0859C361.449 86.4473 361.691 86.8745 361.857 87.3677C362.023 87.856 362.106 88.3857 362.106 88.957V89.1255C362.106 89.6968 362.023 90.2266 361.857 90.7148C361.691 91.2031 361.449 91.6304 361.132 91.9966C360.819 92.3579 360.441 92.6411 359.997 92.8462C359.557 93.0464 359.059 93.1465 358.502 93.1465C357.946 93.1465 357.445 93.0464 357.001 92.8462C356.557 92.6411 356.176 92.3579 355.858 91.9966C355.546 91.6304 355.307 91.2031 355.141 90.7148C354.975 90.2266 354.892 89.6968 354.892 89.1255ZM356.247 88.957V89.1255C356.247 89.521 356.293 89.8945 356.386 90.2461C356.479 90.5928 356.618 90.9004 356.803 91.1689C356.994 91.4375 357.23 91.6499 357.514 91.8062C357.797 91.9575 358.126 92.0332 358.502 92.0332C358.874 92.0332 359.198 91.9575 359.477 91.8062C359.76 91.6499 359.994 91.4375 360.18 91.1689C360.365 90.9004 360.504 90.5928 360.597 90.2461C360.695 89.8945 360.744 89.521 360.744 89.1255V88.957C360.744 88.5664 360.695 88.1978 360.597 87.8511C360.504 87.4995 360.363 87.1895 360.172 86.9209C359.987 86.6475 359.752 86.4326 359.469 86.2764C359.191 86.1201 358.864 86.042 358.488 86.042C358.117 86.042 357.79 86.1201 357.506 86.2764C357.228 86.4326 356.994 86.6475 356.803 86.9209C356.618 87.1895 356.479 87.4995 356.386 87.8511C356.293 88.1978 356.247 88.5664 356.247 88.957Z" fill="black"/>
<path d="M193 103C198.523 103 203 98.5228 203 93C203 87.4772 198.523 83 193 83C187.477 83 183 87.4772 183 93C183 98.5228 187.477 103 193 103Z" stroke="#FF634F" stroke-width="1.5" stroke-linecap="round" stroke-linejoin="round"/>
<path d="M193 97L197 93L193 89" stroke="#FF634F" stroke-width="1.5" stroke-linecap="round" stroke-linejoin="round"/>
<path d="M189 93H197" stroke="#FF634F" stroke-width="1.5" stroke-linecap="round" stroke-linejoin="round"/>
<line x1="4.37114e-08" y1="69.5" x2="388" y2="69.5" stroke="black" stroke-opacity="0.12" stroke-dasharray="5 5"/>
</svg>
