<svg width="32" height="32" viewBox="0 0 32 32" fill="none" xmlns="http://www.w3.org/2000/svg">
<g clip-path="url(#clip0_263_2504)">
<path d="M14.75 23.2501C14.75 23.9404 15.3096 24.5001 16 24.5001C16.6904 24.5001 17.25 23.9404 17.25 23.2501C17.25 22.5597 16.6904 22.0001 16 22.0001C15.3096 22.0001 14.75 22.5597 14.75 23.2501ZM16 7.5C16.6904 7.5 17.25 8.05963 17.25 8.75V18.2499C17.25 18.9403 16.6904 19.4999 16 19.4999C15.3096 19.4999 14.75 18.9403 14.75 18.2499V8.75C14.75 8.05963 15.3096 7.5 16 7.5ZM0.0681877 30.3469C-0.263875 31.3266 0.674 32.2637 1.65325 31.9319L7.91775 29.8084C10.3637 31.2428 13.1452 31.9981 16.001 31.9981C24.8443 31.9981 32 24.8412 32 15.999C32 7.15562 24.8432 0 16.001 0C7.15769 0 0.00200081 7.15687 0.00200081 15.999C0.00200081 18.8548 0.757249 21.6363 2.19169 24.0823L0.0681877 30.3469ZM4.61669 23.2563C3.23319 21.0908 2.50187 18.5813 2.50187 15.999C2.50187 8.53737 8.54044 2.49981 16.001 2.49981C23.4626 2.49981 29.5001 8.53837 29.5001 15.999C29.5001 23.4606 23.4616 29.4982 16.001 29.4982C13.4187 29.4982 10.9092 28.7669 8.74375 27.3834C8.424 27.1791 8.02881 27.1311 7.6695 27.2529L3.2485 28.7516L4.74713 24.3306C4.86894 23.9712 4.82094 23.576 4.61669 23.2563V23.2563Z" fill="#FF4F39"/>
</g>
<defs>
<clipPath id="clip0_263_2504">
<rect width="32" height="32" fill="white" transform="matrix(-1 0 0 1 32 0)"/>
</clipPath>
</defs>
</svg>
