<svg width="32" height="32" viewBox="0 0 32 32" fill="none" xmlns="http://www.w3.org/2000/svg">
<g clip-path="url(#clip0_28_982)">
<path d="M8.23376 16.745C8.85029 16.745 9.35009 16.2452 9.35009 15.6287C9.35009 15.0121 8.85029 14.5123 8.23376 14.5123C7.61723 14.5123 7.11743 15.0121 7.11743 15.6287C7.11743 16.2452 7.61723 16.745 8.23376 16.745Z" stroke="#9A9A9A" stroke-width="2" stroke-linecap="round" stroke-linejoin="round"/>
<path d="M15.4899 16.745C16.1064 16.745 16.6062 16.2452 16.6062 15.6287C16.6062 15.0121 16.1064 14.5123 15.4899 14.5123C14.8733 14.5123 14.3735 15.0121 14.3735 15.6287C14.3735 16.2452 14.8733 16.745 15.4899 16.745Z" stroke="#9A9A9A" stroke-width="2" stroke-linecap="round" stroke-linejoin="round"/>
<path d="M22.746 16.745C23.3625 16.745 23.8623 16.2452 23.8623 15.6287C23.8623 15.0121 23.3625 14.5123 22.746 14.5123C22.1294 14.5123 21.6296 15.0121 21.6296 15.6287C21.6296 16.2452 22.1294 16.745 22.746 16.745Z" stroke="#9A9A9A" stroke-width="2" stroke-linecap="round" stroke-linejoin="round"/>
<path d="M16.048 1.11634C13.4229 1.11715 10.8472 1.82998 8.59522 3.1789C6.34322 4.52783 4.49928 6.46232 3.25979 8.77635C2.0203 11.0904 1.43167 13.6973 1.55661 16.3194C1.68154 18.9415 2.51536 21.4806 3.96925 23.6663L1.53564 30.141L9.68489 28.6675C11.6472 29.6264 13.8006 30.13 15.9847 30.1409C18.1687 30.1517 20.3271 29.6694 22.2988 28.7299C24.2705 27.7905 26.0047 26.4181 27.3722 24.7152C28.7397 23.0122 29.7052 21.0225 30.1967 18.8944C30.6882 16.7664 30.693 14.5548 30.2108 12.4246C29.7286 10.2945 28.7718 8.30059 27.4118 6.59166C26.0517 4.88272 24.3235 3.50281 22.3559 2.55478C20.3883 1.60674 18.2321 1.11505 16.048 1.11634V1.11634Z" stroke="#9A9A9A" stroke-width="2" stroke-linecap="round" stroke-linejoin="round"/>
</g>
<defs>
<clipPath id="clip0_28_982">
<rect width="31.2574" height="31.2574" fill="white" transform="translate(0.419189)"/>
</clipPath>
</defs>
</svg>
