<svg width="30" height="30" viewBox="0 0 30 30" fill="none" xmlns="http://www.w3.org/2000/svg">
<g clip-path="url(#clip0_155_53)">
<path d="M8.07658 14.9183C7.04003 14.9183 6.02676 14.6109 5.1649 14.035C4.30304 13.4592 3.6313 12.6407 3.23463 11.683C2.83796 10.7254 2.73418 9.6716 2.9364 8.65497C3.13862 7.63833 3.63776 6.7045 4.37072 5.97155C5.10367 5.2386 6.0375 4.73945 7.05414 4.53723C8.07077 4.33501 9.12454 4.43879 10.0822 4.83546C11.0398 5.23213 11.8583 5.90387 12.4342 6.76573C13.0101 7.62759 13.3175 8.64086 13.3175 9.67741C13.3159 11.0669 12.7632 12.399 11.7807 13.3815C10.7982 14.364 9.46606 14.9167 8.07658 14.9183ZM8.07658 5.57585C7.26537 5.57585 6.47237 5.8164 5.79788 6.26709C5.12338 6.71777 4.59767 7.35835 4.28723 8.10781C3.97679 8.85727 3.89557 9.68196 4.05383 10.4776C4.21209 11.2732 4.60272 12.004 5.17634 12.5777C5.74995 13.1513 6.48078 13.5419 7.27641 13.7002C8.07203 13.8584 8.89672 13.7772 9.64618 13.4668C10.3956 13.1563 11.0362 12.6306 11.4869 11.9561C11.9376 11.2816 12.1781 10.4886 12.1781 9.67741C12.1769 8.58998 11.7444 7.54743 10.9755 6.7785C10.2066 6.00957 9.16401 5.57706 8.07658 5.57585Z" fill="black"/>
<path d="M15.0833 24.7278H1.06966C0.918578 24.7278 0.773682 24.6677 0.66685 24.5609C0.560018 24.4541 0.5 24.3092 0.5 24.1581V21.3554C0.5 19.346 1.29824 17.4188 2.7191 15.998C4.13997 14.5771 6.06709 13.7789 8.0765 13.7789C10.0859 13.7789 12.013 14.5771 13.4339 15.998C14.8548 17.4188 15.653 19.346 15.653 21.3554V24.1581C15.653 24.3092 15.593 24.4541 15.4861 24.5609C15.3793 24.6677 15.2344 24.7278 15.0833 24.7278ZM1.63932 23.5884H14.5137V21.3554C14.5137 19.6481 13.8355 18.0108 12.6283 16.8036C11.4211 15.5964 9.78374 14.9182 8.0765 14.9182C6.36925 14.9182 4.73193 15.5964 3.52473 16.8036C2.31752 18.0108 1.63932 19.6481 1.63932 21.3554V23.5884Z" fill="black"/>
<path d="M22.0903 14.9183C21.0537 14.9183 20.0404 14.6109 19.1786 14.035C18.3167 13.4592 17.645 12.6407 17.2483 11.683C16.8516 10.7254 16.7478 9.6716 16.9501 8.65497C17.1523 7.63833 17.6514 6.7045 18.3844 5.97155C19.1173 5.2386 20.0512 4.73945 21.0678 4.53723C22.0844 4.33501 23.1382 4.43879 24.0959 4.83546C25.0535 5.23213 25.872 5.90387 26.4479 6.76573C27.0238 7.62759 27.3311 8.64086 27.3311 9.67741C27.3295 11.0669 26.7769 12.399 25.7944 13.3815C24.8118 14.364 23.4797 14.9167 22.0903 14.9183ZM22.0903 5.57585C21.279 5.57585 20.486 5.8164 19.8115 6.26709C19.137 6.71777 18.6113 7.35835 18.3009 8.10781C17.9905 8.85727 17.9092 9.68196 18.0675 10.4776C18.2258 11.2732 18.6164 12.004 19.19 12.5777C19.7636 13.1513 20.4945 13.5419 21.2901 13.7002C22.0857 13.8584 22.9104 13.7772 23.6599 13.4668C24.4093 13.1563 25.0499 12.6306 25.5006 11.9561C25.9513 11.2816 26.1918 10.4886 26.1918 9.67741C26.1906 8.58998 25.7581 7.54743 24.9892 6.7785C24.2202 6.00957 23.1777 5.57706 22.0903 5.57585Z" fill="black"/>
<path d="M29.097 24.7278H15.0833C14.9322 24.7278 14.7874 24.6677 14.6805 24.5609C14.5737 24.4541 14.5137 24.3092 14.5137 24.1581V21.3554C14.5137 19.346 15.3119 17.4188 16.7328 15.998C18.1536 14.5771 20.0808 13.7789 22.0902 13.7789C24.0996 13.7789 26.0267 14.5771 27.4476 15.998C28.8684 17.4188 29.6667 19.346 29.6667 21.3554V24.1581C29.6667 24.3092 29.6066 24.4541 29.4998 24.5609C29.393 24.6677 29.2481 24.7278 29.097 24.7278ZM15.653 23.5884H28.5273V21.3554C28.5273 19.6481 27.8491 18.0108 26.6419 16.8036C25.4347 15.5964 23.7974 14.9182 22.0902 14.9182C20.3829 14.9182 18.7456 15.5964 17.5384 16.8036C16.3312 18.0108 15.653 19.6481 15.653 21.3554V23.5884Z" fill="black"/>
</g>
<defs>
<clipPath id="clip0_155_53">
<rect width="29.1667" height="29.1667" fill="white" transform="translate(0.5)"/>
</clipPath>
</defs>
</svg>
