<svg width="27" height="32" viewBox="0 0 27 32" fill="none" xmlns="http://www.w3.org/2000/svg">
<path d="M27 22.2732V19.6881L15.7987 11.425C15.8328 9.24722 15.83 7.0442 15.7613 4.79813C15.636 2.1444 14.6081 0 13.5 0C12.3922 0 11.3643 2.1444 11.2391 4.79813C11.1704 7.0442 11.1675 9.24727 11.2017 11.425L0 19.6882V22.2732L11.3844 17.584C11.5274 21.0784 11.7021 24.541 11.8279 28.0234L8.36204 29.9425V31.6494L13.5 30.7532L18.6376 31.6494V29.9425L15.1726 28.0234C15.2978 24.541 15.4721 21.0784 15.616 17.584L27 22.2732Z" fill="#B5C8FD"/>
<path d="M7.10072 13.1283H5.00513V16.6459H7.10072V13.1283Z" fill="#B5C8FD"/>
<path d="M21.9945 13.1282H19.8989V16.6458H21.9945V13.1282Z" fill="#B5C8FD"/>
</svg>
