<svg width="35" height="30" viewBox="0 0 35 30" fill="none" xmlns="http://www.w3.org/2000/svg">
<path d="M20.1951 1.73609C20.1951 0.778808 19.4163 0 18.459 0H15.8684C14.9111 0 14.1323 0.778808 14.1323 1.73609V4.33165H20.1951V1.73609Z" fill="#B5C8FD"/>
<path d="M17.418 10.8615L27.4813 13.4909V7.00155C27.4813 6.63842 27.1859 6.34302 26.8228 6.34302H7.50484C7.14172 6.34302 6.84631 6.63842 6.84631 7.00155V13.4909L16.9096 10.8615C17.0762 10.8179 17.2513 10.8179 17.418 10.8615Z" fill="#B5C8FD"/>
<path d="M33.3219 27.9885C32.2119 27.9885 31.7112 27.7392 31.0772 27.4234C30.7796 27.2753 30.4658 27.119 30.0913 26.9859C29.5713 26.801 28.9341 26.6609 28.061 26.6486L31.7431 17.3793C31.8247 17.1591 31.7595 16.9759 31.713 16.8859C31.6662 16.7951 31.5534 16.6338 31.3232 16.5737L17.1638 12.874L3.00434 16.5737C2.7741 16.6338 2.66126 16.7951 2.61453 16.8859C2.56807 16.976 2.50283 17.1594 2.58456 17.3796L6.25849 26.6487C5.38568 26.6619 4.74915 26.8029 4.22954 26.9884C3.85817 27.121 3.54634 27.2762 3.2506 27.4235C2.61654 27.7392 2.11578 27.9886 1.00569 27.9886C0.450282 27.9886 0 28.4389 0 28.9943C0 29.5497 0.450282 30 1.00569 30C2.58879 30 3.41667 29.5878 4.14707 29.2241C4.43168 29.0824 4.68974 28.9544 4.98777 28.8559C5.35377 28.7351 5.78012 28.6591 6.39198 28.6591C6.53164 28.6591 6.66157 28.6631 6.78346 28.6706C7.63012 28.7229 8.08262 28.9482 8.63689 29.2242C9.36729 29.5878 10.1952 30 11.7783 30C13.3613 30 14.1891 29.5878 14.9196 29.2242C15.5536 28.9085 16.0543 28.6591 17.1643 28.6591C18.2742 28.6591 18.7749 28.9084 19.4089 29.2242C20.1393 29.5878 20.9671 30 22.5502 30C24.1332 30 24.961 29.5878 25.6914 29.2242C26.2474 28.9473 26.7011 28.7216 27.5529 28.6702C27.6724 28.663 27.7996 28.6591 27.9361 28.6591C28.5413 28.6591 28.9649 28.7336 29.3281 28.8522C29.6312 28.9511 29.8925 29.0806 30.1808 29.2242C30.9112 29.5878 31.739 30 33.322 30C33.8774 30 34.3277 29.5497 34.3277 28.9943C34.3277 28.4389 33.8773 27.9885 33.3219 27.9885ZM7.86599 18.0208L16.9095 15.6578C17.0762 15.6143 17.2513 15.6143 17.418 15.6578L26.4615 18.0208C26.9989 18.1611 27.3207 18.7107 27.1803 19.248C27.0622 19.7002 26.6544 19.9998 26.208 19.9998C26.1239 19.9998 26.0383 19.9891 25.9531 19.9668L17.1638 17.6703L8.37447 19.9668C7.83709 20.1072 7.28758 19.7854 7.14719 19.248C7.00679 18.7107 7.32862 18.1611 7.86599 18.0208Z" fill="#B5C8FD"/>
</svg>
