<svg width="32" height="32" viewBox="0 0 32 32" fill="none" xmlns="http://www.w3.org/2000/svg">
<g clip-path="url(#clip0_28_995)">
<path d="M10.6467 5.20337L9.77594 5.40431C9.85481 5.74749 9.86466 6.10293 9.80494 6.44995C9.74522 6.79698 9.61711 7.12867 9.42806 7.42574C9.23901 7.72282 8.99279 7.97935 8.70372 8.18043C8.41465 8.38151 8.0885 8.52311 7.74421 8.59702C7.04608 8.74388 6.3182 8.61098 5.71701 8.22689C5.11582 7.84279 4.68932 7.23817 4.52917 6.54297L2.78769 6.9002C2.54886 6.95231 2.32308 7.05229 2.12399 7.19411C1.92489 7.33593 1.75661 7.51663 1.62932 7.72531C1.50202 7.93399 1.41835 8.16632 1.38337 8.40824C1.34838 8.65016 1.3628 8.89667 1.42576 9.13286C1.42576 9.13286 2.22952 12.8614 3.16724 17.0588" stroke="#FF634F" stroke-width="2" stroke-linecap="round" stroke-linejoin="round"/>
<path d="M27.3918 5.18101C27.2584 5.55695 27.0501 5.90189 26.7794 6.19493C26.5087 6.48797 26.1814 6.72302 25.8172 6.88583C25.4531 7.04864 25.0596 7.13582 24.6608 7.14209C24.2619 7.14836 23.8659 7.0736 23.4968 6.92232C23.1277 6.77104 22.7931 6.54641 22.5134 6.26202C22.2336 5.97763 22.0146 5.63941 21.8694 5.26785C21.7242 4.8963 21.656 4.49913 21.6688 4.10043C21.6817 3.70173 21.7753 3.30978 21.9441 2.94834L20.1356 2.09992C19.6527 1.89868 19.11 1.89599 18.6251 2.09245C18.1402 2.2889 17.7524 2.66865 17.5457 3.14928L10.044 20.8097L9.06159 23.0424C8.86035 23.5253 8.85766 24.0681 9.05412 24.5529C9.25057 25.0378 9.63032 25.4256 10.1109 25.6323L19.1756 29.4948C19.6585 29.696 20.2013 29.6987 20.6862 29.5023C21.171 29.3058 21.5589 28.9261 21.7655 28.4454L30.2496 8.48536C30.4367 8.02121 30.4418 7.50357 30.2638 7.03586C30.0858 6.56815 29.7379 6.18481 29.2896 5.96244L27.3918 5.18101Z" stroke="#FF634F" stroke-width="2" stroke-linecap="round" stroke-linejoin="round"/>
</g>
<defs>
<clipPath id="clip0_28_995">
<rect width="31.2574" height="31.2574" fill="white" transform="translate(0.264648 0.202148)"/>
</clipPath>
</defs>
</svg>
