<svg width="35" height="25" viewBox="0 0 35 25" fill="none" xmlns="http://www.w3.org/2000/svg">
<path d="M33.25 25H1.75C0.783504 25 0 24.2165 0 23.25V22.6667C0 21.7002 0.783504 20.9167 1.75 20.9167H5.98559C5.57408 20.4195 5.32272 19.8094 5.26459 19.1667H4.67367C2.95268 19.1667 1.37135 18.2196 0.559196 16.7022C-0.252953 15.1849 -0.164085 13.3438 0.790417 11.9118L7.01283 2.57842C7.87709 1.27856 9.33513 0.498185 10.8961 0.500003H33.25C34.2165 0.500003 35 1.2835 35 2.25V18.5833C35 18.9055 34.7388 19.1667 34.4167 19.1667H19.2354C19.1773 19.8094 18.9259 20.4195 18.5144 20.9167H33.25C34.2165 20.9167 35 21.7002 35 22.6667V23.25C35 24.2165 34.2165 25 33.25 25ZM8.45833 20.9167C9.47046 20.9138 10.3272 20.1686 10.4703 19.1667H6.44525C6.58841 20.1691 7.44576 20.9144 8.45833 20.9167ZM11.6521 19.1667C11.5939 19.8094 11.3426 20.4195 10.9311 20.9167H13.5689C13.1574 20.4195 12.9061 19.8094 12.8479 19.1667H11.6521ZM3.57817 9.83334H11.6667C11.9888 9.83334 12.25 9.57217 12.25 9.25V5.16667C12.25 4.8445 11.9888 4.58334 11.6667 4.58334H7.07817L3.57817 9.83334ZM33.8333 13.9167H32.0833V14.5C32.0833 15.4665 31.2998 16.25 30.3333 16.25H26.25C25.2835 16.25 24.5 15.4665 24.5 14.5V13.9167H11.0833C10.7612 13.9167 10.5 13.6555 10.5 13.3333C10.5 13.0112 10.7612 12.75 11.0833 12.75H24.5V5.16667C24.5 4.20017 25.2835 3.41667 26.25 3.41667H30.3333C31.2998 3.41667 32.0833 4.20017 32.0833 5.16667V12.75H33.8333V2.25C33.8333 1.92784 33.5722 1.66667 33.25 1.66667H10.8961C9.72555 1.66539 8.63221 2.25061 7.98409 3.22534L7.85633 3.41667H11.6667C12.6332 3.41667 13.4167 4.20017 13.4167 5.16667V9.25C13.4167 10.2165 12.6332 11 11.6667 11H2.8L1.76109 12.5587C1.71909 12.6205 1.68817 12.6864 1.65084 12.75H8.16667C8.48883 12.75 8.75 13.0112 8.75 13.3333C8.75 13.6555 8.48883 13.9167 8.16667 13.9167H1.218C1.04912 14.9328 1.33535 15.9718 2.00078 16.7581C2.66621 17.5444 3.64359 17.9985 4.67367 18H33.8333V13.9167ZM25.6667 14.5C25.6667 14.8222 25.9278 15.0833 26.25 15.0833H30.3333C30.6555 15.0833 30.9167 14.8222 30.9167 14.5V5.16667C30.9167 4.8445 30.6555 4.58334 30.3333 4.58334H26.25C25.9278 4.58334 25.6667 4.8445 25.6667 5.16667V14.5ZM18.0536 19.1667H14.0286C14.1679 20.1714 15.0268 20.9194 16.0411 20.9194C17.0554 20.9194 17.9143 20.1714 18.0536 19.1667ZM33.8333 22.6667C33.8333 22.3445 33.5722 22.0833 33.25 22.0833H1.75C1.42783 22.0833 1.16667 22.3445 1.16667 22.6667V23.25C1.16667 23.5722 1.42783 23.8333 1.75 23.8333H33.25C33.5722 23.8333 33.8333 23.5722 33.8333 23.25V22.6667Z" fill="black"/>
<path d="M16.9167 3.41666H21C21.9665 3.41666 22.75 4.20016 22.75 5.16666V9.24999C22.75 10.2165 21.9665 11 21 11H16.9167C15.9502 11 15.1667 10.2165 15.1667 9.24999V5.16666C15.1667 4.20016 15.9502 3.41666 16.9167 3.41666ZM16.3333 9.24999C16.3333 9.57216 16.5945 9.83332 16.9167 9.83332H21C21.3222 9.83332 21.5833 9.57216 21.5833 9.24999V5.16666C21.5833 4.84449 21.3222 4.58332 21 4.58332H16.9167C16.5945 4.58332 16.3333 4.84449 16.3333 5.16666V9.24999Z" fill="black"/>
<path d="M27.4167 5.75H29.1667C29.4888 5.75 29.75 6.01117 29.75 6.33333C29.75 6.6555 29.4888 6.91667 29.1667 6.91667H27.4167C27.0945 6.91667 26.8333 6.6555 26.8333 6.33333C26.8333 6.01117 27.0945 5.75 27.4167 5.75Z" fill="black"/>
<path d="M27.4167 8.08334H29.1667C29.4888 8.08334 29.75 8.34451 29.75 8.66668C29.75 8.98884 29.4888 9.25001 29.1667 9.25001H27.4167C27.0945 9.25001 26.8333 8.98884 26.8333 8.66668C26.8333 8.34451 27.0945 8.08334 27.4167 8.08334Z" fill="black"/>
</svg>
