<svg width="26" height="33" viewBox="0 0 26 33" fill="none" xmlns="http://www.w3.org/2000/svg">
<path d="M17.875 0H8.125C5.97035 0.000775254 3.90418 0.857049 2.38061 2.38061C0.857049 3.90418 0.000775254 5.97036 0 8.125V24.375C0.00282123 25.3306 0.285498 26.2644 0.813114 27.0612C1.34073 27.8579 2.09017 28.4827 2.96888 28.8582L2.10096 29.7261C1.80388 30.0324 1.63918 30.4433 1.64244 30.8699C1.6457 31.2966 1.81665 31.7049 2.11839 32.0066C2.42012 32.3083 2.82841 32.4793 3.25509 32.4825C3.68178 32.4857 4.09261 32.321 4.39887 32.0239L7.17291 29.25H18.8273L21.6011 32.0239C21.9076 32.3199 22.3181 32.4837 22.7442 32.48C23.1702 32.4763 23.5778 32.3054 23.8791 32.0041C24.1804 31.7028 24.3513 31.2952 24.355 30.8692C24.3587 30.4431 24.1949 30.0326 23.8989 29.7261L23.031 28.8582C23.9097 28.4827 24.6592 27.858 25.1868 27.0612C25.7145 26.2645 25.9972 25.3306 26 24.375V8.125C25.9992 5.97036 25.143 3.90418 23.6194 2.38061C22.0958 0.857049 20.0296 0.000775254 17.875 0ZM6.5 24.375C6.17861 24.375 5.86443 24.2797 5.5972 24.1011C5.32997 23.9226 5.12169 23.6688 4.9987 23.3719C4.8757 23.0749 4.84352 22.7482 4.90622 22.433C4.96892 22.1178 5.12369 21.8282 5.35095 21.601C5.57821 21.3737 5.86776 21.2189 6.18298 21.1562C6.4982 21.0935 6.82493 21.1257 7.12186 21.2487C7.41879 21.3717 7.67258 21.58 7.85114 21.8472C8.0297 22.1144 8.125 22.4286 8.125 22.75C8.12371 23.1806 7.9521 23.5932 7.64763 23.8976C7.34316 24.2021 6.93058 24.3737 6.5 24.375ZM4.875 14.625V8.125C4.87753 7.26383 5.22075 6.43864 5.8297 5.8297C6.43864 5.22075 7.26382 4.87753 8.125 4.875H17.875C18.7362 4.87753 19.5614 5.22075 20.1703 5.8297C20.7792 6.43864 21.1225 7.26383 21.125 8.125V14.625C21.1225 15.4862 20.7792 16.3114 20.1703 16.9203C19.5614 17.5293 18.7362 17.8725 17.875 17.875H8.125C7.26382 17.8725 6.43864 17.5293 5.8297 16.9203C5.22075 16.3114 4.87753 15.4862 4.875 14.625ZM19.5 24.375C19.1786 24.375 18.8644 24.2797 18.5972 24.1011C18.33 23.9226 18.1217 23.6688 17.9987 23.3719C17.8757 23.0749 17.8435 22.7482 17.9062 22.433C17.9689 22.1178 18.1237 21.8282 18.351 21.601C18.5782 21.3737 18.8678 21.2189 19.183 21.1562C19.4982 21.0935 19.8249 21.1257 20.1219 21.2487C20.4188 21.3717 20.6726 21.58 20.8511 21.8472C21.0297 22.1144 21.125 22.4286 21.125 22.75C21.1237 23.1806 20.9521 23.5932 20.6476 23.8976C20.3432 24.2021 19.9306 24.3737 19.5 24.375Z" fill="white"/>
</svg>
